<svg width="8500" height="4409" viewBox="0 0 8500 4409" fill="none" xmlns="http://www.w3.org/2000/svg">
<g clip-path="url(#clip0_2853_24)">
<path opacity="0.85" d="M9532.6 1406.42C9364.96 1560.92 9275.24 1759.58 9275.24 1962.37C9275.24 2038.24 9288.22 2115.5 9314.19 2189.99C9434.61 2539.02 9266.97 2911.49 8901 3112.9L8471.28 3348.8C8294.19 3446.75 8158.43 3587.46 8084.06 3751.63L8047.46 3833.02C7853.85 4260.68 7328.5 4522.79 6779.54 4464.85C6351 4419.32 5926 4569.69 5668.64 4856.64L5202.32 5378.1H4821V4230.33L5381.76 3790.26C5575.37 3638.51 5830.37 3557.11 6090.1 3557.11C6191.62 3557.11 6294.33 3569.53 6394.68 3595.74C6850.37 3711.62 7342.67 3555.73 7584.68 3216.37L7630.72 3151.53C7723.99 3021.85 7864.47 2918.39 8032.11 2857.69L8439.4 2710.08C8758.15 2594.2 8961.21 2334.84 8961.21 2052.04C8961.21 2027.21 8960.03 2003.76 8956.49 1978.92C8925.79 1734.75 9049.75 1493.33 9283.5 1341.58L9844.26 976H10000.1L9532.6 1406.42Z" fill="url(#paint0_linear_2853_24)"/>
<path d="M8515.94 -8.73277V4394.75H389L852.958 3873.28C1078.44 3620.83 1433.79 3473.22 1808.03 3473.22C1857.61 3473.22 1908.37 3475.98 1957.96 3481.5C2504.56 3539.44 3027.54 3277.32 3219.97 2849.67L3256.57 2768.28C3330.94 2604.11 3465.53 2463.4 3641.43 2365.45L4068.79 2129.55C4354.49 1972.28 4518.58 1708.79 4518.58 1434.26C4518.58 1358.39 4506.78 1282.51 4480.81 1206.64C4386.36 932.111 4469 636.891 4698.03 423.062L5164.35 -10.1123H8515.94V-8.73277Z" fill="url(#paint1_linear_2853_24)"/>
<path opacity="0.52" d="M4084.14 3295.26H3791.36C3754.76 3295.26 3724.07 3270.43 3724.07 3240.08C3724.07 3209.73 3754.76 3184.9 3791.36 3184.9H4084.14C4120.74 3184.9 4151.43 3209.73 4151.43 3240.08C4151.43 3270.43 4120.74 3295.26 4084.14 3295.26Z" fill="url(#paint2_linear_2853_24)"/>
<path opacity="0.52" d="M6878.51 2479.95H6726.22C6697.89 2479.95 6675.46 2460.64 6675.46 2438.57C6675.46 2415.11 6697.89 2397.18 6726.22 2397.18H6878.51C6906.85 2397.18 6929.28 2416.49 6929.28 2438.57C6929.28 2462.02 6905.67 2479.95 6878.51 2479.95Z" fill="url(#paint3_linear_2853_24)"/>
<path opacity="0.52" d="M2698.17 2929.68H2476.22C2447.89 2929.68 2425.46 2910.37 2425.46 2888.29C2425.46 2864.84 2447.89 2846.91 2476.22 2846.91H2698.17C2726.5 2846.91 2748.93 2866.22 2748.93 2888.29C2750.11 2910.37 2726.5 2929.68 2698.17 2929.68Z" fill="url(#paint4_linear_2853_24)"/>
<path opacity="0.52" d="M7703.72 210.614H7475.87C7447.54 210.614 7423.93 191.3 7423.93 167.848C7423.93 144.396 7447.54 125.083 7475.87 125.083H7703.72C7732.05 125.083 7755.67 144.396 7755.67 167.848C7756.85 191.3 7733.24 210.614 7703.72 210.614Z" fill="url(#paint5_linear_2853_24)"/>
<path opacity="0.52" d="M4765.32 2558.59C4761.78 2532.37 4734.62 2511.68 4701.57 2511.68C4668.51 2511.68 4642.54 2530.99 4637.82 2557.21H4565.81C4525.67 2557.21 4492.61 2583.42 4492.61 2616.53C4492.61 2649.63 4525.67 2675.85 4565.81 2675.85H4747.61C4787.75 2675.85 4820.81 2649.63 4820.81 2616.53C4820.81 2588.94 4797.19 2565.48 4765.32 2558.59Z" fill="url(#paint6_linear_2853_24)"/>
<path opacity="0.52" d="M2736.99 3189.42C2740.53 3160.45 2770.04 3137 2806.64 3137C2842.05 3137 2871.57 3159.07 2876.29 3186.66H2955.39C2999.07 3186.66 3035.67 3215.63 3035.67 3251.5C3035.67 3287.37 3000.25 3316.34 2955.39 3316.34H2755.87C2712.19 3316.34 2675.6 3287.37 2675.6 3251.5C2676.78 3221.15 2702.75 3196.32 2736.99 3189.42Z" fill="url(#paint7_linear_2853_24)"/>
<path opacity="0.52" d="M7163.03 383.056H7047.33C7047.33 330.633 6995.39 286.488 6930.46 286.488C6865.53 286.488 6813.58 329.254 6813.58 383.056H6780.53C6728.58 383.056 6686.08 417.544 6686.08 460.31C6686.08 503.076 6728.58 537.564 6780.53 537.564H7164.21C7216.15 537.564 7258.65 503.076 7258.65 460.31C7257.47 417.544 7214.97 383.056 7163.03 383.056Z" fill="url(#paint8_linear_2853_24)"/>
<path opacity="0.52" d="M3234.14 2598.59H3117.26C3117.26 2544.79 3064.14 2500.65 2998.03 2500.65C2931.92 2500.65 2878.79 2544.79 2878.79 2598.59H2844.55C2791.43 2598.59 2748.93 2634.46 2748.93 2677.23C2748.93 2719.99 2792.61 2755.86 2844.55 2755.86H3232.96C3286.08 2755.86 3328.58 2719.99 3328.58 2677.23C3328.58 2634.46 3287.26 2598.59 3234.14 2598.59Z" fill="url(#paint9_linear_2853_24)"/>
<path d="M3372.26 2868.98H2942.54V2874.5H3372.26V2868.98Z" fill="#6BE2FF"/>
<path d="M3970.81 3528.4H3630.81V3533.92H3970.81V3528.4Z" fill="#6BE2FF"/>
<path d="M3865.74 3441.49H3221.15V3447.01H3865.74V3441.49Z" fill="#6BE2FF"/>
<path d="M2420.74 3051.08H2074.83V3056.6H2420.74V3051.08Z" fill="#6BE2FF"/>
<path d="M6821.85 2561.34H6475.95V2566.86H6821.85V2561.34Z" fill="#6BE2FF"/>
<path d="M8207.82 3176.62H7706.08V3182.14H8207.82V3176.62Z" fill="#6BE2FF"/>
<path d="M7501.85 572.052H7008.38V577.57H7501.85V572.052Z" fill="#6BE2FF"/>
<g opacity="0.27">
<path d="M6717.72 572.347C6692.93 558.551 6663.42 558.551 6638.62 572.347L6478.07 662.016C6465.08 668.914 6458 682.709 6458 695.125V696.505C6458 714.439 6468.62 730.993 6483.97 740.65L6638.62 824.802C6663.42 838.597 6692.93 838.597 6716.54 824.802L6888.9 730.993C6912.51 718.577 6913.69 685.469 6890.08 671.673L6717.72 572.347Z" fill="#210972"/>
<path d="M2598.36 3962.45C2566.49 3944.52 2526.35 3944.52 2494.47 3962.45L2281.97 4081.09C2264.26 4090.75 2256 4107.3 2256 4125.24V4127.99C2256 4151.45 2268.99 4173.52 2291.42 4185.94L2495.65 4297.68C2527.53 4315.61 2566.49 4315.61 2599.54 4297.68L2827.39 4174.9C2858.08 4158.34 2859.26 4115.58 2828.57 4097.65L2598.36 3962.45Z" fill="#210972"/>
<path d="M1713.36 3927.45C1681.49 3909.52 1641.35 3909.52 1609.47 3927.45L1396.97 4046.09C1379.26 4055.75 1371 4072.3 1371 4090.24V4092.99C1371 4116.45 1383.99 4138.52 1406.42 4150.94L1610.65 4262.68C1642.53 4280.61 1681.49 4280.61 1714.54 4262.68L1942.39 4139.9C1973.08 4123.34 1974.26 4080.58 1943.57 4062.65L1713.36 3927.45Z" fill="#210972"/>
<path d="M7273.36 1199.45C7241.49 1181.52 7201.35 1181.52 7169.47 1199.45L6956.97 1318.09C6939.26 1327.75 6931 1344.3 6931 1362.24V1364.99C6931 1388.45 6943.99 1410.52 6966.42 1422.94L7274.54 1594C7306.42 1611.93 7345.37 1611.93 7378.43 1594L7606.28 1471.22C7636.97 1454.66 7638.15 1411.9 7607.46 1393.97L7273.36 1199.45Z" fill="#210972"/>
<path d="M2484.37 3775.04C2452.5 3757.1 2412.36 3757.1 2380.49 3775.04L2167.99 3893.68C2150.28 3903.33 2142.01 3919.89 2142.01 3937.82V3940.58C2142.01 3964.03 2155 3986.11 2177.43 3998.52L2502.08 4182C2533.96 4199.93 2572.92 4199.93 2605.97 4182L2833.82 4059.22C2864.51 4042.67 2865.69 3999.9 2835 3981.97L2484.37 3775.04Z" fill="#210972"/>
<path d="M2922.79 4089.24C2905.08 4079.59 2881.47 4079.59 2863.76 4089.24L2743.35 4155.46C2733.9 4160.98 2728 4170.64 2728 4180.29V4181.67C2728 4195.47 2735.08 4207.88 2748.07 4214.78L3075.08 4399.64C3092.79 4409.3 3115.22 4409.3 3134.11 4399.64L3263.97 4329.28C3281.68 4319.63 3281.68 4294.79 3265.15 4285.14L2922.79 4089.24Z" fill="#210972"/>
<path d="M6082.78 1112.31C6060.35 1099.9 6032.02 1099.9 6009.59 1112.31L5860.84 1195.08C5849.03 1201.98 5841.95 1214.4 5843.13 1225.43V1226.81C5843.13 1243.37 5852.57 1258.54 5867.92 1268.2L6010.77 1346.83C6033.2 1359.25 6060.35 1359.25 6082.78 1346.83L6243.34 1259.92C6265.77 1247.51 6265.77 1218.54 6244.52 1206.12L6082.78 1112.31Z" fill="#210972"/>
</g>
<path opacity="0.31" d="M2355.68 4286.41C2393.46 4268.47 2394.64 4235.36 2356.86 4216.05C2322.62 4198.12 2270.68 4193.98 2232.9 4206.39L2176.23 4173.29C2171.51 4170.53 2164.43 4170.53 2159.71 4171.91C2154.98 4173.29 2154.98 4177.42 2158.52 4180.18L2215.19 4213.29C2184.5 4231.23 2184.5 4258.82 2218.73 4279.51C2254.15 4300.2 2316.72 4304.34 2355.68 4286.41Z" fill="#210972"/>
<path opacity="0.31" d="M3399.68 4315.41C3437.46 4297.47 3438.64 4264.36 3400.86 4245.05C3366.62 4227.12 3314.68 4222.98 3276.9 4235.39L3220.23 4202.29C3215.51 4199.53 3208.43 4199.53 3203.71 4200.91C3198.98 4202.29 3198.98 4206.42 3202.52 4209.18L3259.19 4242.29C3228.5 4260.23 3228.5 4287.82 3262.73 4308.51C3299.33 4329.2 3361.9 4333.34 3399.68 4315.41Z" fill="#210972"/>
<path opacity="0.31" d="M1488.68 4281.41C1526.46 4263.47 1527.64 4230.36 1489.86 4211.05C1455.62 4193.12 1403.68 4188.98 1365.9 4201.39L1309.23 4168.29C1304.51 4165.53 1297.43 4165.53 1292.7 4166.91C1287.98 4168.29 1287.98 4172.42 1291.52 4175.18L1348.19 4208.29C1317.5 4226.23 1317.5 4253.82 1351.73 4274.51C1388.33 4295.2 1449.72 4299.34 1488.68 4281.41Z" fill="#210972"/>
<path opacity="0.31" d="M6834.68 1444.41C6872.45 1426.47 6873.64 1393.36 6835.86 1374.05C6801.62 1356.12 6749.68 1351.98 6711.9 1364.39L6655.23 1331.29C6650.51 1328.53 6643.43 1328.53 6638.7 1329.91C6633.98 1331.29 6633.98 1335.42 6637.52 1338.18L6694.19 1371.29C6663.5 1389.23 6663.5 1416.82 6697.73 1437.51C6734.33 1458.2 6795.72 1462.34 6834.68 1444.41Z" fill="#210972"/>
<path opacity="0.31" d="M6707.68 1252.41C6745.46 1234.47 6746.64 1201.36 6708.86 1182.05C6674.62 1164.12 6622.68 1159.98 6584.9 1172.39L6528.23 1139.29C6523.51 1136.53 6516.43 1136.53 6511.7 1137.91C6506.98 1139.29 6506.98 1143.42 6510.52 1146.18L6567.19 1179.29C6536.5 1197.23 6536.5 1224.82 6570.73 1245.51C6607.33 1266.2 6668.72 1270.34 6707.68 1252.41Z" fill="#210972"/>
<path opacity="0.31" d="M6038.68 1702.41C6076.46 1684.47 6077.64 1651.36 6039.86 1632.05C6005.62 1614.12 5953.68 1609.98 5915.9 1622.39L5859.23 1589.29C5854.51 1586.53 5847.43 1586.53 5842.7 1587.91C5837.98 1589.29 5837.98 1593.42 5841.52 1596.18L5898.19 1629.29C5867.5 1647.23 5867.5 1674.82 5901.73 1695.51C5938.33 1717.58 5999.72 1720.34 6038.68 1702.41Z" fill="#210972"/>
<path opacity="0.31" d="M6813.68 1794.41C6851.46 1776.47 6852.64 1743.36 6814.86 1724.05C6780.62 1706.12 6728.68 1701.98 6690.9 1714.39L6634.23 1681.29C6629.51 1678.53 6622.43 1678.53 6617.7 1679.91C6612.98 1681.29 6612.98 1685.42 6616.52 1688.18L6673.19 1721.29C6642.5 1739.23 6642.5 1766.82 6676.73 1787.51C6712.15 1809.58 6774.72 1812.34 6813.68 1794.41Z" fill="#210972"/>
<path opacity="0.31" d="M7146.68 1434.41C7184.46 1416.47 7185.64 1383.36 7147.86 1364.05C7113.62 1346.12 7061.68 1341.98 7023.9 1354.39L6967.23 1321.29C6962.51 1318.53 6955.43 1318.53 6950.71 1319.91C6945.98 1321.29 6945.98 1325.42 6949.52 1328.18L7006.19 1361.29C6975.5 1379.23 6975.5 1406.82 7009.73 1427.51C7046.33 1448.2 7107.72 1452.34 7146.68 1434.41Z" fill="#210972"/>
<path opacity="0.31" d="M6537.68 1604.41C6575.46 1586.47 6576.64 1553.36 6538.86 1534.05C6504.62 1516.12 6452.68 1511.98 6414.9 1524.39L6358.23 1491.29C6353.51 1488.53 6346.43 1488.53 6341.71 1489.91C6336.98 1491.29 6336.98 1495.42 6340.52 1498.18L6397.19 1531.29C6366.5 1549.23 6366.5 1576.82 6400.73 1597.51C6437.33 1618.2 6498.72 1622.34 6537.68 1604.41Z" fill="#210972"/>
<path opacity="0.5" d="M7666.04 1411.39C7666.04 1430.7 7655.42 1448.63 7637.71 1458.29L7097.01 1754.89C7086.39 1760.41 7080.49 1770.07 7080.49 1781.1C7080.49 1792.14 7086.39 1801.8 7095.83 1807.31L7516.11 2039.08H7468.89L7084.03 1828.01C7066.32 1818.35 7055.69 1800.42 7055.69 1781.1C7055.69 1761.79 7066.32 1743.86 7084.03 1734.2L7624.72 1437.6C7635.35 1432.08 7641.25 1422.42 7641.25 1411.39C7641.25 1400.35 7635.35 1390.69 7624.72 1385.18L6758.19 910.615C6740.49 900.958 6729.86 884.404 6729.86 863.711C6729.86 844.397 6740.49 826.463 6758.19 816.806L7008.47 677.473C7017.92 671.955 7025 662.298 7025 651.262C7025 640.226 7019.1 630.569 7009.65 625.051L6794.79 500.893C6768.82 485.718 6735.76 485.718 6709.79 500.893L6264.72 751.968C6224.58 774.041 6176.18 774.041 6136.04 751.968L5412.36 347.764C5387.57 333.969 5356.88 333.969 5332.08 347.764L5111.32 469.163C5101.87 474.681 5094.79 484.338 5094.79 495.374C5094.79 506.411 5100.69 516.067 5111.32 521.586L5644.93 815.427C5662.64 825.084 5673.26 841.638 5673.26 862.331C5673.26 881.645 5662.64 899.579 5644.93 909.235L5112.5 1205.84C5103.06 1211.35 5097.15 1221.01 5097.15 1232.05C5097.15 1243.08 5103.06 1252.74 5112.5 1258.26L5476.11 1462.43C5493.82 1472.09 5504.44 1490.02 5503.26 1509.33C5503.26 1528.65 5492.64 1546.58 5474.93 1556.24L5104.24 1760.41C5062.92 1783.86 5010.97 1783.86 4969.65 1761.79L4915.35 1732.82C4889.37 1719.02 4856.32 1719.02 4829.17 1732.82L4268.4 2041.84H4220L4817.36 1712.13C4850.42 1694.19 4892.92 1692.81 4927.15 1712.13L4981.46 1741.1C5015.69 1759.03 5058.19 1759.03 5092.43 1741.1L5463.12 1536.92C5472.57 1531.41 5479.65 1521.75 5479.65 1510.71C5479.65 1499.68 5473.75 1490.02 5464.31 1484.5L5100.69 1280.33C5082.99 1270.67 5073.54 1252.74 5073.54 1233.43C5073.54 1214.11 5084.17 1197.56 5101.88 1186.52L5634.31 889.922C5643.75 884.404 5650.83 874.747 5650.83 863.711C5650.83 852.674 5644.93 843.018 5634.31 837.499L5100.69 543.658C5082.99 534.001 5072.36 516.067 5072.36 496.754C5072.36 477.44 5082.99 459.507 5100.69 449.85L5321.46 328.45C5353.33 310.517 5393.47 310.517 5425.35 328.45L6149.03 734.034C6180.9 751.968 6221.04 751.968 6254.1 734.034L6699.17 482.959C6733.4 463.645 6774.72 465.025 6807.78 482.959L7022.64 607.117C7040.35 616.774 7049.79 634.708 7049.79 654.021C7049.79 673.335 7039.17 689.889 7021.46 699.546L6771.18 838.879C6760.56 844.397 6754.65 854.054 6754.65 865.09C6754.65 876.126 6760.56 885.783 6771.18 891.302L7637.71 1365.86C7655.42 1374.14 7666.04 1392.07 7666.04 1411.39Z" fill="#59CEF8"/>
<path d="M5926.67 1436.05C5926.67 1391.9 5888.89 1354.66 5841.67 1356.04C5795.62 1356.04 5757.85 1396.04 5759.03 1440.19C5761.39 1480.2 5792.08 1511.92 5832.22 1516.06V1585.04C5832.22 1590.56 5836.94 1594.7 5841.67 1594.7C5847.57 1594.7 5851.11 1590.56 5851.11 1585.04V1516.06C5893.61 1510.55 5926.67 1476.06 5926.67 1436.05Z" fill="url(#paint10_linear_2853_24)"/>
<path d="M6706.67 1528.05C6706.67 1483.91 6668.89 1446.66 6621.67 1448.04C6575.62 1448.04 6537.85 1488.04 6539.03 1532.19C6541.39 1572.2 6572.08 1603.92 6612.22 1608.06V1677.04C6612.22 1682.56 6616.94 1686.7 6621.67 1686.7C6627.57 1686.7 6631.11 1682.56 6631.11 1677.04V1608.06C6674.79 1602.55 6706.67 1569.44 6706.67 1528.05Z" fill="url(#paint11_linear_2853_24)"/>
<path d="M6726.67 1179.05C6726.67 1134.9 6688.89 1097.66 6641.67 1099.04C6595.62 1099.04 6557.85 1139.04 6559.03 1183.19C6561.39 1223.2 6592.08 1254.92 6632.22 1259.06V1328.04C6632.22 1333.56 6636.94 1337.7 6641.67 1337.7C6647.57 1337.7 6651.11 1333.56 6651.11 1328.04V1259.06C6694.79 1253.55 6726.67 1220.44 6726.67 1179.05Z" fill="url(#paint12_linear_2853_24)"/>
<path d="M7030.67 1153.05C7030.67 1108.9 6992.89 1071.66 6945.67 1073.04C6899.62 1073.04 6861.85 1113.04 6863.03 1157.19C6865.39 1197.2 6896.08 1228.92 6936.22 1233.06V1302.04C6936.22 1307.56 6940.94 1311.7 6945.67 1311.7C6951.57 1311.7 6955.11 1307.56 6955.11 1302.04V1233.06C6998.79 1228.92 7030.67 1194.44 7030.67 1153.05Z" fill="url(#paint13_linear_2853_24)"/>
<path d="M3279.67 4043.05C3279.67 3998.9 3241.89 3961.66 3194.67 3963.04C3148.62 3963.04 3110.85 4003.04 3112.03 4047.19C3114.39 4087.2 3145.08 4118.92 3185.22 4123.06V4192.04C3185.22 4197.56 3189.94 4201.7 3194.67 4201.7C3200.57 4201.7 3204.11 4197.56 3204.11 4192.04V4123.06C3246.61 4118.92 3279.67 4084.44 3279.67 4043.05Z" fill="url(#paint14_linear_2853_24)"/>
<path d="M1288.67 3913.04C1242.62 3913.04 1204.85 3953.04 1206.03 3997.19C1208.39 4037.2 1239.08 4068.92 1279.22 4073.06V4142.04C1279.22 4147.56 1283.94 4151.7 1288.67 4151.7C1294.57 4151.7 1298.11 4147.56 1298.11 4142.04V4073.06C1339.43 4068.92 1371.3 4034.44 1371.3 3993.05C1373.67 3948.9 1334.71 3911.66 1288.67 3913.04Z" fill="url(#paint15_linear_2853_24)"/>
<path d="M6507.67 906C6461.62 906 6423.85 946.007 6425.03 990.152C6427.39 1030.16 6458.08 1061.89 6498.22 1066.03V1135C6498.22 1140.52 6502.94 1144.66 6507.67 1144.66C6513.57 1144.66 6517.11 1140.52 6517.11 1135V1066.03C6558.43 1061.89 6590.3 1027.4 6590.3 986.013C6592.67 941.868 6554.89 906 6507.67 906Z" fill="url(#paint16_linear_2853_24)"/>
<path d="M2161.67 3941.04C2115.62 3941.04 2077.85 3981.04 2079.03 4025.19C2081.39 4065.2 2112.08 4096.92 2152.22 4101.06V4170.04C2152.22 4175.56 2156.94 4179.7 2161.67 4179.7C2167.57 4179.7 2171.11 4175.56 2171.11 4170.04V4101.06C2212.43 4096.92 2244.3 4062.44 2244.3 4021.05C2245.49 3976.91 2207.71 3939.66 2161.67 3941.04Z" fill="url(#paint17_linear_2853_24)"/>
<path d="M2029.07 3572.13V4064.62C2029.07 4086.7 2017.26 4107.39 1997.19 4118.43L1808.3 4221.89C1778.79 4238.44 1742.19 4238.44 1712.68 4221.89L1523.79 4118.43C1503.72 4107.39 1491.92 4086.7 1491.92 4064.62V3569.37L1685.53 3694.91C1730.39 3725.26 1790.6 3725.26 1836.64 3694.91L2029.07 3572.13Z" fill="url(#paint18_linear_2853_24)"/>
<path d="M1515.53 3527.98L1712.68 3419C1742.19 3402.45 1778.79 3402.45 1809.49 3419L2006.64 3527.98C2038.51 3545.92 2038.51 3590.06 2006.64 3608L1809.49 3716.98C1779.97 3733.53 1743.37 3733.53 1712.68 3716.98L1515.53 3608C1483.65 3590.06 1483.65 3544.54 1515.53 3527.98Z" fill="#7362F4"/>
<path opacity="0.52" d="M1759.9 3699.05C1748.1 3699.05 1735.11 3696.29 1724.49 3689.39L1542.68 3588.68C1530.87 3581.79 1529.69 3572.13 1529.69 3567.99C1529.69 3563.85 1530.87 3552.82 1542.68 3547.3L1724.49 3446.59C1745.74 3434.18 1772.89 3434.18 1794.14 3446.59L1975.94 3547.3C1987.75 3554.2 1988.93 3563.85 1988.93 3567.99C1988.93 3572.13 1987.75 3583.17 1975.94 3588.68L1794.14 3689.39C1784.69 3694.91 1772.89 3699.05 1759.9 3699.05ZM1759.9 3442.45C1749.28 3442.45 1737.47 3445.21 1728.03 3450.73L1546.22 3551.44C1537.96 3556.95 1536.78 3563.85 1536.78 3567.99C1536.78 3572.13 1537.96 3579.03 1546.22 3584.54L1728.03 3685.25C1746.92 3696.29 1772.89 3696.29 1791.78 3685.25L1973.58 3584.54C1981.85 3579.03 1983.03 3572.13 1983.03 3567.99C1983.03 3563.85 1981.85 3556.95 1973.58 3551.44L1791.78 3450.73C1782.33 3445.21 1771.71 3442.45 1759.9 3442.45Z" fill="url(#paint19_linear_2853_24)"/>
<path d="M1909.83 3755.61C1905.11 3744.57 1892.12 3740.43 1879.14 3747.33L1802.4 3790.1C1776.43 3805.27 1743.37 3805.27 1717.4 3790.1L1640.67 3747.33C1628.86 3740.43 1614.69 3744.57 1609.97 3755.61C1605.25 3766.64 1612.33 3781.82 1624.14 3788.72L1717.4 3839.76C1743.37 3854.93 1776.43 3854.93 1802.4 3839.76L1895.67 3788.72C1908.65 3781.82 1914.56 3766.64 1909.83 3755.61Z" fill="#31097F"/>
<path d="M1909.83 3854.93C1905.11 3843.9 1892.12 3839.76 1879.14 3846.66L1802.4 3889.42C1776.43 3904.6 1743.37 3904.6 1717.4 3889.42L1640.67 3846.66C1628.86 3839.76 1614.69 3843.9 1609.97 3854.93C1605.25 3865.97 1612.33 3881.15 1624.14 3888.04L1717.4 3939.09C1743.37 3954.26 1776.43 3954.26 1802.4 3939.09L1895.67 3888.04C1908.65 3879.77 1914.56 3865.97 1909.83 3854.93Z" fill="#31097F"/>
<path d="M1909.83 3954.26C1905.11 3943.22 1892.12 3939.09 1879.14 3945.98L1802.4 3988.75C1776.43 4003.92 1743.37 4003.92 1717.4 3988.75L1640.67 3945.98C1628.86 3939.09 1614.69 3943.22 1609.97 3954.26C1605.25 3965.3 1612.33 3980.47 1624.14 3987.37L1717.4 4038.41C1743.37 4053.59 1776.43 4053.59 1802.4 4038.41L1895.67 3987.37C1908.65 3979.09 1914.56 3965.3 1909.83 3954.26Z" fill="#31097F"/>
<path d="M1909.83 4052.21C1905.11 4041.17 1892.12 4037.03 1879.14 4043.93L1802.4 4086.7C1776.43 4101.87 1743.37 4101.87 1717.4 4086.7L1640.67 4043.93C1628.86 4037.03 1614.69 4041.17 1609.97 4052.21C1605.25 4063.24 1612.33 4078.42 1624.14 4085.32L1717.4 4136.36C1743.37 4151.53 1776.43 4151.53 1802.4 4136.36L1895.67 4085.32C1908.65 4078.42 1914.56 4063.24 1909.83 4052.21Z" fill="#31097F"/>
<path d="M2682.83 3990.57V4134.04C2682.83 4150.6 2673.39 4167.15 2658.04 4175.43L2514.01 4254.06C2491.58 4266.48 2463.25 4266.48 2440.82 4254.06L2296.79 4175.43C2281.44 4167.15 2272 4151.98 2272 4134.04V3987.81L2419.57 4084.38C2453.81 4107.83 2499.85 4107.83 2534.08 4084.38L2682.83 3990.57Z" fill="url(#paint20_linear_2853_24)"/>
<path d="M2290.89 3956.08L2440.82 3873.31C2463.25 3860.9 2491.58 3860.9 2514.01 3873.31L2663.94 3956.08C2688.74 3969.88 2688.74 4004.37 2663.94 4016.78L2514.01 4099.56C2491.58 4111.97 2463.25 4111.97 2440.82 4099.56L2290.89 4016.78C2267.28 4004.37 2267.28 3969.88 2290.89 3956.08Z" fill="#7362F4"/>
<path d="M2478.6 4087.14C2469.15 4087.14 2459.71 4084.38 2451.44 4080.24L2313.32 4002.99C2303.88 3997.47 2303.88 3989.19 2303.88 3986.43C2303.88 3983.67 2305.06 3974.02 2313.32 3969.88L2451.44 3892.63C2467.97 3882.97 2489.22 3882.97 2505.75 3892.63L2643.88 3969.88C2653.32 3975.4 2653.32 3983.67 2653.32 3986.43C2653.32 3989.19 2652.14 3997.47 2643.88 4002.99L2505.75 4080.24C2496.31 4085.76 2488.04 4087.14 2478.6 4087.14ZM2478.6 3892.63C2470.33 3892.63 2462.07 3895.38 2454.99 3898.14L2316.86 3975.4C2310.96 3979.54 2309.78 3985.05 2309.78 3987.81C2309.78 3990.57 2310.96 3996.09 2316.86 4000.23L2454.99 4077.48C2469.15 4085.76 2488.04 4085.76 2503.39 4077.48L2641.51 4000.23C2647.42 3996.09 2648.6 3990.57 2648.6 3987.81C2648.6 3985.05 2647.42 3979.54 2641.51 3975.4L2503.39 3898.14C2495.12 3894.01 2486.86 3892.63 2478.6 3892.63Z" fill="#59CEF8"/>
<path d="M2542.35 4135.42C2539.99 4129.91 2534.08 4128.53 2529.36 4131.28L2495.12 4150.6C2483.32 4157.5 2469.15 4157.5 2457.35 4150.6L2423.11 4131.28C2417.21 4128.53 2411.31 4129.91 2408.94 4135.42C2406.58 4140.94 2410.12 4146.46 2414.85 4150.6L2456.17 4174.05C2467.97 4180.95 2482.14 4180.95 2493.94 4174.05L2535.26 4150.6C2541.17 4146.46 2544.71 4140.94 2542.35 4135.42Z" fill="#31097F"/>
<path d="M2542.35 4185.09C2539.99 4179.57 2534.08 4178.19 2529.36 4180.95L2495.12 4200.26C2483.32 4207.16 2469.15 4207.16 2457.35 4200.26L2423.11 4180.95C2417.21 4178.19 2411.31 4179.57 2408.94 4185.09C2406.58 4190.61 2410.12 4196.12 2414.85 4200.26L2456.17 4223.71C2467.97 4230.61 2482.14 4230.61 2493.94 4223.71L2535.26 4200.26C2541.17 4197.5 2544.71 4190.61 2542.35 4185.09Z" fill="#31097F"/>
<path d="M2378.25 4103.69L2316.86 4069.21C2310.96 4066.45 2305.06 4067.83 2303.87 4073.34C2301.51 4078.86 2305.06 4084.38 2309.78 4087.14L2371.17 4121.63C2377.07 4124.39 2382.97 4123.01 2384.15 4117.49C2386.51 4113.35 2382.97 4107.83 2378.25 4103.69Z" fill="#31097F"/>
<path d="M2378.25 4157.5L2316.86 4123.01C2310.96 4120.25 2305.06 4121.63 2303.87 4127.15C2301.51 4132.67 2305.06 4138.18 2309.78 4140.94L2371.17 4175.43C2377.07 4178.19 2382.97 4176.81 2384.15 4171.29C2386.51 4167.15 2382.97 4160.26 2378.25 4157.5Z" fill="#31097F"/>
<path d="M7612.47 1278.02V1403.56C7612.47 1418.73 7604.21 1432.53 7591.22 1439.42L7466.08 1508.4C7446.01 1519.44 7422.4 1519.44 7402.33 1508.4L7277.2 1439.42C7264.21 1432.53 7255.95 1418.73 7255.95 1403.56V1276.64L7384.63 1360.79C7415.32 1380.1 7454.28 1380.1 7484.97 1360.79L7612.47 1278.02Z" fill="url(#paint21_linear_2853_24)"/>
<path d="M7271.29 1247.67L7402.33 1174.55C7422.4 1163.52 7447.19 1163.52 7466.08 1174.55L7597.13 1247.67C7618.38 1260.08 7618.38 1289.05 7597.13 1301.47L7466.08 1374.58C7446.01 1385.62 7421.22 1385.62 7402.33 1374.58L7271.29 1301.47C7250.04 1289.05 7250.04 1260.08 7271.29 1247.67Z" fill="#7362F4"/>
<path opacity="0.52" d="M7433.03 1362.17C7424.76 1362.17 7416.5 1359.41 7409.42 1356.65L7289 1289.05C7280.74 1284.91 7279.56 1276.64 7279.56 1273.88C7279.56 1271.12 7280.74 1262.84 7289 1258.7L7409.42 1191.11C7423.58 1182.83 7442.47 1182.83 7456.64 1191.11L7577.06 1258.7C7585.32 1262.84 7586.5 1271.12 7586.5 1273.88C7586.5 1276.64 7585.32 1284.91 7577.06 1289.05L7456.64 1356.65C7450.74 1360.79 7442.47 1362.17 7433.03 1362.17ZM7433.03 1192.49C7425.94 1192.49 7418.86 1193.87 7411.78 1198L7291.36 1265.6C7285.46 1268.36 7285.46 1273.88 7285.46 1275.26C7285.46 1276.64 7286.64 1282.16 7291.36 1284.91L7411.78 1352.51C7424.76 1359.41 7441.29 1359.41 7453.1 1352.51L7573.51 1284.91C7579.42 1282.16 7579.42 1276.64 7579.42 1275.26C7579.42 1273.88 7578.24 1268.36 7573.51 1265.6L7453.1 1198C7448.37 1193.87 7441.29 1192.49 7433.03 1192.49Z" fill="url(#paint22_linear_2853_24)"/>
<path d="M7364.41 1400.79L7310.11 1370.44C7305.38 1367.68 7300.66 1369.06 7298.3 1373.19C7297.12 1377.33 7299.48 1382.85 7304.2 1385.61L7358.51 1415.96C7363.23 1418.72 7367.95 1417.34 7370.31 1413.2C7371.5 1409.06 7369.13 1403.54 7364.41 1400.79Z" fill="#31097F"/>
<path d="M7364.41 1446.31L7310.11 1415.96C7305.38 1413.2 7300.66 1414.58 7298.3 1418.72C7297.12 1422.86 7299.48 1428.38 7304.2 1431.14L7358.51 1461.49C7363.23 1464.24 7367.95 1462.86 7370.31 1458.73C7371.5 1454.59 7369.13 1449.07 7364.41 1446.31Z" fill="#31097F"/>
<path d="M7502.54 1404.92L7556.84 1374.57C7561.56 1371.82 7566.29 1373.19 7568.65 1377.33C7569.83 1381.47 7567.47 1386.99 7562.75 1389.75L7508.44 1420.1C7503.72 1422.86 7498.99 1421.48 7496.63 1417.34C7495.45 1413.2 7497.81 1407.68 7502.54 1404.92Z" fill="#31097F"/>
<path d="M7502.54 1450.45L7556.84 1420.1C7561.56 1417.34 7566.29 1418.72 7568.65 1422.86C7569.83 1427 7567.47 1432.51 7562.75 1435.27L7508.44 1465.62C7503.72 1468.38 7498.99 1467 7496.63 1462.86C7495.45 1458.73 7497.81 1453.21 7502.54 1450.45Z" fill="#31097F"/>
<path d="M6421.67 1333.05C6421.67 1288.91 6383.89 1251.66 6336.67 1253.04C6290.62 1253.04 6252.85 1293.04 6254.03 1337.19C6256.39 1377.2 6287.08 1408.92 6327.22 1413.06V1482.04C6327.22 1487.56 6331.94 1491.7 6336.67 1491.7C6342.57 1491.7 6346.11 1487.56 6346.11 1482.04V1413.06C6388.61 1407.55 6421.67 1374.44 6421.67 1333.05Z" fill="url(#paint23_linear_2853_24)"/>
<path d="M2990.97 3495.7V4138.57C2990.97 4149.6 2985.07 4159.26 2975.62 4164.78L2883.54 4215.82C2869.37 4224.1 2851.66 4224.1 2836.32 4215.82L2744.23 4164.78C2734.79 4159.26 2728.89 4149.6 2728.89 4138.57V3494.32L2823.33 3556.4C2845.76 3571.58 2875.27 3571.58 2896.52 3556.4L2990.97 3495.7Z" fill="url(#paint24_linear_2853_24)"/>
<path d="M2739.51 3475.01L2836.32 3421.21C2850.48 3412.93 2869.37 3412.93 2883.54 3421.21L2980.34 3475.01C2995.69 3483.29 2995.69 3505.36 2980.34 3513.64L2883.54 3567.44C2869.37 3575.72 2850.48 3575.72 2836.32 3567.44L2739.51 3513.64C2724.16 3505.36 2724.16 3483.29 2739.51 3475.01Z" fill="#59CEF8"/>
<path d="M2859.93 3564.68C2852.84 3564.68 2846.94 3563.3 2841.04 3559.16L2744.23 3505.36C2737.15 3501.22 2737.15 3495.7 2737.15 3492.94C2737.15 3490.18 2738.33 3484.67 2744.23 3480.53L2841.04 3426.73C2852.84 3419.83 2868.19 3419.83 2878.82 3426.73L2975.62 3480.53C2982.7 3484.67 2982.7 3490.18 2982.7 3492.94C2982.7 3495.7 2981.52 3501.22 2975.62 3505.36L2878.82 3559.16C2872.91 3563.3 2867.01 3564.68 2859.93 3564.68ZM2859.93 3429.49C2854.02 3429.49 2849.3 3430.86 2843.4 3433.62L2746.59 3487.43C2743.05 3488.81 2741.87 3492.94 2741.87 3494.32C2741.87 3495.7 2743.05 3499.84 2746.59 3501.22L2843.4 3555.02C2852.84 3560.54 2865.83 3560.54 2875.27 3555.02L2972.08 3501.22C2975.62 3499.84 2976.8 3495.7 2976.8 3494.32C2976.8 3492.94 2975.62 3488.81 2972.08 3487.43L2875.27 3433.62C2870.55 3430.86 2865.83 3429.49 2859.93 3429.49Z" fill="#7362F4"/>
<path d="M2793.82 3868.18C2792.64 3868.18 2790.27 3866.8 2790.27 3865.42V3588.13C2790.27 3586.75 2791.45 3585.37 2793.82 3585.37C2796.18 3585.37 2797.36 3586.75 2797.36 3588.13V3865.42C2797.36 3866.8 2796.18 3868.18 2793.82 3868.18Z" fill="#59CEF8"/>
<path d="M2828.05 3691.6C2826.87 3691.6 2824.51 3690.22 2824.51 3688.84V3606.07C2824.51 3604.69 2825.69 3603.31 2828.05 3603.31C2830.41 3603.31 2831.59 3604.69 2831.59 3606.07V3688.84C2831.59 3690.22 2830.41 3691.6 2828.05 3691.6Z" fill="#59CEF8"/>
<path d="M5646.47 2503.09C5645.29 2503.09 5642.93 2501.71 5642.93 2500.33V2314.09C5642.93 2312.71 5644.11 2311.33 5646.47 2311.33C5647.65 2311.33 5650.01 2312.71 5650.01 2314.09V2500.33C5650.01 2501.71 5648.83 2503.09 5646.47 2503.09Z" fill="#59CEF8"/>
<path d="M6262.67 781.082V1223.91C6262.67 1234.95 6256.77 1244.61 6247.33 1250.12L6172.95 1291.51C6146.98 1305.31 6116.28 1305.31 6090.31 1291.51L6015.94 1250.12C6006.49 1244.61 6000.59 1234.95 6000.59 1223.91V779.703L6095.03 841.782C6117.46 856.957 6146.98 856.957 6168.23 841.782L6262.67 781.082Z" fill="url(#paint25_linear_2853_24)"/>
<path d="M6012.4 759.01L6109.2 705.208C6123.37 696.931 6142.26 696.931 6156.42 705.208L6253.23 759.01C6268.58 767.287 6268.58 789.36 6253.23 797.637L6156.42 851.439C6142.26 859.716 6123.37 859.716 6109.2 851.439L6012.4 797.637C5995.87 790.739 5995.87 768.667 6012.4 759.01Z" fill="#59CEF8"/>
<path d="M6131.63 850.059C6124.55 850.059 6118.65 848.679 6112.74 844.541L6015.94 790.739C6008.85 786.6 6008.85 781.082 6008.85 778.323C6008.85 775.564 6010.03 770.046 6015.94 765.907L6112.74 712.105C6124.55 705.208 6139.9 705.208 6150.52 712.105L6247.33 765.907C6254.41 770.046 6254.41 775.564 6254.41 778.323C6254.41 781.082 6253.23 786.6 6247.33 790.739L6150.52 844.541C6144.62 847.3 6138.71 850.059 6131.63 850.059ZM6131.63 714.864C6125.73 714.864 6121.01 716.244 6115.1 719.003L6018.3 772.805C6014.76 774.184 6013.58 778.323 6013.58 779.703C6013.58 781.082 6014.76 785.221 6018.3 786.6L6115.1 840.402C6124.55 845.92 6137.53 845.92 6146.98 840.402L6243.78 786.6C6247.33 785.221 6248.51 781.082 6248.51 779.703C6248.51 778.323 6247.33 774.184 6243.78 772.805L6146.98 719.003C6142.26 716.244 6137.53 714.864 6131.63 714.864Z" fill="#7362F4"/>
<path d="M6039.55 1081.82C6038.37 1081.82 6036.01 1080.44 6036.01 1079.06V814.191C6036.01 812.812 6037.19 811.432 6039.55 811.432C6041.91 811.432 6043.09 812.812 6043.09 814.191V1079.06C6043.09 1080.44 6041.91 1081.82 6039.55 1081.82Z" fill="#59CEF8"/>
<path d="M6222.53 938.35C6221.35 938.35 6218.99 936.97 6218.99 935.591V812.812C6218.99 811.432 6220.17 810.053 6222.53 810.053C6224.9 810.053 6226.08 811.432 6226.08 812.812V935.591C6226.08 936.97 6224.9 938.35 6222.53 938.35Z" fill="#59CEF8"/>
<path d="M6189.48 1139.76C6188.3 1139.76 6185.94 1138.38 6185.94 1137V829.366C6185.94 827.987 6187.12 826.607 6189.48 826.607C6191.84 826.607 6193.02 827.987 6193.02 829.366V1137C6191.84 1138.38 6190.66 1139.76 6189.48 1139.76Z" fill="#59CEF8"/>
<path d="M6071.42 1204.6C6070.24 1204.6 6067.88 1203.22 6067.88 1201.84V830.746C6067.88 829.366 6069.06 827.987 6071.42 827.987C6073.79 827.987 6074.97 829.366 6074.97 830.746V1201.84C6073.79 1204.6 6072.6 1204.6 6071.42 1204.6Z" fill="#59CEF8"/>
<path d="M2610.35 3245.85V3738.34C2610.35 3760.42 2598.54 3781.11 2578.47 3792.15L2389.58 3895.61C2360.07 3912.17 2323.47 3912.17 2293.96 3895.61L2105.07 3792.15C2085 3781.11 2073.19 3760.42 2073.19 3738.34V3243.09L2266.81 3368.63C2311.67 3398.98 2371.88 3398.98 2417.92 3368.63L2610.35 3245.85Z" fill="url(#paint26_linear_2853_24)"/>
<path d="M2096.81 3203.08L2293.96 3094.1C2323.47 3077.54 2360.07 3077.54 2390.76 3094.1L2587.92 3203.08C2619.79 3221.02 2619.79 3265.16 2587.92 3283.1L2390.76 3392.08C2361.25 3408.63 2324.65 3408.63 2293.96 3392.08L2096.81 3283.1C2063.75 3265.16 2063.75 3221.02 2096.81 3203.08Z" fill="#7362F4"/>
<path opacity="0.52" d="M2341.18 3370.01C2329.37 3370.01 2317.57 3367.25 2306.94 3361.73L2129.86 3263.78C2119.24 3258.26 2118.05 3247.23 2118.05 3243.09C2118.05 3238.95 2119.24 3227.91 2129.86 3222.4L2306.94 3124.45C2328.19 3113.41 2354.17 3113.41 2375.42 3124.45L2552.5 3222.4C2563.12 3227.91 2564.3 3238.95 2564.3 3243.09C2564.3 3247.23 2563.12 3256.88 2552.5 3263.78L2375.42 3361.73C2364.79 3367.25 2352.99 3370.01 2341.18 3370.01ZM2341.18 3120.31C2330.55 3120.31 2319.93 3123.07 2310.49 3128.59L2133.4 3226.53C2125.14 3230.67 2123.96 3238.95 2123.96 3241.71C2123.96 3244.47 2125.14 3252.75 2133.4 3256.88L2310.49 3354.83C2329.37 3365.87 2354.17 3365.87 2373.05 3354.83L2550.14 3256.88C2558.4 3252.75 2559.58 3244.47 2559.58 3241.71C2559.58 3238.95 2558.4 3230.67 2550.14 3226.53L2373.05 3128.59C2362.43 3124.45 2351.8 3120.31 2341.18 3120.31Z" fill="url(#paint27_linear_2853_24)"/>
<path d="M2259.72 3459.68L2132.22 3387.94C2122.78 3382.42 2112.15 3385.18 2108.61 3394.84C2105.07 3403.12 2109.79 3415.53 2119.24 3421.05L2246.74 3492.79C2256.18 3498.3 2266.81 3495.54 2270.35 3485.89C2275.07 3476.23 2269.17 3465.19 2259.72 3459.68Z" fill="#59CEF8"/>
<path d="M2259.72 3542.45L2132.22 3470.71C2122.78 3465.19 2112.15 3467.95 2108.61 3477.61C2105.07 3485.89 2109.79 3498.3 2119.24 3503.82L2246.74 3575.56C2256.18 3581.08 2266.81 3578.32 2270.35 3568.66C2275.07 3559 2269.17 3547.97 2259.72 3542.45Z" fill="#59CEF8"/>
<path d="M2259.72 3625.22L2132.22 3554.86C2122.78 3549.35 2112.15 3552.11 2108.61 3561.76C2105.07 3570.04 2109.79 3582.46 2119.24 3587.97L2246.74 3659.71C2256.18 3665.23 2266.81 3662.47 2270.35 3652.81C2275.07 3643.16 2269.17 3630.74 2259.72 3625.22Z" fill="#59CEF8"/>
<path d="M2259.72 3709.37L2132.22 3637.64C2122.78 3632.12 2112.15 3634.88 2108.61 3644.53C2105.07 3652.81 2109.79 3665.23 2119.24 3670.75L2246.74 3742.48C2256.18 3748 2266.81 3745.24 2270.35 3735.58C2275.07 3725.93 2269.17 3714.89 2259.72 3709.37Z" fill="#59CEF8"/>
<path d="M6995.45 454.544V643.541C6995.45 665.613 6983.64 686.306 6963.57 697.343L6774.68 800.808C6745.17 817.362 6708.57 817.362 6679.06 800.808L6490.17 697.343C6470.1 686.306 6458.29 665.613 6458.29 643.541V451.785L6651.91 577.323C6696.77 607.673 6756.98 607.673 6803.02 577.323L6995.45 454.544Z" fill="url(#paint28_linear_2853_24)"/>
<path d="M6481.91 410.399L6679.06 301.416C6708.57 284.861 6745.17 284.861 6775.86 301.416L6973.02 410.399C7004.89 428.333 7004.89 472.478 6973.02 490.412L6775.86 599.396C6746.35 615.95 6709.75 615.95 6679.06 599.396L6481.91 490.412C6450.03 472.478 6450.03 428.333 6481.91 410.399Z" fill="#7362F4"/>
<path d="M6726.28 581.462C6714.48 581.462 6701.49 578.703 6690.86 571.805L6509.06 471.099C6497.25 464.201 6496.07 454.544 6496.07 450.406C6496.07 446.267 6497.25 435.231 6509.06 429.713L6690.86 329.007C6712.11 316.591 6739.27 316.591 6760.52 329.007L6942.32 429.713C6954.13 436.61 6955.31 446.267 6955.31 450.406C6955.31 454.544 6954.13 465.581 6942.32 471.099L6760.52 571.805C6751.07 578.703 6739.27 581.462 6726.28 581.462ZM6726.28 326.247C6715.66 326.247 6703.85 329.007 6694.41 334.525L6512.6 435.231C6504.34 440.749 6503.16 447.647 6503.16 451.785C6503.16 455.924 6504.34 462.822 6512.6 468.34L6694.41 569.046C6713.3 580.082 6739.27 580.082 6758.16 569.046L6939.96 468.34C6948.23 462.822 6949.41 455.924 6949.41 451.785C6949.41 447.647 6948.23 440.749 6939.96 435.231L6758.16 334.525C6748.71 329.007 6738.09 326.247 6726.28 326.247Z" fill="#59CEF8"/>
<path d="M6811.28 644.921C6808.92 638.023 6800.66 636.644 6793.57 640.782L6748.71 665.614C6733.37 673.891 6714.48 673.891 6697.95 665.614L6653.09 640.782C6646 636.644 6637.74 639.402 6635.38 644.921C6633.02 651.818 6636.56 660.095 6643.64 664.234L6697.95 694.584C6713.3 702.861 6732.18 702.861 6748.71 694.584L6803.02 664.234C6810.1 660.095 6813.64 651.818 6811.28 644.921Z" fill="#31097F"/>
<path d="M6811.28 711.138C6808.92 704.24 6800.66 702.861 6793.57 706.999L6748.71 731.831C6733.37 740.108 6714.48 740.108 6697.95 731.831L6653.09 706.999C6646 702.861 6637.74 705.62 6635.38 711.138C6633.02 718.036 6636.56 726.313 6643.64 730.452L6697.95 760.801C6713.3 769.078 6732.18 769.078 6748.71 760.801L6803.02 730.452C6810.1 726.313 6813.64 718.036 6811.28 711.138Z" fill="#31097F"/>
<path d="M6595.24 604.914L6513.78 559.389C6506.7 555.25 6498.43 558.01 6496.07 563.528C6493.71 570.426 6497.25 578.703 6504.34 582.841L6585.8 628.366C6592.88 632.505 6601.14 629.746 6603.5 624.227C6605.86 618.709 6602.32 607.673 6595.24 604.914Z" fill="#59CEF8"/>
<path d="M6595.24 673.891L6513.78 628.366C6506.7 624.227 6498.43 626.986 6496.07 632.505C6493.71 639.402 6497.25 647.679 6504.34 651.818L6585.8 697.342C6592.88 701.481 6601.14 698.722 6603.5 693.204C6605.86 686.306 6602.32 678.029 6595.24 673.891Z" fill="#59CEF8"/>
<path d="M8785.08 1818.77C8781.53 1814.63 8776.81 1809.11 8772.09 1804.97C8750.84 1782.9 8723.69 1762.21 8691.81 1747.03C8682.37 1742.89 8671.74 1738.75 8662.3 1734.61C8639.87 1726.34 8618.62 1720.82 8597.37 1719.44C8591.46 1718.06 8584.38 1718.06 8578.48 1718.06C8521.81 1716.68 8474.59 1738.75 8455.7 1778.76C8436.81 1820.15 8450.98 1869.81 8486.39 1913.95C8489.94 1919.47 8494.66 1923.61 8499.38 1929.13C8520.63 1951.2 8550.15 1967.76 8582.02 1982.93C8613.9 1998.11 8644.59 2011.9 8674.1 2014.66C8680.01 2016.04 8687.09 2016.04 8692.99 2016.04C8723.69 2016.04 8750.84 2010.52 8772.09 1998.11C8790.98 1988.45 8805.15 1977.41 8815.77 1953.96C8834.66 1913.95 8821.67 1862.91 8785.08 1818.77Z" fill="url(#paint29_linear_2853_24)"/>
<path d="M8512.37 1806.35C8501.74 1803.59 8492.3 1798.07 8488.76 1788.42C8485.22 1780.14 8485.22 1770.48 8488.76 1760.83C8497.02 1741.51 8522.99 1726.34 8546.6 1727.72H8586.74C8602.09 1727.72 8615.08 1734.61 8620.98 1745.65C8624.52 1753.93 8624.52 1763.59 8620.98 1773.24C8612.72 1791.18 8587.92 1806.35 8565.49 1806.35H8522.99C8519.45 1807.73 8515.91 1806.35 8512.37 1806.35ZM8596.19 1731.86C8593.83 1731.86 8590.28 1730.48 8586.74 1730.48H8546.6C8524.17 1730.48 8499.38 1744.27 8491.12 1762.21C8487.58 1770.48 8487.58 1780.14 8491.12 1787.04C8495.84 1796.69 8507.65 1803.59 8522.99 1803.59H8565.49C8587.92 1803.59 8610.35 1789.8 8618.62 1771.86C8622.16 1763.59 8622.16 1753.93 8618.62 1747.03C8615.08 1740.13 8606.81 1734.61 8596.19 1731.86Z" fill="#5130D5"/>
<path d="M8586.74 1741.51H8546.6C8527.72 1741.51 8507.65 1752.55 8500.56 1767.72C8493.48 1782.9 8504.1 1793.93 8521.81 1793.93H8564.31C8582.02 1793.93 8602.09 1782.9 8607.99 1767.72C8615.08 1753.93 8605.63 1741.51 8586.74 1741.51Z" fill="#1D263C"/>
<path d="M8517.09 1767.72C8522.99 1753.93 8543.06 1742.89 8560.77 1741.51H8546.6C8527.72 1741.51 8507.65 1752.55 8500.56 1767.72C8493.48 1782.9 8504.1 1793.94 8521.81 1793.94H8537.16C8519.45 1793.94 8510.01 1781.52 8517.09 1767.72Z" fill="#3B1CAF"/>
<path d="M8413.2 2155.37L8337.65 2322.3C8337.65 2320.92 8336.46 2320.92 8336.46 2319.54V2318.16L8409.66 2156.75C8409.66 2156.75 8410.84 2156.75 8410.84 2155.37C8412.02 2155.37 8413.2 2155.37 8413.2 2155.37Z" fill="#6049E9"/>
<path d="M8573.76 2234.01L8500.56 2394.03C8500.56 2394.03 8500.56 2394.03 8499.38 2394.03C8499.38 2394.03 8498.2 2394.03 8498.2 2395.41C8497.02 2395.41 8497.02 2395.41 8495.84 2396.79L8571.39 2231.25C8571.39 2231.25 8571.4 2232.63 8572.58 2232.63C8573.76 2231.25 8573.76 2232.63 8573.76 2234.01Z" fill="#6049E9"/>
<path d="M7952.66 2817.26V6791.38C7952.66 6936.37 7871.61 7068.18 7738.46 7140.67L6482.23 7812.91C6285.4 7918.36 6042.26 7918.36 5845.43 7812.91L4589.2 7140.67C4456.05 7068.18 4375 6936.37 4375 6791.38V2790.9L5665.97 3608.13C5967 3799.26 6366.45 3799.26 6667.48 3608.13L7952.66 2817.26Z" fill="url(#paint30_linear_2853_24)"/>
<path d="M7738.46 3614.72L6482.23 4286.96C6285.4 4392.41 6042.26 4392.41 5845.43 4286.96L4589.2 3614.72C4456.05 3542.22 4375 3410.41 4375 3265.42V3364.28C4375 3509.27 4456.05 3641.08 4589.2 3713.58L5845.43 4385.82C6042.26 4491.27 6285.4 4491.27 6482.23 4385.82L7738.46 3713.58C7871.61 3641.08 7952.66 3509.27 7952.66 3364.28V3265.42C7952.66 3410.41 7871.61 3542.22 7738.46 3614.72Z" fill="#31097F"/>
<path d="M4537.1 2527.28L5845.43 1822.09C6042.26 1716.64 6291.19 1716.64 6488.02 1822.09L7796.35 2527.28C8010.55 2645.91 8010.55 2929.3 7796.35 3047.93L6482.23 3753.12C6285.4 3858.57 6036.47 3858.57 5839.64 3753.12L4531.31 3047.93C4322.9 2935.89 4322.9 2645.91 4537.1 2527.28Z" fill="#7362F4"/>
<path d="M6163.83 3667.45C6077 3667.45 5990.16 3647.67 5914.9 3601.54L4704.98 2949.07C4641.3 2916.12 4600.78 2850.22 4600.78 2784.31C4600.78 2718.4 4641.3 2652.5 4704.98 2619.55L5914.9 1967.08C6065.42 1887.99 6262.25 1887.99 6412.76 1967.08L7622.68 2619.55C7686.36 2652.5 7726.89 2718.4 7726.89 2784.31C7726.89 2850.22 7686.36 2916.12 7622.68 2949.07L6412.76 3601.54C6337.5 3647.67 6250.67 3667.45 6163.83 3667.45ZM6163.83 1934.13C6082.79 1934.13 6001.74 1953.9 5926.48 1993.44L4716.56 2645.91C4664.46 2672.27 4629.72 2724.99 4629.72 2784.31C4629.72 2843.62 4664.46 2896.35 4716.56 2922.71L5926.48 3575.18C6071.21 3654.26 6256.46 3654.26 6395.4 3575.18L7605.32 2922.71C7657.42 2896.35 7692.15 2843.62 7692.15 2784.31C7692.15 2724.99 7657.42 2672.27 7605.32 2645.91L6395.4 1993.44C6325.93 1953.9 6244.88 1934.13 6163.83 1934.13Z" fill="#59CEF8"/>
<path d="M5550.18 4695.57L4896.02 4346.27C4838.13 4313.32 4768.66 4333.09 4745.5 4385.82C4722.34 4438.54 4757.08 4511.04 4814.97 4543.99L5469.13 4893.29C5527.03 4926.24 5596.49 4906.47 5619.65 4853.75C5642.81 4794.43 5613.86 4728.53 5550.18 4695.57Z" fill="#59CEF8"/>
<path d="M6812.2 4695.57L7466.37 4346.27C7524.26 4313.32 7593.73 4333.09 7616.88 4385.82C7640.04 4438.54 7605.31 4511.04 7547.42 4543.99L6893.25 4893.29C6835.36 4926.24 6765.89 4906.47 6742.73 4853.75C6725.37 4794.43 6754.31 4728.53 6812.2 4695.57Z" fill="#31097F"/>
<path d="M6266.49 3109.77C6265.41 3110.26 6265.41 3110.26 6264.34 3110.75C6257.39 3115.43 6249.37 3120.6 6240.77 3124.51C6224.65 3131.85 6206.82 3135.42 6188.92 3135.99C6171.02 3136.56 6153.56 3132.38 6138.17 3124.23C6129.94 3120.4 6121.14 3115.31 6114.48 3109.25C6113.91 3107.99 6112.84 3108.48 6112.27 3107.22C6112.27 3107.22 6098.07 3056.09 6096.9 3005.08C6097.38 2954.85 6111.96 2904.25 6111.39 2902.99C6112.47 2902.51 6112.47 2902.51 6112.97 2900.76C6118.85 2896.57 6123.65 2892.87 6130.09 2889.93C6146.71 2880.85 6166.69 2876.3 6187.31 2876.01C6207.94 2875.72 6227.62 2881.92 6244.65 2890.84C6250.16 2894.39 6255.67 2897.95 6261.75 2902.76C6262.32 2904.01 6262.32 2904.01 6263.97 2904.78C6263.97 2904.78 6278.67 2954.17 6278.76 3005.66C6281 3056.18 6265.92 3108.52 6266.49 3109.77Z" fill="url(#paint31_linear_2853_24)"/>
<path d="M6113.04 2903.76C6113.61 2905.02 6113.34 3106.73 6113.34 3106.73C6109.48 3103.95 6105.04 3099.9 6102.25 3096.62C6101.68 3095.37 6100.61 3095.86 6100.04 3094.6L6099.46 3093.35C6078.29 3069.64 6065.65 3039.01 6065.4 3004.27C6065.15 2969.52 6078.57 2939.16 6099.21 2916.12C6099.21 2916.12 6100.28 2915.63 6099.71 2914.38C6100.79 2913.89 6100.79 2913.89 6101.29 2912.14C6104.51 2910.67 6109.31 2906.97 6113.04 2903.76Z" fill="#9996FF"/>
<path d="M6313.56 3008.01C6313.24 3041.5 6301.47 3072.63 6279.75 3096.16C6279.75 3096.16 6279.75 3096.16 6278.67 3096.65C6278.67 3096.65 6277.6 3097.14 6278.17 3098.39C6277.1 3098.88 6277.1 3098.88 6276.59 3100.63C6272.87 3103.84 6269.71 3108.31 6264.34 3110.75C6263.77 3109.5 6264.04 2907.78 6264.04 2907.78C6267.9 2910.57 6272.34 2914.61 6275.13 2917.89C6275.13 2917.89 6275.7 2919.14 6276.77 2918.65L6277.34 2919.91C6300.66 2942.64 6313.88 2974.52 6313.56 3008.01Z" fill="#9996FF"/>
<path d="M6154.85 2833.19L6154.51 2889.43C6154.78 2901.43 6170.24 2912.59 6189.78 2912.78C6209.33 2912.98 6224.3 2903.13 6225.1 2890.64L6225.45 2834.4L6154.85 2833.19Z" fill="#3B1CAF"/>
<path d="M6224.87 2833.15C6224.6 2821.14 6209.15 2809.99 6189.6 2809.79C6170.05 2809.6 6155.08 2819.45 6154.28 2831.94C6154.55 2843.94 6170.01 2855.09 6189.55 2855.29C6209.1 2855.48 6224.07 2845.64 6224.87 2833.15Z" fill="#FF2B40"/>
<path d="M6255.46 2746.47L6255.71 2852.45C6255.85 2858.45 6254.34 2863.69 6250.11 2868.64C6240.15 2883.79 6216.51 2894.55 6190.45 2894.29C6161.66 2893.75 6136.97 2882.25 6127.9 2865.17C6126.18 2861.4 6123.9 2856.38 6124.33 2851.63L6124.08 2745.65L6255.46 2746.47Z" fill="#6049E9"/>
<path d="M6240.77 3124.51C6224.65 3131.85 6206.82 3135.42 6188.92 3135.99C6171.02 3136.56 6153.56 3132.38 6138.17 3124.23L6137.89 3040.99C6137.78 3012.24 6161.14 2989.48 6188.85 2990.51C6192.64 2990.3 6197.01 2991.34 6199.73 2991.62C6223.21 2997.61 6240.52 3018.53 6239.99 3043.02L6240.77 3124.51Z" fill="#3B1CAF"/>
<path d="M6187.62 3078.99C6170.22 3077.81 6156.27 3061.42 6156.94 3042.93C6157.6 3024.44 6173.01 3009.85 6191.48 3010.53C6208.88 3011.71 6222.82 3028.1 6222.16 3046.59C6222.07 3066.33 6206.09 3079.67 6187.62 3078.99Z" fill="#6049E9"/>
<path d="M6187.98 3071.24C6174.38 3069.85 6163.8 3058 6165.1 3043.76C6166.4 3029.53 6177.01 3018.64 6190.61 3020.02C6204.21 3021.41 6214.8 3033.27 6213.5 3047.5C6213.27 3061.25 6202.09 3070.88 6187.98 3071.24Z" fill="#3B1CAF"/>
<path d="M6188.85 3061.75C6180.69 3060.92 6173.47 3053.6 6174.33 3044.11C6174.13 3035.11 6181.58 3028.68 6190.82 3029.02C6198.98 3029.86 6206.2 3037.18 6205.33 3046.67C6204.97 3054.41 6197.01 3062.58 6188.85 3061.75Z" fill="#6049E9"/>
<path d="M6190.45 3036.77C6186.66 3036.98 6182.79 3034.19 6183.8 3030.7C6184.8 3027.21 6188.03 3025.75 6191.82 3025.54C6195.62 3025.32 6199.48 3028.11 6198.48 3031.6C6197.47 3035.09 6194.82 3037.81 6190.45 3036.77Z" fill="white"/>
<path d="M5634.25 2547.25L5630.98 2522.97C5630.82 2539.72 5618.13 2554.59 5601.3 2554.67C5586.63 2553.77 5573.89 2542.89 5571.9 2527.13L5576.39 2556.92C5578.38 2572.68 5591.11 2583.56 5605.79 2584.46C5623.11 2582.63 5637.38 2565.53 5634.25 2547.25Z" fill="#6049E9"/>
<path d="M5543.16 2338.62L5570.83 2527.62C5573.32 2541.64 5583.33 2552.24 5595.86 2554.11L5565.43 2339.09L5543.16 2338.62Z" fill="#F4ECFB"/>
<path d="M5631.69 2530.23L5604.16 2347.23L5565.43 2339.09L5595.86 2554.11C5597.51 2554.88 5598.58 2554.39 5600.23 2555.16C5617.06 2555.08 5630.82 2539.72 5631.69 2530.23Z" fill="#D7B8EC"/>
<path d="M5648.17 3250.29L5644.9 3226.01C5644.74 3242.75 5632.05 3257.62 5615.22 3257.7C5600.55 3256.81 5587.81 3245.93 5585.82 3230.16L5590.31 3259.95C5592.3 3275.72 5605.03 3286.6 5619.71 3287.49C5635.96 3286.16 5650.22 3269.05 5648.17 3250.29Z" fill="#6049E9"/>
<path d="M5557.08 3041.65L5584.75 3230.65C5587.24 3244.67 5597.25 3255.27 5609.78 3257.15L5579.35 3042.12L5557.08 3041.65Z" fill="#F4ECFB"/>
<path d="M5644.9 3226.01L5617.37 3043.01L5579.92 3043.38L5610.35 3258.4C5612 3259.17 5613.07 3258.68 5614.72 3259.45C5632.05 3257.62 5644.74 3242.75 5644.9 3226.01Z" fill="#D7B8EC"/>
<path d="M6732.38 3258.44L6735.63 3234.22C6735.47 3250.97 6748.84 3266.1 6765.67 3266.02C6780.34 3266.92 6793.1 3255.05 6794.91 3239.07L6791.23 3268.03C6788.85 3282.75 6776.09 3294.62 6761.99 3294.98C6744.09 3295.55 6729.57 3277.9 6732.38 3258.44Z" fill="#6049E9"/>
<path d="M6823.73 3051.63L6796.55 3239.83C6795.25 3254.07 6784.07 3263.7 6771.11 3266.57L6800.96 3052.91L6823.73 3051.63Z" fill="#F4ECFB"/>
<path d="M6735.63 3234.22L6762.37 3050.77L6799.82 3050.39L6769.97 3264.06C6768.89 3264.55 6767.25 3263.79 6765.1 3264.76C6748.84 3266.1 6736.04 3252.22 6735.63 3234.22Z" fill="#D7B8EC"/>
<path d="M6734.21 2555.81L6737.46 2531.59C6737.3 2548.34 6750.67 2563.47 6767.5 2563.39C6782.18 2564.29 6794.93 2552.42 6796.74 2536.44L6793.06 2565.4C6790.68 2580.12 6777.92 2591.99 6763.82 2592.35C6745.92 2592.92 6731.4 2575.28 6734.21 2555.81Z" fill="#6049E9"/>
<path d="M6825.56 2349.01L6798.38 2537.21C6797.08 2551.44 6785.9 2561.08 6772.94 2563.95L6802.79 2350.28L6825.56 2349.01Z" fill="#F4ECFB"/>
<path d="M6737.46 2531.59L6764.2 2348.14L6801.65 2347.77L6771.8 2561.43C6770.72 2561.92 6769.08 2561.16 6766.93 2562.14C6750.67 2563.47 6737.87 2549.6 6737.46 2531.59Z" fill="#D7B8EC"/>
<path d="M6255.34 2717.72L6255.6 2823.71C6255.74 2829.71 6254.23 2834.94 6250 2839.9C6240.03 2855.04 6216.39 2865.81 6190.33 2865.54C6161.55 2865 6136.86 2853.51 6127.78 2836.42C6126.07 2832.65 6123.78 2827.63 6124.22 2822.89L6123.96 2716.9L6255.34 2717.72Z" fill="#3B1CAF"/>
<path d="M6833.03 2248.6C6821.08 2247.98 6811.54 2258.38 6810.74 2270.87L6810.88 2276.87C6803.8 2275.55 6797.28 2275.48 6789.69 2275.91C6725.61 2274.76 6673.74 2308.99 6673.05 2350.22C6673.12 2353.22 6673.69 2354.48 6673.76 2357.48L6245.62 2553.9C6205.87 2571.99 6160.26 2571.54 6120.18 2551.89L5704.61 2348.49C5705.61 2345 5706.05 2340.25 5705.98 2337.25C5706.09 2294.76 5653.21 2261.23 5589.71 2261.34C5584.26 2260.79 5578.32 2261.98 5572.88 2261.43L5572.74 2255.42C5572.47 2243.42 5562.45 2232.82 5550.5 2232.2L5495.04 2275.64C5483.08 2275.02 5473.55 2285.42 5472.75 2297.91L5472.5 2334.41C5472.38 2376.9 5525.26 2410.42 5588.77 2410.31C5594.21 2410.87 5600.16 2409.68 5605.03 2408.98C5609.9 2408.28 5615.91 2410.09 5620.34 2414.13L5864.67 2606.06C5923.26 2652.14 5923.74 2744.38 5863.99 2789.77L5621.23 2974.56C5616.43 2978.26 5611.56 2978.96 5606.12 2978.4C5600.68 2977.85 5595.24 2977.29 5589.79 2976.74C5589.79 2976.74 5589.79 2976.74 5588.72 2977.23C5588.45 2965.23 5578.43 2954.63 5566.48 2954.01L5495.33 3000.04C5483.38 2999.42 5473.84 3009.82 5473.04 3022.31L5472.52 3046.8C5472.02 3048.54 5472.59 3049.8 5472.08 3051.55C5471.97 3094.04 5524.85 3127.56 5588.36 3127.45C5652.44 3128.6 5704.31 3094.37 5704.99 3053.14C5705.43 3048.39 5703.71 3044.62 5703.07 3040.37L6107.51 2851.71C6153.71 2830.68 6205.83 2831.2 6251.92 2852.67L6671.15 3049.85C6670.65 3051.6 6670.72 3054.6 6670.22 3056.34C6670.1 3098.83 6722.98 3132.36 6786.49 3132.25C6848.92 3132.63 6899.22 3100.64 6902.12 3061.42L6902.3 3021.93C6902.03 3009.93 6892.01 2999.33 6880.06 2998.71L6820.39 2953.12C6808.43 2952.5 6798.9 2962.9 6798.1 2975.39L6798.24 2981.39C6794.44 2981.6 6790.08 2980.56 6785.21 2981.26C6777.62 2981.68 6769.46 2980.85 6761.36 2983.02C6755.42 2984.21 6749.41 2982.4 6745.54 2979.61L6505.22 2796.47C6444.48 2751.37 6444.5 2657.38 6504.25 2611.99L6747.58 2428.46C6752.38 2424.76 6758.33 2423.57 6763.77 2424.12C6771.93 2424.96 6781.74 2426.55 6790.4 2425.64C6851.76 2426.51 6902.63 2395.78 6906.6 2356.07L6906.28 2318.32C6906.01 2306.32 6895.99 2295.72 6884.04 2295.1L6833.03 2248.6Z" fill="url(#paint32_linear_2853_24)"/>
<path d="M6790.33 2944.06C6778.94 2944.7 6768.63 2944.85 6757.82 2946.74L6479.64 2674.73C6435.99 2641.55 6430.75 2578.75 6465.16 2540.36C6472.04 2532.68 6481.64 2525.27 6491.31 2520.87L6754.72 2384.29C6766.17 2386.65 6778.13 2387.27 6790.08 2387.89C6854.16 2389.04 6906.03 2354.82 6906.72 2313.58C6906.83 2271.09 6853.95 2237.56 6790.44 2237.67C6726.36 2236.53 6674.49 2270.75 6673.81 2311.99C6673.88 2314.99 6674.45 2316.24 6674.52 2319.24L6237.41 2456.08C6237.41 2456.08 6183.62 2477.53 6130.45 2454.75C6027.39 2410.72 5707.01 2311.02 5707.01 2311.02C5708.01 2307.53 5708.45 2302.78 5708.38 2299.78C5708.49 2257.29 5655.61 2223.76 5592.11 2223.87C5528.03 2222.73 5476.15 2256.95 5475.47 2298.19C5474.78 2339.43 5528.23 2374.21 5591.74 2374.1C5600.98 2374.44 5608.57 2374.02 5616.66 2371.85L5880 2517.23C5888.81 2522.31 5898.18 2528.66 5904.9 2537.72C5937.3 2577.54 5930.51 2636.72 5890.02 2670.3C5817.65 2733.57 5616.68 2941.76 5616.68 2941.76C5608.52 2940.93 5600.36 2940.1 5591.12 2939.76C5527.04 2938.61 5475.17 2972.84 5474.48 3014.07C5474.37 3056.57 5527.25 3090.09 5590.76 3089.98C5654.84 3091.13 5706.71 3056.9 5707.39 3015.67C5707.83 3010.92 5706.11 3007.15 5705.47 3002.9L6113.33 2750.54C6117.63 2748.58 6121.36 2745.37 6125.65 2743.41C6162.76 2728.04 6202.92 2727.94 6240.21 2744.31C6244.58 2745.36 6248.44 2748.15 6252.31 2750.93C6302.97 2782.44 6674.63 3011.89 6674.63 3011.89C6674.13 3013.64 6674.19 3016.64 6673.69 3018.38C6673.58 3060.87 6726.46 3094.4 6789.97 3094.29C6854.05 3095.43 6905.92 3061.21 6906.6 3019.97C6906.21 2979.22 6854.41 2945.21 6790.33 2944.06Z" fill="url(#paint33_linear_2853_24)"/>
<path d="M6825.35 3075.15C6814.54 3077.04 6802.65 3079.42 6790.7 3078.8C6755.4 3078.19 6723.12 3067.12 6704.23 3048.43C6697.58 3042.37 6690.29 3032.05 6691.09 3019.56C6690.52 3018.3 6691.02 3016.56 6691.52 3014.81L6692.89 3003.58L6261.2 2736.28C6255.69 2732.72 6250.75 2730.42 6247.46 2728.89C6215.68 2716.07 6181.39 2711.98 6148.45 2719.39C6139.28 2722.05 6130.11 2724.71 6120.94 2727.37C6116.65 2729.32 6111.27 2731.77 6106.47 2735.47L5688.44 2993.98L5691.44 3006.26C5692.58 3008.77 5692.65 3011.77 5692.72 3014.77C5693.27 3038.77 5666.11 3061.74 5628.3 3069.86C5617.48 3071.75 5605.59 3074.13 5593.64 3073.51C5558.34 3072.91 5526.06 3061.84 5507.18 3043.15C5500.52 3037.08 5493.23 3026.76 5494.03 3014.27C5493.48 2990.27 5520.64 2967.3 5559.53 2958.69C5570.34 2956.8 5582.23 2954.42 5594.18 2955.04C5601.77 2954.61 5608.86 2955.93 5617.02 2956.77L5625.18 2957.6L5630.49 2952.15C5632.06 2949.92 5831.96 2742.21 5902.76 2681.18C5950.12 2639.91 5957.78 2571.25 5918.73 2525.36C5910.94 2516.79 5902.06 2508.7 5888.32 2501.31L5620.04 2353.64L5615.17 2354.34C5607.58 2354.76 5600 2355.18 5592.41 2355.61C5557.11 2355 5524.83 2343.93 5505.94 2325.24C5499.29 2319.18 5492 2308.85 5492.8 2296.36C5492.25 2272.36 5519.41 2249.39 5558.29 2240.78C5569.11 2238.89 5580.99 2236.51 5592.95 2237.13C5628.25 2237.74 5660.53 2248.81 5679.41 2267.5C5686.07 2273.56 5693.36 2283.88 5692.56 2296.37C5692.63 2299.37 5692.12 2301.12 5691.12 2304.61L5687.67 2319.82L5702.98 2324.97C5706.28 2326.51 6023.94 2425.94 6125.35 2469.2C6162.64 2485.57 6200.01 2482.2 6224.86 2476.95C6235.68 2475.06 6242.12 2472.12 6244.27 2471.14L6693.77 2330.18L6691.27 2316.16C6690.7 2314.91 6691.2 2313.16 6690.63 2311.91C6690.08 2287.9 6717.24 2264.93 6756.13 2256.32C6766.94 2254.43 6778.83 2252.05 6790.79 2252.67C6826.08 2253.28 6858.36 2264.35 6877.25 2283.04C6883.9 2289.1 6891.19 2299.42 6890.39 2311.91C6890.94 2335.92 6863.79 2358.89 6824.9 2367.5C6814.09 2369.39 6802.2 2371.77 6790.24 2371.15C6779.93 2371.3 6769.05 2370.19 6757.6 2367.82L6751.58 2366.01L6482.81 2505.04C6470.49 2512.16 6459.81 2520.05 6451.85 2528.22C6432.29 2550.77 6423.23 2582.18 6426.64 2612.46C6430.05 2642.74 6445.85 2668.89 6468.52 2687.37L6751.71 2964.67L6759.81 2962.51C6769.55 2961.1 6779.28 2959.7 6789.6 2959.56C6824.89 2960.16 6857.17 2971.23 6876.06 2989.92C6882.71 2995.99 6890 3006.31 6889.2 3018.8C6890.9 3045.31 6863.17 3067.03 6825.35 3075.15ZM6146.23 2717.37C6180.25 2709.47 6215.61 2713.07 6247.39 2725.89C6252.33 2728.19 6257.27 2730.49 6262.78 2734.04L6696.12 3002.11L6694.24 3015.09C6693.74 3016.83 6694.31 3018.09 6693.81 3019.83C6694.08 3031.83 6700.8 3040.9 6706.38 3047.46C6723.62 3065.38 6756.47 3077.7 6791.2 3077.05C6803.16 3077.67 6813.97 3075.78 6824.78 3073.89C6861.52 3066.26 6887.6 3043.78 6888.2 3022.29C6887.92 3010.29 6881.2 3001.22 6875.62 2994.67C6858.38 2976.74 6825.53 2964.42 6790.81 2965.07C6781.57 2964.72 6771.83 2966.13 6762.09 2967.53L6752.35 2968.93L6468.59 2690.37C6444.84 2672.38 6429.54 2644.48 6426.14 2614.2C6422.16 2582.67 6431.21 2551.26 6451.85 2528.22C6459.24 2518.8 6469.91 2510.91 6483.88 2504.55L6753.73 2365.03L6760.82 2366.35C6771.2 2369.21 6782.08 2370.32 6792.39 2370.17C6804.35 2370.79 6815.16 2368.9 6825.97 2367.01C6862.71 2359.38 6888.79 2336.89 6889.39 2315.4C6889.11 2303.4 6882.39 2294.34 6876.81 2287.78C6859.58 2269.86 6826.72 2257.53 6792 2258.18C6780.04 2257.56 6769.23 2259.45 6758.42 2261.34C6721.68 2268.97 6695.59 2291.46 6695 2312.95C6695.57 2314.21 6695.07 2315.95 6695.64 2317.21L6698.2 2334.23C6698.2 2334.23 6236.32 2479.31 6227.15 2481.97C6202.3 2487.22 6163.85 2491.08 6126.56 2474.71C6025.72 2432.7 5707.49 2332.02 5704.77 2331.74L5686.73 2326.31L5691.19 2307.61C5692.19 2304.12 5692.7 2302.37 5691.55 2299.86C5691.28 2287.86 5684.56 2278.8 5678.98 2272.24C5661.74 2254.32 5628.89 2241.99 5594.16 2242.64C5582.21 2242.02 5571.39 2243.91 5560.58 2245.8C5523.84 2253.43 5497.76 2275.92 5497.16 2297.41C5497.44 2309.41 5504.16 2318.48 5509.74 2325.03C5526.98 2342.95 5559.83 2355.28 5594.55 2354.63C5602.14 2354.21 5609.73 2353.78 5617.32 2353.36L5618.9 2351.12L5887.75 2500.06C5901.49 2507.44 5911.44 2515.04 5918.16 2524.11C5957.78 2571.25 5951.27 2642.42 5901.75 2684.67C5830.95 2745.7 5631.06 2953.41 5629.48 2955.64L5622.6 2963.32L5612.79 2961.72C5605.7 2960.4 5597.54 2959.57 5589.95 2959.99C5578 2959.37 5567.18 2961.26 5556.37 2963.16C5519.63 2970.78 5493.55 2993.27 5492.96 3014.76C5493.23 3026.76 5499.95 3035.83 5505.53 3042.38C5522.77 3060.3 5555.62 3072.63 5590.35 3071.98C5602.3 3072.6 5613.12 3070.71 5623.93 3068.82C5660.67 3061.19 5686.75 3038.71 5687.34 3017.21C5687.85 3015.47 5686.7 3012.96 5686.63 3009.96L5683.07 2996.42L6102.68 2735.68C6107.48 2731.98 6112.85 2729.54 6117.15 2727.58C6127.89 2722.69 6137.06 2720.03 6146.23 2717.37Z" fill="#9996FF"/>
<path d="M5660.34 2952.2L5660.94 3001.95C5661.79 3015.21 5652.82 3026.87 5639.43 3034.48C5635.13 3036.44 5631.4 3039.65 5626.53 3040.35C5616.29 3043.5 5604.4 3045.88 5591.37 3045.75C5578.34 3045.61 5566.89 3043.25 5555.94 3039.14C5551 3036.84 5546.63 3035.8 5542.77 3033.01C5530.11 3025.13 5520.59 3012.79 5521.39 3000.3L5520.8 2950.55L5660.34 2952.2Z" fill="#6049E9"/>
<path d="M5660.34 2952.2C5660.87 2927.71 5629.46 2907.15 5590.36 2906.76C5552.35 2905.87 5521.32 2926.06 5521.37 2951.8C5520.85 2976.3 5552.26 2996.86 5591.35 2997.25C5628.8 2996.88 5660.39 2977.95 5660.34 2952.2Z" fill="white"/>
<path d="M5556.76 3003.9L5556.51 3040.4C5551.57 3038.1 5547.21 3037.05 5543.34 3034.26L5543.59 2997.77L5556.76 3003.9Z" fill="#3B1CAF"/>
<path d="M5638.6 2998.48L5638.35 3034.97C5634.06 3036.93 5630.33 3040.14 5625.46 3040.84L5625.71 3004.35L5638.6 2998.48Z" fill="#3B1CAF"/>
<path d="M5631.93 2943.92L5632.73 2931.43L5620.27 2932.55C5606.6 2928.17 5586.55 2929.71 5570.43 2937.05C5568.28 2938.03 5566.13 2939.01 5562.91 2940.47L5552.09 2942.37L5551.3 2954.86C5551.36 2957.86 5553.08 2961.62 5558.02 2963.92C5570.11 2970.54 5594.53 2970.04 5612.79 2961.72C5625.69 2955.85 5632.06 2949.92 5631.93 2943.92Z" fill="#6049E9"/>
<path d="M5558.82 2951.43C5567.62 2956.52 5585.02 2957.69 5600.13 2953.85L5557.83 2932.17C5550.38 2938.6 5550.01 2946.34 5558.82 2951.43Z" fill="#796DF4"/>
<path d="M5569.58 2923.79C5564.21 2926.24 5559.91 2928.2 5557.26 2930.92L5599.56 2952.59C5604.43 2951.89 5608.72 2949.93 5613.02 2947.98C5616.24 2946.51 5618.39 2945.53 5620.54 2944.55L5576.03 2920.86C5575.53 2922.6 5572.3 2924.07 5569.58 2923.79Z" fill="#3B1CAF"/>
<path d="M5626.01 2922.36C5615.56 2916.51 5594.94 2916.8 5577.68 2921.63L5622.19 2945.32C5633.94 2936.94 5636.45 2928.22 5626.01 2922.36Z" fill="#796DF4"/>
<path d="M5631.81 2915.17L5632.11 2904.43L5619.08 2904.29C5605.41 2899.91 5585.36 2901.46 5569.24 2908.79C5567.09 2909.77 5564.94 2910.75 5561.72 2912.22L5550.91 2914.11L5550.11 2926.6C5550.17 2929.6 5551.89 2933.36 5556.83 2935.66C5568.92 2942.28 5593.34 2941.78 5611.6 2933.46C5626.14 2928.36 5632.52 2922.43 5631.81 2915.17Z" fill="#6049E9"/>
<path d="M5615.12 2921.25C5596.86 2929.57 5571.37 2930.56 5560.35 2923.45C5548.25 2916.83 5553.42 2905.38 5571.69 2897.07C5589.95 2888.75 5615.44 2887.76 5626.46 2894.87C5638.55 2901.49 5633.39 2912.94 5615.12 2921.25Z" fill="white"/>
<path d="M5621.25 2951.81L5600.27 2959.85L5600.15 2931.1L5622.21 2922.57L5621.25 2951.81Z" fill="#6049E9"/>
<path d="M5659.11 2234.3L5659.71 2284.04C5660.55 2297.3 5651.59 2308.96 5638.19 2316.57C5633.9 2318.53 5630.17 2321.74 5625.3 2322.44C5615.06 2325.59 5603.17 2327.97 5590.14 2327.84C5577.11 2327.71 5565.66 2325.34 5554.71 2321.23C5549.77 2318.93 5545.4 2317.89 5541.54 2315.1C5528.87 2307.23 5519.36 2294.88 5520.16 2282.39L5519.57 2232.64L5659.11 2234.3Z" fill="#6049E9"/>
<path d="M5659.11 2234.3C5659.64 2209.8 5628.22 2189.24 5589.13 2188.85C5551.11 2187.97 5520.09 2208.15 5520.14 2233.9C5520.18 2259.65 5551.02 2278.95 5590.12 2279.35C5628.64 2278.48 5659.66 2258.3 5659.11 2234.3Z" fill="white"/>
<path d="M5554.96 2284.74L5554.71 2321.23C5549.77 2318.93 5545.4 2317.89 5541.54 2315.1L5541.79 2278.61L5554.96 2284.74Z" fill="#3B1CAF"/>
<path d="M5636.8 2279.31L5636.55 2315.81C5632.25 2317.76 5628.52 2320.98 5623.66 2321.68L5623.91 2285.18L5636.8 2279.31Z" fill="#3B1CAF"/>
<path d="M5631.2 2224.27L5632 2211.78L5619.54 2212.9C5605.87 2208.51 5585.82 2210.06 5569.7 2217.4C5567.55 2218.38 5565.4 2219.36 5562.18 2220.82L5551.36 2222.71L5550.56 2235.21C5550.63 2238.21 5552.35 2241.97 5557.29 2244.27C5569.38 2250.89 5593.8 2250.39 5612.06 2242.07C5625.53 2237.46 5631.33 2230.27 5631.2 2224.27Z" fill="#6049E9"/>
<path d="M5558.09 2231.78C5566.89 2236.87 5584.29 2238.04 5599.4 2234.2L5557.1 2212.52C5548.58 2219.44 5548.21 2227.18 5558.09 2231.78Z" fill="#796DF4"/>
<path d="M5569.42 2205.4C5564.05 2207.84 5559.75 2209.8 5557.1 2212.52L5599.4 2234.2C5604.27 2233.49 5608.56 2231.54 5612.86 2229.58C5616.09 2228.11 5618.23 2227.14 5620.38 2226.16L5575.87 2202.46C5573.72 2203.44 5571.57 2204.42 5569.42 2205.4Z" fill="#3B1CAF"/>
<path d="M5624.2 2203.2C5613.75 2197.35 5593.13 2197.64 5575.87 2202.46L5620.38 2226.16C5632.71 2219.03 5634.65 2209.05 5624.2 2203.2Z" fill="#796DF4"/>
<path d="M5631.65 2196.78L5631.95 2186.03L5618.92 2185.9C5605.25 2181.51 5585.2 2183.06 5569.08 2190.4C5566.93 2191.38 5564.78 2192.35 5561.56 2193.82L5550.75 2195.71L5549.95 2208.2C5550.02 2211.2 5551.73 2214.97 5556.67 2217.27C5568.76 2223.89 5593.18 2223.38 5611.45 2215.07C5625.98 2209.97 5631.79 2202.78 5631.65 2196.78Z" fill="#6049E9"/>
<path d="M5613.32 2202.09C5595.05 2210.41 5569.56 2211.4 5558.54 2204.29C5546.45 2197.67 5551.62 2186.22 5569.88 2177.91C5588.15 2169.59 5613.64 2168.6 5624.66 2175.71C5637.83 2181.84 5632.16 2195.03 5613.32 2202.09Z" fill="white"/>
<path d="M5621.09 2233.41L5600.11 2241.45L5599.99 2212.7L5622.05 2204.18L5621.09 2233.41Z" fill="#6049E9"/>
<path d="M6724.94 2957.16L6725.54 3006.9C6725.31 3020.65 6734.25 3031.74 6746.91 3039.61C6750.78 3042.4 6755.72 3044.7 6760.08 3045.75C6769.96 3050.34 6782.49 3052.22 6794.44 3052.84C6807.47 3052.97 6819.36 3050.59 6829.6 3047.44C6833.9 3045.49 6838.2 3043.53 6842.5 3041.58C6855.89 3033.96 6864.86 3022.3 6864.01 3009.05L6863.41 2959.3L6724.94 2957.16Z" fill="#6049E9"/>
<path d="M6724.94 2957.16C6725.47 2932.66 6756.49 2912.48 6793.94 2912.11C6831.38 2911.73 6863.37 2933.55 6862.84 2958.04C6862.32 2982.53 6831.3 3002.72 6793.85 3003.09C6756.4 3003.46 6724.99 2982.9 6724.94 2957.16Z" fill="white"/>
<path d="M6828.78 3011.44L6828.53 3047.93C6832.83 3045.98 6837.12 3044.02 6841.42 3042.06L6841.67 3005.57L6828.78 3011.44Z" fill="#3B1CAF"/>
<path d="M6746.66 3004.87L6746.41 3041.36C6750.28 3044.15 6755.21 3046.45 6759.58 3047.49L6759.83 3011L6746.66 3004.87Z" fill="#3B1CAF"/>
<path d="M6753.52 2948.69L6753.24 2936.69L6765.77 2938.57C6779.24 2933.95 6799.93 2936.66 6815.82 2943.07C6819.11 2944.6 6820.75 2945.37 6822.4 2946.14L6833.28 2947.25L6833.56 2959.25C6833.63 2962.25 6831.55 2966.23 6827.25 2968.18C6814.93 2975.31 6790.44 2972.81 6771.26 2964.87C6759.81 2962.51 6752.58 2955.18 6753.52 2948.69Z" fill="#6049E9"/>
<path d="M6826.47 2957.93C6817.37 2963.58 6800.55 2963.66 6784.73 2960.26L6827.13 2939.44C6834.86 2945.01 6836.14 2953.52 6826.47 2957.93Z" fill="#796DF4"/>
<path d="M6815.54 2931.07C6820.48 2933.37 6824.34 2936.16 6827.64 2937.69L6785.23 2958.51C6780.86 2957.47 6775.92 2955.17 6771.56 2954.12C6768.27 2952.59 6766.62 2951.83 6764.4 2949.8L6808.39 2926.75C6809.53 2929.26 6812.25 2929.54 6815.54 2931.07Z" fill="#3B1CAF"/>
<path d="M6759.55 2927.76C6769.73 2921.61 6790.92 2922.57 6807.31 2927.24L6763.33 2950.29C6751.23 2943.67 6749.38 2933.9 6759.55 2927.76Z" fill="#796DF4"/>
<path d="M6752.9 2921.69L6752.63 2909.69L6764.58 2910.31C6778.05 2905.7 6798.74 2908.4 6814.63 2914.81C6817.92 2916.35 6819.56 2917.11 6821.21 2917.88L6832.09 2918.99L6832.37 2930.99C6832.44 2933.99 6830.36 2937.97 6826.06 2939.92C6813.74 2947.05 6789.25 2944.55 6770.07 2936.61C6758.62 2934.25 6751.96 2928.18 6752.9 2921.69Z" fill="#6049E9"/>
<path d="M6769.86 2927.61C6787.97 2936.04 6812.96 2936.79 6825.85 2930.92C6838.75 2925.05 6833.03 2912.5 6814.92 2904.07C6796.82 2895.64 6771.83 2894.89 6758.94 2900.76C6746.04 2906.63 6751.76 2919.18 6769.86 2927.61Z" fill="white"/>
<path d="M6762.96 2958.04L6784.86 2966.26L6784.75 2937.51L6762.27 2928.04L6762.96 2958.04Z" fill="#6049E9"/>
<path d="M6725.06 2250.76L6725.66 2300.51C6725.43 2314.26 6734.37 2325.34 6747.03 2333.22C6750.9 2336.01 6755.83 2338.31 6760.2 2339.35C6770.08 2343.95 6782.6 2345.83 6794.56 2346.45C6807.59 2346.58 6819.48 2344.2 6829.72 2341.05C6834.02 2339.09 6838.32 2337.14 6842.61 2335.18C6856.01 2327.57 6864.97 2315.91 6864.13 2302.65L6863.53 2252.9L6725.06 2250.76Z" fill="#6049E9"/>
<path d="M6725.06 2250.76C6725.58 2226.27 6756.61 2206.08 6794.05 2205.71C6832.07 2206.59 6863.48 2227.16 6862.96 2251.65C6862.43 2276.14 6831.41 2296.32 6793.96 2296.7C6755.95 2295.81 6726.18 2276.02 6725.06 2250.76Z" fill="white"/>
<path d="M6829.4 2303.3L6829.15 2339.79C6833.45 2337.84 6837.75 2335.88 6842.04 2333.92L6842.29 2297.43L6829.4 2303.3Z" fill="#3B1CAF"/>
<path d="M6747.28 2296.73L6747.03 2333.22C6750.9 2336.01 6755.83 2338.31 6760.2 2339.35L6760.45 2302.86L6747.28 2296.73Z" fill="#3B1CAF"/>
<path d="M6753.64 2242.3L6753.36 2230.3L6765.89 2232.17C6779.35 2227.56 6800.04 2230.27 6815.93 2236.68C6819.23 2238.21 6820.87 2238.98 6822.52 2239.74L6833.4 2240.85L6833.67 2252.85C6833.74 2255.85 6831.66 2259.83 6827.36 2261.79C6815.04 2268.91 6790.56 2266.42 6771.38 2258.48C6759.35 2254.86 6753.77 2248.3 6753.64 2242.3Z" fill="#6049E9"/>
<path d="M6827.66 2251.04C6818.56 2256.7 6801.74 2256.78 6785.92 2253.37L6828.32 2232.55C6836.05 2238.13 6835.69 2245.87 6827.66 2251.04Z" fill="#796DF4"/>
<path d="M6815.66 2224.68C6820.6 2226.98 6824.46 2229.76 6827.75 2231.3L6785.35 2252.12C6780.98 2251.07 6776.04 2248.77 6771.67 2247.73C6768.38 2246.2 6766.74 2245.43 6764.52 2243.41L6808.5 2220.35C6810.72 2222.38 6813.44 2222.65 6815.66 2224.68Z" fill="#3B1CAF"/>
<path d="M6759.67 2221.36C6769.84 2215.22 6791.04 2216.18 6807.43 2220.84L6763.44 2243.9C6751.85 2235.53 6750.57 2227.02 6759.67 2221.36Z" fill="#796DF4"/>
<path d="M6753.52 2213.55L6753.25 2201.55L6765.2 2202.17C6778.67 2197.56 6799.36 2200.27 6815.25 2206.67C6818.54 2208.21 6820.18 2208.97 6821.83 2209.74L6832.71 2210.85L6832.99 2222.85C6833.06 2225.85 6830.98 2229.83 6826.68 2231.79C6814.36 2238.91 6789.87 2236.42 6770.69 2228.47C6759.81 2227.36 6752.58 2220.04 6753.52 2213.55Z" fill="#6049E9"/>
<path d="M6771.06 2220.73C6789.16 2229.16 6814.15 2229.91 6827.04 2224.04C6839.37 2216.92 6834.22 2205.62 6816.12 2197.19C6798.01 2188.75 6773.02 2188 6760.13 2193.87C6747.23 2199.74 6752.95 2212.3 6771.06 2220.73Z" fill="white"/>
<path d="M6764.15 2251.15L6784.98 2259.86L6785.94 2230.63L6763.47 2221.15L6764.15 2251.15Z" fill="#6049E9"/>
<path opacity="0.52" d="M5969.2 2291.29C5968.83 2156.56 5800.18 2045.38 5591.68 2043.28C5384.83 2041.95 5215.75 2149.23 5216.7 2285.22C5217.07 2419.96 5385.72 2531.14 5594.21 2533.23C5802.13 2534.07 5969.56 2426.02 5969.2 2291.29Z" fill="url(#paint34_linear_2853_24)"/>
<path opacity="0.52" d="M7174.25 2314.15C7173.88 2179.42 7005.23 2068.24 6796.74 2066.14C6589.89 2064.81 6420.81 2172.1 6421.75 2308.09C6422.7 2444.08 6590.77 2554 6799.27 2556.1C7006.12 2557.43 7174.62 2448.89 7174.25 2314.15Z" fill="url(#paint35_linear_2853_24)"/>
<path opacity="0.52" d="M7174.14 3020.55C7173.77 2885.81 7005.12 2774.63 6796.62 2772.54C6589.77 2771.21 6420.7 2878.49 6421.64 3014.48C6422.01 3149.22 6590.66 3260.4 6799.15 3262.49C7007.07 3263.33 7174.51 3155.28 7174.14 3020.55Z" fill="url(#paint36_linear_2853_24)"/>
<path opacity="0.52" d="M5974.36 3014.99C5973.99 2880.25 5805.34 2769.07 5596.84 2766.98C5390 2765.65 5220.92 2872.93 5221.86 3008.92C5222.8 3144.91 5390.88 3254.83 5599.37 3256.93C5806.22 3258.26 5974.73 3149.72 5974.36 3014.99Z" fill="url(#paint37_linear_2853_24)"/>
</g>
<defs>
<linearGradient id="paint0_linear_2853_24" x1="3923.18" y1="1473.28" x2="9373.58" y2="-3190.97" gradientUnits="userSpaceOnUse">
<stop stop-color="#5941E9"/>
<stop offset="1" stop-color="#038BD5"/>
</linearGradient>
<linearGradient id="paint1_linear_2853_24" x1="1380.92" y1="7983.7" x2="11490.6" y2="-667.792" gradientUnits="userSpaceOnUse">
<stop stop-color="#5941E9"/>
<stop offset="1" stop-color="#0079C0"/>
</linearGradient>
<linearGradient id="paint2_linear_2853_24" x1="3822.71" y1="3374.21" x2="4086.91" y2="3148.12" gradientUnits="userSpaceOnUse">
<stop stop-color="#6BE2FF"/>
<stop offset="1" stop-color="#6BE2FF"/>
</linearGradient>
<linearGradient id="paint3_linear_2853_24" x1="6732.58" y1="2519.39" x2="6892.43" y2="2382.6" gradientUnits="userSpaceOnUse">
<stop stop-color="#6BE2FF"/>
<stop offset="1" stop-color="#6BE2FF"/>
</linearGradient>
<linearGradient id="paint4_linear_2853_24" x1="2501.25" y1="2988.66" x2="2701.15" y2="2817.59" gradientUnits="userSpaceOnUse">
<stop stop-color="#6BE2FF"/>
<stop offset="1" stop-color="#6BE2FF"/>
</linearGradient>
<linearGradient id="paint5_linear_2853_24" x1="7500.8" y1="271.719" x2="7706.53" y2="95.6671" gradientUnits="userSpaceOnUse">
<stop stop-color="#6BE2FF"/>
<stop offset="1" stop-color="#6BE2FF"/>
</linearGradient>
<linearGradient id="paint6_linear_2853_24" x1="4567.08" y1="2722.22" x2="4774.95" y2="2544.33" gradientUnits="userSpaceOnUse">
<stop stop-color="#6BE2FF"/>
<stop offset="1" stop-color="#6BE2FF"/>
</linearGradient>
<linearGradient id="paint7_linear_2853_24" x1="2757.5" y1="3367.57" x2="2985.24" y2="3172.68" gradientUnits="userSpaceOnUse">
<stop stop-color="#6BE2FF"/>
<stop offset="1" stop-color="#6BE2FF"/>
</linearGradient>
<linearGradient id="paint8_linear_2853_24" x1="6818.23" y1="640.018" x2="7172.55" y2="336.803" gradientUnits="userSpaceOnUse">
<stop stop-color="#6BE2FF"/>
<stop offset="1" stop-color="#6BE2FF"/>
</linearGradient>
<linearGradient id="paint9_linear_2853_24" x1="2884.34" y1="2859.69" x2="3243.95" y2="2551.95" gradientUnits="userSpaceOnUse">
<stop stop-color="#6BE2FF"/>
<stop offset="1" stop-color="#6BE2FF"/>
</linearGradient>
<linearGradient id="paint10_linear_2853_24" x1="5781.08" y1="1381.88" x2="5923.69" y2="1503.93" gradientUnits="userSpaceOnUse">
<stop stop-color="#D16DF8"/>
<stop offset="0.9996" stop-color="#2F098F"/>
</linearGradient>
<linearGradient id="paint11_linear_2853_24" x1="6561.46" y1="1474.85" x2="6704.08" y2="1596.9" gradientUnits="userSpaceOnUse">
<stop stop-color="#6450E8"/>
<stop offset="0.9996" stop-color="#2F098F"/>
</linearGradient>
<linearGradient id="paint12_linear_2853_24" x1="6581.59" y1="1125.27" x2="6724.21" y2="1247.31" gradientUnits="userSpaceOnUse">
<stop stop-color="#6450E8"/>
<stop offset="0.9996" stop-color="#2F098F"/>
</linearGradient>
<linearGradient id="paint13_linear_2853_24" x1="6885.49" y1="1099.98" x2="7028.1" y2="1222.03" gradientUnits="userSpaceOnUse">
<stop stop-color="#6450E8"/>
<stop offset="0.9996" stop-color="#2F098F"/>
</linearGradient>
<linearGradient id="paint14_linear_2853_24" x1="3134.22" y1="3989.96" x2="3276.86" y2="4112.02" gradientUnits="userSpaceOnUse">
<stop stop-color="#D16DF8"/>
<stop offset="0.9996" stop-color="#2F098F"/>
</linearGradient>
<linearGradient id="paint15_linear_2853_24" x1="1228.11" y1="3939.5" x2="1370.73" y2="4061.55" gradientUnits="userSpaceOnUse">
<stop stop-color="#D16DF8"/>
<stop offset="0.9996" stop-color="#2F098F"/>
</linearGradient>
<linearGradient id="paint16_linear_2853_24" x1="6447.69" y1="933.2" x2="6590.3" y2="1055.25" gradientUnits="userSpaceOnUse">
<stop stop-color="#6450E8"/>
<stop offset="0.9996" stop-color="#2F098F"/>
</linearGradient>
<linearGradient id="paint17_linear_2853_24" x1="2100.91" y1="3967.55" x2="2243.53" y2="4089.59" gradientUnits="userSpaceOnUse">
<stop stop-color="#6450E8"/>
<stop offset="0.9996" stop-color="#2F098F"/>
</linearGradient>
<linearGradient id="paint18_linear_2853_24" x1="1491.07" y1="3900.46" x2="2029.01" y2="3900.46" gradientUnits="userSpaceOnUse">
<stop stop-color="#59CEF8"/>
<stop offset="0.1958" stop-color="#6450E8"/>
<stop offset="0.6845" stop-color="#36119E"/>
<stop offset="0.7834" stop-color="#3E18A2"/>
<stop offset="0.9405" stop-color="#552DAE"/>
<stop offset="1" stop-color="#6036B3"/>
</linearGradient>
<linearGradient id="paint19_linear_2853_24" x1="1530.73" y1="3567.57" x2="1989.23" y2="3567.57" gradientUnits="userSpaceOnUse">
<stop stop-color="#59CEF8"/>
<stop offset="1" stop-color="#59CEF8"/>
</linearGradient>
<linearGradient id="paint20_linear_2853_24" x1="2273.19" y1="4125.29" x2="2683.1" y2="4125.29" gradientUnits="userSpaceOnUse">
<stop stop-color="#59CEF8"/>
<stop offset="0.1958" stop-color="#6450E8"/>
<stop offset="0.6845" stop-color="#36119E"/>
<stop offset="0.7834" stop-color="#3E18A2"/>
<stop offset="0.9405" stop-color="#552DAE"/>
<stop offset="1" stop-color="#6036B3"/>
</linearGradient>
<linearGradient id="paint21_linear_2853_24" x1="7254.73" y1="1394.95" x2="7612.48" y2="1394.95" gradientUnits="userSpaceOnUse">
<stop stop-color="#59CEF8"/>
<stop offset="0.1958" stop-color="#6450E8"/>
<stop offset="0.6845" stop-color="#36119E"/>
<stop offset="0.7834" stop-color="#3E18A2"/>
<stop offset="0.9405" stop-color="#552DAE"/>
<stop offset="1" stop-color="#6036B3"/>
</linearGradient>
<linearGradient id="paint22_linear_2853_24" x1="7280.22" y1="1274.69" x2="7586.88" y2="1274.69" gradientUnits="userSpaceOnUse">
<stop stop-color="#59CEF8"/>
<stop offset="1" stop-color="#59CEF8"/>
</linearGradient>
<linearGradient id="paint23_linear_2853_24" x1="6276.27" y1="1279.24" x2="6418.89" y2="1401.29" gradientUnits="userSpaceOnUse">
<stop stop-color="#D16DF8"/>
<stop offset="0.9996" stop-color="#2F098F"/>
</linearGradient>
<linearGradient id="paint24_linear_2853_24" x1="2728.12" y1="3858.02" x2="2991.32" y2="3858.02" gradientUnits="userSpaceOnUse">
<stop stop-color="#6450E8"/>
<stop offset="0.6845" stop-color="#36119E"/>
<stop offset="0.7834" stop-color="#3E18A2"/>
<stop offset="0.9405" stop-color="#552DAE"/>
<stop offset="1" stop-color="#6036B3"/>
</linearGradient>
<linearGradient id="paint25_linear_2853_24" x1="5999.93" y1="1040.41" x2="6263.12" y2="1040.41" gradientUnits="userSpaceOnUse">
<stop stop-color="#6450E8"/>
<stop offset="0.6845" stop-color="#36119E"/>
<stop offset="0.7834" stop-color="#3E18A2"/>
<stop offset="0.9405" stop-color="#552DAE"/>
<stop offset="1" stop-color="#6036B3"/>
</linearGradient>
<linearGradient id="paint26_linear_2853_24" x1="2072.14" y1="3575.3" x2="2610.08" y2="3575.3" gradientUnits="userSpaceOnUse">
<stop stop-color="#59CEF8"/>
<stop offset="0.1958" stop-color="#6450E8"/>
<stop offset="0.6845" stop-color="#36119E"/>
<stop offset="0.7834" stop-color="#3E18A2"/>
<stop offset="0.9405" stop-color="#552DAE"/>
<stop offset="1" stop-color="#6036B3"/>
</linearGradient>
<linearGradient id="paint27_linear_2853_24" x1="2117.87" y1="3242.87" x2="2564.35" y2="3242.87" gradientUnits="userSpaceOnUse">
<stop stop-color="#59CEF8"/>
<stop offset="1" stop-color="#59CEF8"/>
</linearGradient>
<linearGradient id="paint28_linear_2853_24" x1="6457.82" y1="631.965" x2="6995.75" y2="631.965" gradientUnits="userSpaceOnUse">
<stop stop-color="#59CEF8"/>
<stop offset="0.1958" stop-color="#6450E8"/>
<stop offset="0.6845" stop-color="#36119E"/>
<stop offset="0.7834" stop-color="#3E18A2"/>
<stop offset="0.9405" stop-color="#552DAE"/>
<stop offset="1" stop-color="#6036B3"/>
</linearGradient>
<linearGradient id="paint29_linear_2853_24" x1="8445.49" y1="1819.71" x2="8831.03" y2="1889.06" gradientUnits="userSpaceOnUse">
<stop stop-color="#C86DF8"/>
<stop offset="1" stop-color="#6049E9"/>
</linearGradient>
<linearGradient id="paint30_linear_2853_24" x1="4375.13" y1="5340.97" x2="7953.81" y2="5340.97" gradientUnits="userSpaceOnUse">
<stop stop-color="#59CEF8"/>
<stop offset="0.1958" stop-color="#6450E8"/>
<stop offset="0.6845" stop-color="#36119E"/>
<stop offset="0.7834" stop-color="#3E18A2"/>
<stop offset="0.9405" stop-color="#552DAE"/>
<stop offset="1" stop-color="#6036B3"/>
</linearGradient>
<linearGradient id="paint31_linear_2853_24" x1="6221.38" y1="3132.27" x2="6173.51" y2="2878.36" gradientUnits="userSpaceOnUse">
<stop stop-color="#513AE7"/>
<stop offset="0.1639" stop-color="#5641E9"/>
<stop offset="0.4089" stop-color="#6456F0"/>
<stop offset="0.5165" stop-color="#6C61F3"/>
<stop offset="0.5584" stop-color="#695CF2"/>
<stop offset="0.8266" stop-color="#5743EA"/>
<stop offset="0.989" stop-color="#513AE7"/>
</linearGradient>
<linearGradient id="paint32_linear_2853_24" x1="6192.74" y1="2884.61" x2="6250.25" y2="2405.18" gradientUnits="userSpaceOnUse">
<stop stop-color="#6D62F4"/>
<stop offset="1" stop-color="#513AE7"/>
</linearGradient>
<linearGradient id="paint33_linear_2853_24" x1="5840.81" y1="3311.77" x2="6705.13" y2="2136.9" gradientUnits="userSpaceOnUse">
<stop stop-color="#9996FF"/>
<stop offset="1" stop-color="white"/>
</linearGradient>
<linearGradient id="paint34_linear_2853_24" x1="5230.38" y1="2356.38" x2="5944.58" y2="2174.61" gradientUnits="userSpaceOnUse">
<stop stop-color="#42DAFF"/>
<stop offset="1" stop-color="white"/>
</linearGradient>
<linearGradient id="paint35_linear_2853_24" x1="6435.54" y1="2379.54" x2="7149.74" y2="2197.77" gradientUnits="userSpaceOnUse">
<stop stop-color="#42DAFF"/>
<stop offset="1" stop-color="white"/>
</linearGradient>
<linearGradient id="paint36_linear_2853_24" x1="6435.23" y1="3085.28" x2="7149.43" y2="2903.51" gradientUnits="userSpaceOnUse">
<stop stop-color="#42DAFF"/>
<stop offset="1" stop-color="white"/>
</linearGradient>
<linearGradient id="paint37_linear_2853_24" x1="5235.39" y1="3080.29" x2="5949.59" y2="2898.52" gradientUnits="userSpaceOnUse">
<stop stop-color="#42DAFF"/>
<stop offset="1" stop-color="white"/>
</linearGradient>
<clipPath id="clip0_2853_24">
<rect width="8500" height="4409" fill="white"/>
</clipPath>
</defs>
</svg>
