<svg xmlns="http://www.w3.org/2000/svg" xmlns:xlink="http://www.w3.org/1999/xlink" id="Layer_1" x="0px" y="0px" viewBox="0 0 720 319.6" style="enable-background:new 0 0 720 319.6;" xml:space="preserve"><style type="text/css">	.st0{opacity:0.79;fill:url(#SVGID_4_);enable-background:new    ;}	.st1{opacity:0.85;fill:url(#SVGID_7_);enable-background:new    ;}	.st2{fill:url(#SVGID_10_);}	.st3{clip-path:url(#SVGID_17_);}	.st4{clip-path:url(#SVGID_18_);fill:url(#SVGID_19_);}	.st5{opacity:0.52;fill:url(#SVGID_20_);enable-background:new    ;}	.st6{clip-path:url(#SVGID_23_);}	.st7{clip-path:url(#SVGID_24_);fill:url(#SVGID_25_);}	.st8{opacity:0.52;fill:url(#SVGID_26_);enable-background:new    ;}	.st9{clip-path:url(#SVGID_29_);}	.st10{clip-path:url(#SVGID_30_);fill:url(#SVGID_31_);}	.st11{opacity:0.52;fill:url(#SVGID_32_);enable-background:new    ;}	.st12{clip-path:url(#SVGID_35_);}	.st13{clip-path:url(#SVGID_36_);fill:url(#SVGID_37_);}	.st14{opacity:0.52;fill:url(#SVGID_38_);enable-background:new    ;}	.st15{clip-path:url(#SVGID_41_);}	.st16{clip-path:url(#SVGID_42_);fill:url(#SVGID_43_);}	.st17{opacity:0.52;fill:url(#SVGID_44_);enable-background:new    ;}	.st18{clip-path:url(#SVGID_47_);}	.st19{clip-path:url(#SVGID_48_);fill:url(#SVGID_49_);}	.st20{opacity:0.52;fill:url(#SVGID_50_);enable-background:new    ;}	.st21{clip-path:url(#SVGID_53_);}	.st22{clip-path:url(#SVGID_54_);fill:url(#SVGID_55_);}	.st23{opacity:0.52;fill:url(#SVGID_56_);enable-background:new    ;}	.st24{clip-path:url(#SVGID_59_);}	.st25{clip-path:url(#SVGID_60_);fill:url(#SVGID_61_);}	.st26{opacity:0.52;fill:url(#SVGID_62_);enable-background:new    ;}	.st27{fill:#6BE2FF;}	.st28{fill:#FFFFFF;}	.st29{opacity:0.27;}	.st30{fill:#210972;}	.st31{opacity:0.31;fill:#210972;enable-background:new    ;}	.st32{opacity:0.5;fill:#59CEF8;enable-background:new    ;}	.st33{fill:url(#SVGID_63_);}	.st34{fill:url(#SVGID_64_);}	.st35{fill:url(#SVGID_65_);}	.st36{fill:url(#SVGID_66_);}	.st37{fill:url(#SVGID_67_);}	.st38{fill:url(#SVGID_68_);}	.st39{fill:url(#SVGID_69_);}	.st40{fill:url(#SVGID_70_);}	.st41{fill:url(#SVGID_71_);}	.st42{fill:#31097F;}	.st43{fill:#7362F4;}	.st44{fill:#59CEF8;}	.st45{fill:url(#SVGID_72_);}	.st46{clip-path:url(#SVGID_75_);}	.st47{clip-path:url(#SVGID_76_);fill:url(#SVGID_77_);}	.st48{opacity:0.52;fill:url(#SVGID_78_);enable-background:new    ;}	.st49{fill:url(#SVGID_79_);}	.st50{fill:url(#SVGID_80_);}	.st51{clip-path:url(#SVGID_83_);}	.st52{clip-path:url(#SVGID_84_);fill:url(#SVGID_85_);}	.st53{opacity:0.52;fill:url(#SVGID_86_);enable-background:new    ;}	.st54{fill:url(#SVGID_87_);}	.st55{fill:url(#SVGID_88_);}	.st56{fill:url(#SVGID_89_);}	.st57{fill:url(#SVGID_90_);}	.st58{clip-path:url(#SVGID_93_);}	.st59{clip-path:url(#SVGID_94_);fill:url(#SVGID_95_);}	.st60{opacity:0.52;fill:url(#SVGID_96_);enable-background:new    ;}	.st61{fill:url(#SVGID_97_);}	.st62{fill:url(#SVGID_98_);}	.st63{fill:#9996FF;}	.st64{fill:#3B1CAF;}	.st65{fill:#FF2B40;}	.st66{fill:#6049E9;}	.st67{fill:#F4ECFB;}	.st68{fill:#D7B8EC;}	.st69{fill:url(#SVGID_99_);}	.st70{fill:url(#SVGID_100_);}	.st71{fill:#796DF4;}	.st72{opacity:0.52;fill:url(#SVGID_101_);enable-background:new    ;}	.st73{opacity:0.52;fill:url(#SVGID_102_);enable-background:new    ;}	.st74{opacity:0.52;fill:url(#SVGID_103_);enable-background:new    ;}	.st75{opacity:0.52;fill:url(#SVGID_104_);enable-background:new    ;}	.st76{fill:url(#SVGID_105_);}	.st77{fill:#5130D5;}	.st78{fill:#2C097F;}	.st79{fill:#1D263C;}	.st80{fill:url(#SVGID_106_);}	.st81{opacity:0.55;fill:#F4ECFB;enable-background:new    ;}</style><g id="Illustration">	<g id="BG_1_">					<linearGradient id="SVGID_4_" gradientUnits="userSpaceOnUse" x1="52.502" y1="144.806" x2="375.8676" y2="468.1716" gradientTransform="matrix(1 0 0 -1 0 427.0184)">			<stop offset="0" style="stop-color:#6049E9"></stop>			<stop offset="1" style="stop-color:#C86DF8"></stop>		</linearGradient>		<path class="st0" d="M417.2,0.2l-38.4,21.3c-22.7,12.6-34.5,32.1-31.6,52.3c2.9,20.2-12.8,39.2-39.3,47.3l-35.1,10.8   c-16.3,5-29.7,13.4-38.8,24.1l-4,4.7c-14.2,17-40.6,27.5-68.7,27.5c0,0,0,0,0,0c-8,0-15.9-0.8-23.6-2.5c-9.4-2-19.1-3.1-28.9-3.1   c-25.2,0-49.1,6.7-67.3,18.9l-41.8,28v-0.5l41.5-27.7c18.3-12.2,42.3-19,67.6-19c9.9,0,19.6,1,29.1,3.1c7.6,1.7,15.5,2.5,23.5,2.5   c0,0,0,0,0,0c27.9,0,54.1-10.5,68.2-27.4l4-4.7c9.1-10.8,22.6-19.2,39-24.3l35.1-10.8c26.3-8.1,41.9-26.9,39-46.9   c-3-20.3,8.9-40,31.8-52.7l37.9-21H417.2z"></path>		<g>							<linearGradient id="SVGID_7_" gradientUnits="userSpaceOnUse" x1="19.4557" y1="74.5491" x2="419.3468" y2="474.4404" gradientTransform="matrix(1 0 0 -1 0 427.0184)">				<stop offset="0" style="stop-color:#5941E9"></stop>				<stop offset="1" style="stop-color:#CD7CF8"></stop>			</linearGradient>			<path class="st1" d="M398.8,31.8C384.6,43,377,57.4,377,72.1c0,5.5,1.1,11.1,3.3,16.5c10.2,25.3-4,52.3-35,66.9l-36.4,17.1    c-15,7.1-26.5,17.3-32.8,29.2l-3.1,5.9c-16.4,31-60.9,50-107.4,45.8c-36.3-3.3-72.3,7.6-94.1,28.4l-39.5,37.8H-0.3v-83.2    l47.5-31.9c16.4-11,38-16.9,60-16.9c8.6,0,17.3,0.9,25.8,2.8c38.6,8.4,80.3-2.9,100.8-27.5l3.9-4.7c7.9-9.4,19.8-16.9,34-21.3    l34.5-10.7c27-8.4,44.2-27.2,44.2-47.7c0-1.8-0.1-3.5-0.4-5.3c-2.6-17.7,7.9-35.2,27.7-46.2l47.5-26.5h13.2L398.8,31.8z"></path>							<linearGradient id="SVGID_10_" gradientUnits="userSpaceOnUse" x1="116.6211" y1="-152.7379" x2="858.3617" y2="589.0025" gradientTransform="matrix(1 0 0 -1 0 427.0184)">				<stop offset="0" style="stop-color:#5941E9"></stop>				<stop offset="1" style="stop-color:#CD7CF8"></stop>			</linearGradient>			<path class="st2" d="M721,0.4v319.2H32.6l39.3-37.8c19.1-18.3,49.2-29,80.9-29c4.2,0,8.5,0.2,12.7,0.6    c46.3,4.2,90.6-14.8,106.9-45.8l3.1-5.9c6.3-11.9,17.7-22.1,32.6-29.2l36.2-17.1c24.2-11.4,38.1-30.5,38.1-50.4    c0-5.5-1-11-3.2-16.5c-8-19.9-1-41.3,18.4-56.8l39.5-31.4H721z"></path>		</g>		<g>			<g>				<g>					<defs>						<polygon id="SVGID_13_" points="62.8,-11 63.7,-11 62.8,-10.4       "></polygon>					</defs>					<defs>						<polygon id="SVGID_16_" points="60.8,-12.4 59.8,-12.4 60.8,-13.1       "></polygon>					</defs>					<clipPath id="SVGID_17_">						<use xlink:href="#SVGID_13_" style="overflow:visible;"></use>					</clipPath>					<clipPath id="SVGID_18_" class="st3">						<use xlink:href="#SVGID_16_" style="overflow:visible;"></use>					</clipPath>											<linearGradient id="SVGID_19_" gradientUnits="userSpaceOnUse" x1="323.4551" y1="181.395" x2="342.8394" y2="200.7793" gradientTransform="matrix(1 0 0 -1 0 427.0184)">						<stop offset="0" style="stop-color:#FFFFFF"></stop>						<stop offset="1" style="stop-color:#000000"></stop>					</linearGradient>					<path class="st4" d="M345.6,239.9h-24.8c-3.1,0-5.7-1.8-5.7-4l0,0c0-2.2,2.6-4,5.7-4h24.8c3.1,0,5.7,1.8,5.7,4l0,0      C351.3,238.1,348.7,239.9,345.6,239.9z"></path>				</g>			</g>							<linearGradient id="SVGID_20_" gradientUnits="userSpaceOnUse" x1="323.4551" y1="181.395" x2="342.8394" y2="200.7793" gradientTransform="matrix(1 0 0 -1 0 427.0184)">				<stop offset="0" style="stop-color:#6BE2FF"></stop>				<stop offset="1" style="stop-color:#6BE2FF"></stop>			</linearGradient>			<path class="st5" d="M345.6,239.9h-24.8c-3.1,0-5.7-1.8-5.7-4c0-2.2,2.6-4,5.7-4h24.8c3.1,0,5.7,1.8,5.7,4    C351.3,238.1,348.7,239.9,345.6,239.9z"></path>			<g>				<g>					<defs>						<polygon id="SVGID_21_" points="62.8,-11 63.7,-11 62.8,-10.4       "></polygon>					</defs>					<defs>						<polygon id="SVGID_22_" points="60.8,-12.4 59.8,-12.4 60.8,-13.1       "></polygon>					</defs>					<clipPath id="SVGID_23_">						<use xlink:href="#SVGID_21_" style="overflow:visible;"></use>					</clipPath>					<clipPath id="SVGID_24_" class="st6">						<use xlink:href="#SVGID_22_" style="overflow:visible;"></use>					</clipPath>											<linearGradient id="SVGID_25_" gradientUnits="userSpaceOnUse" x1="569.9382" y1="243.3595" x2="581.6662" y2="255.0874" gradientTransform="matrix(1 0 0 -1 0 427.0184)">						<stop offset="0" style="stop-color:#FFFFFF"></stop>						<stop offset="1" style="stop-color:#000000"></stop>					</linearGradient>					<path class="st7" d="M582.3,180.8h-12.9c-2.4,0-4.3-1.4-4.3-3l0,0c0-1.7,1.9-3,4.3-3h12.9c2.4,0,4.3,1.4,4.3,3l0,0      C586.6,179.5,584.6,180.8,582.3,180.8z"></path>				</g>			</g>							<linearGradient id="SVGID_26_" gradientUnits="userSpaceOnUse" x1="569.9382" y1="243.3595" x2="581.6662" y2="255.0874" gradientTransform="matrix(1 0 0 -1 0 427.0184)">				<stop offset="0" style="stop-color:#6BE2FF"></stop>				<stop offset="1" style="stop-color:#6BE2FF"></stop>			</linearGradient>			<path class="st8" d="M582.3,180.8h-12.9c-2.4,0-4.3-1.4-4.3-3c0-1.7,1.9-3,4.3-3h12.9c2.4,0,4.3,1.4,4.3,3    C586.6,179.5,584.6,180.8,582.3,180.8z"></path>			<g>				<g>					<defs>						<polygon id="SVGID_27_" points="62.8,-11 63.7,-11 62.8,-10.4       "></polygon>					</defs>					<defs>						<polygon id="SVGID_28_" points="60.8,-12.4 59.8,-12.4 60.8,-13.1       "></polygon>					</defs>					<clipPath id="SVGID_29_">						<use xlink:href="#SVGID_27_" style="overflow:visible;"></use>					</clipPath>					<clipPath id="SVGID_30_" class="st9">						<use xlink:href="#SVGID_28_" style="overflow:visible;"></use>					</clipPath>											<linearGradient id="SVGID_31_" gradientUnits="userSpaceOnUse" x1="211.52" y1="209.3431" x2="226.1869" y2="224.01" gradientTransform="matrix(1 0 0 -1 0 427.0184)">						<stop offset="0" style="stop-color:#FFFFFF"></stop>						<stop offset="1" style="stop-color:#000000"></stop>					</linearGradient>					<path class="st10" d="M228.2,213.4h-18.8c-2.4,0-4.3-1.4-4.3-3l0,0c0-1.7,1.9-3,4.3-3h18.8c2.4,0,4.3,1.4,4.3,3l0,0      C232.6,212,230.6,213.4,228.2,213.4z"></path>				</g>			</g>							<linearGradient id="SVGID_32_" gradientUnits="userSpaceOnUse" x1="211.52" y1="209.3431" x2="226.1869" y2="224.01" gradientTransform="matrix(1 0 0 -1 0 427.0184)">				<stop offset="0" style="stop-color:#6BE2FF"></stop>				<stop offset="1" style="stop-color:#6BE2FF"></stop>			</linearGradient>			<path class="st11" d="M228.2,213.4h-18.8c-2.4,0-4.3-1.4-4.3-3c0-1.7,1.9-3,4.3-3h18.8c2.4,0,4.3,1.4,4.3,3    C232.6,212,230.6,213.4,228.2,213.4z"></path>			<g>				<g>					<g>						<defs>							<polygon id="SVGID_33_" points="62.8,-11 63.7,-11 62.8,-10.4        "></polygon>						</defs>						<defs>							<polygon id="SVGID_34_" points="60.8,-12.4 59.8,-12.4 60.8,-13.1        "></polygon>						</defs>						<clipPath id="SVGID_35_">							<use xlink:href="#SVGID_33_" style="overflow:visible;"></use>						</clipPath>						<clipPath id="SVGID_36_" class="st12">							<use xlink:href="#SVGID_34_" style="overflow:visible;"></use>						</clipPath>													<linearGradient id="SVGID_37_" gradientUnits="userSpaceOnUse" x1="635.0117" y1="406.289" x2="650.1055" y2="421.3829" gradientTransform="matrix(1 0 0 -1 0 427.0184)">							<stop offset="0" style="stop-color:#FFFFFF"></stop>							<stop offset="1" style="stop-color:#000000"></stop>						</linearGradient>						<path class="st13" d="M652.2,16.3h-19.3c-2.4,0-4.4-1.4-4.4-3.1l0,0c0-1.7,2-3.1,4.4-3.1h19.3c2.4,0,4.4,1.4,4.4,3.1l0,0       C656.7,14.9,654.7,16.3,652.2,16.3z"></path>					</g>				</g>									<linearGradient id="SVGID_38_" gradientUnits="userSpaceOnUse" x1="635.0117" y1="406.289" x2="650.1055" y2="421.3829" gradientTransform="matrix(1 0 0 -1 0 427.0184)">					<stop offset="0" style="stop-color:#6BE2FF"></stop>					<stop offset="1" style="stop-color:#6BE2FF"></stop>				</linearGradient>				<path class="st14" d="M652.2,16.3h-19.3c-2.4,0-4.4-1.4-4.4-3.1s2-3.1,4.4-3.1h19.3c2.4,0,4.4,1.4,4.4,3.1     C656.7,14.9,654.7,16.3,652.2,16.3z"></path>				<g>					<g>						<defs>							<polygon id="SVGID_39_" points="62.8,-11 63.7,-11 62.8,-10.4        "></polygon>						</defs>						<defs>							<polygon id="SVGID_40_" points="60.8,-12.4 59.8,-12.4 60.8,-13.1        "></polygon>						</defs>						<clipPath id="SVGID_41_">							<use xlink:href="#SVGID_39_" style="overflow:visible;"></use>						</clipPath>						<clipPath id="SVGID_42_" class="st15">							<use xlink:href="#SVGID_40_" style="overflow:visible;"></use>						</clipPath>													<linearGradient id="SVGID_43_" gradientUnits="userSpaceOnUse" x1="386.508" y1="228.6568" x2="401.7595" y2="243.9083" gradientTransform="matrix(1 0 0 -1 0 427.0184)">							<stop offset="0" style="stop-color:#FFFFFF"></stop>							<stop offset="1" style="stop-color:#000000"></stop>						</linearGradient>						<path class="st16" d="M403.3,186.5c-0.3-1.9-2.6-3.4-5.4-3.4c-2.8,0-5,1.4-5.4,3.3h-6.1c-3.4,0-6.2,1.9-6.2,4.3l0,0       c0,2.4,2.8,4.3,6.2,4.3h15.4c3.4,0,6.2-1.9,6.2-4.3l0,0C408,188.7,406,187,403.3,186.5z"></path>					</g>				</g>									<linearGradient id="SVGID_44_" gradientUnits="userSpaceOnUse" x1="386.508" y1="228.6568" x2="401.7595" y2="243.9083" gradientTransform="matrix(1 0 0 -1 0 427.0184)">					<stop offset="0" style="stop-color:#6BE2FF"></stop>					<stop offset="1" style="stop-color:#6BE2FF"></stop>				</linearGradient>				<path class="st17" d="M403.3,186.5c-0.3-1.9-2.6-3.4-5.4-3.4c-2.8,0-5,1.4-5.4,3.3h-6.1c-3.4,0-6.2,1.9-6.2,4.3     c0,2.4,2.8,4.3,6.2,4.3h15.4c3.4,0,6.2-1.9,6.2-4.3C408,188.7,406,187,403.3,186.5z"></path>				<g>					<g>						<defs>							<polygon id="SVGID_45_" points="62.8,-11 63.7,-11 62.8,-10.4        "></polygon>						</defs>						<defs>							<polygon id="SVGID_46_" points="60.8,-12.4 59.8,-12.4 60.8,-13.1        "></polygon>						</defs>						<clipPath id="SVGID_47_">							<use xlink:href="#SVGID_45_" style="overflow:visible;"></use>						</clipPath>						<clipPath id="SVGID_48_" class="st18">							<use xlink:href="#SVGID_46_" style="overflow:visible;"></use>						</clipPath>													<linearGradient id="SVGID_49_" gradientUnits="userSpaceOnUse" x1="678.438" y1="199.7045" x2="695.147" y2="216.4135" gradientTransform="matrix(1 0 0 -1 0 427.0184)">							<stop offset="0" style="stop-color:#FFFFFF"></stop>							<stop offset="1" style="stop-color:#000000"></stop>						</linearGradient>						<path class="st19" d="M676.7,214.4c0.3-2.1,2.8-3.8,5.9-3.8c3,0,5.5,1.6,5.9,3.6h6.7c3.7,0,6.8,2.1,6.8,4.7l0,0       c0,2.6-3,4.7-6.8,4.7h-16.9c-3.7,0-6.8-2.1-6.8-4.7l0,0C671.6,216.7,673.8,214.9,676.7,214.4z"></path>					</g>				</g>									<linearGradient id="SVGID_50_" gradientUnits="userSpaceOnUse" x1="678.438" y1="199.7045" x2="695.147" y2="216.4135" gradientTransform="matrix(1 0 0 -1 0 427.0184)">					<stop offset="0" style="stop-color:#6BE2FF"></stop>					<stop offset="1" style="stop-color:#6BE2FF"></stop>				</linearGradient>				<path class="st20" d="M676.7,214.4c0.3-2.1,2.8-3.8,5.9-3.8c3,0,5.5,1.6,5.9,3.6h6.7c3.7,0,6.8,2.1,6.8,4.7c0,2.6-3,4.7-6.8,4.7     h-16.9c-3.7,0-6.8-2.1-6.8-4.7C671.6,216.7,673.8,214.9,676.7,214.4z"></path>				<g>					<g>						<defs>							<polygon id="SVGID_51_" points="62.8,-11 63.7,-11 62.8,-10.4        "></polygon>						</defs>						<defs>							<polygon id="SVGID_52_" points="60.8,-12.4 59.8,-12.4 60.8,-13.1        "></polygon>						</defs>						<clipPath id="SVGID_53_">							<use xlink:href="#SVGID_51_" style="overflow:visible;"></use>						</clipPath>						<clipPath id="SVGID_54_" class="st21">							<use xlink:href="#SVGID_52_" style="overflow:visible;"></use>						</clipPath>													<linearGradient id="SVGID_55_" gradientUnits="userSpaceOnUse" x1="577.1938" y1="379.5917" x2="603.1899" y2="405.588" gradientTransform="matrix(1 0 0 -1 0 427.0184)">							<stop offset="0" style="stop-color:#FFFFFF"></stop>							<stop offset="1" style="stop-color:#000000"></stop>						</linearGradient>						<path class="st22" d="M606.4,28.8h-9.8c0-3.8-4.4-7-9.9-7c-5.5,0-9.9,3.1-9.9,7H574c-4.4,0-8,2.5-8,5.6c0,3.1,3.6,5.6,8,5.6       h32.5c4.4,0,8-2.5,8-5.6C614.4,31.3,610.8,28.8,606.4,28.8z"></path>					</g>				</g>									<linearGradient id="SVGID_56_" gradientUnits="userSpaceOnUse" x1="577.1938" y1="379.5917" x2="603.1899" y2="405.588" gradientTransform="matrix(1 0 0 -1 0 427.0184)">					<stop offset="0" style="stop-color:#6BE2FF"></stop>					<stop offset="1" style="stop-color:#6BE2FF"></stop>				</linearGradient>				<path class="st23" d="M606.4,28.8h-9.8c0-3.8-4.4-7-9.9-7c-5.5,0-9.9,3.1-9.9,7H574c-4.4,0-8,2.5-8,5.6c0,3.1,3.6,5.6,8,5.6     h32.5c4.4,0,8-2.5,8-5.6C614.4,31.3,610.8,28.8,606.4,28.8z"></path>				<g>					<g>						<defs>							<polygon id="SVGID_57_" points="62.8,-11 63.7,-11 62.8,-10.4        "></polygon>						</defs>						<defs>							<polygon id="SVGID_58_" points="60.8,-12.4 59.8,-12.4 60.8,-13.1        "></polygon>						</defs>						<clipPath id="SVGID_59_">							<use xlink:href="#SVGID_57_" style="overflow:visible;"></use>						</clipPath>						<clipPath id="SVGID_60_" class="st24">							<use xlink:href="#SVGID_58_" style="overflow:visible;"></use>						</clipPath>													<linearGradient id="SVGID_61_" gradientUnits="userSpaceOnUse" x1="243.9698" y1="218.6921" x2="270.3542" y2="245.0765" gradientTransform="matrix(1 0 0 -1 0 427.0184)">							<stop offset="0" style="stop-color:#FFFFFF"></stop>							<stop offset="1" style="stop-color:#000000"></stop>						</linearGradient>						<path class="st25" d="M273.6,189.4h-9.9c0-3.9-4.5-7.1-10.1-7.1s-10.1,3.2-10.1,7.1h-2.9c-4.5,0-8.1,2.6-8.1,5.7       s3.7,5.7,8.1,5.7h32.9c4.5,0,8.1-2.6,8.1-5.7S278.1,189.4,273.6,189.4z"></path>					</g>				</g>									<linearGradient id="SVGID_62_" gradientUnits="userSpaceOnUse" x1="243.9698" y1="218.6921" x2="270.3542" y2="245.0765" gradientTransform="matrix(1 0 0 -1 0 427.0184)">					<stop offset="0" style="stop-color:#6BE2FF"></stop>					<stop offset="1" style="stop-color:#6BE2FF"></stop>				</linearGradient>				<path class="st26" d="M273.6,189.4h-9.9c0-3.9-4.5-7.1-10.1-7.1s-10.1,3.2-10.1,7.1h-2.9c-4.5,0-8.1,2.6-8.1,5.7     s3.7,5.7,8.1,5.7h32.9c4.5,0,8.1-2.6,8.1-5.7S278.1,189.4,273.6,189.4z"></path>			</g>		</g>		<g>			<rect x="248.9" y="209" class="st27" width="36.4" height="0.4"></rect>			<rect x="307.2" y="256.8" class="st27" width="28.8" height="0.4"></rect>			<rect x="272.5" y="250.5" class="st27" width="54.6" height="0.4"></rect>			<rect x="175.4" y="222.2" class="st27" width="29.3" height="0.4"></rect>			<rect x="548.2" y="186.7" class="st27" width="29.3" height="0.4"></rect>			<rect x="652.4" y="231.3" class="st27" width="42.5" height="0.4"></rect>			<rect x="593.3" y="42.5" class="st27" width="41.8" height="0.4"></rect>		</g>		<path class="st28" d="M431.8,0.4l-34.9,23.4c-7.8,5.2-14.1,11-18.7,17.1c-11.2,15-13.7,32.3-7,48.7c9.3,22.8-3.5,46.9-32,60   l-37.1,17.1c-17,7.8-29.7,19-36.9,32.2l-3.2,5.9c-13.7,25.3-49,42.3-88,42.3c-4,0-8-0.2-11.9-0.5c-4.7-0.4-9.5-0.6-14.2-0.6   c-35.4,0-69.1,11.8-90.1,31.5l-44.8,42h-0.7l45.1-42.2c21.1-19.8,54.9-31.6,90.5-31.6c4.7,0,9.5,0.2,14.2,0.6   c3.9,0.3,7.9,0.5,11.9,0.5c38.8,0,74-16.9,87.6-42.1l3.2-5.9c7.2-13.3,20-24.5,37.1-32.4l37.1-17.1c28.3-13,41.1-37,31.8-59.6   c-6.8-16.5-4.3-33.9,7-49c4.6-6.2,10.9-12,18.7-17.2L431,0.4H431.8z"></path>	</g>	<g>		<g class="st29">			<path class="st30" d="M403.1,205c-2.1-1-4.6-1-6.7,0l-13.6,6.5c-1.1,0.5-1.7,1.5-1.7,2.4l0,0.1c0,1.3,0.9,2.5,2.2,3.2l13.1,6.1    c2.1,1,4.6,1,6.6,0l14.6-6.8c2-0.9,2.1-3.3,0.1-4.3L403.1,205z"></path>			<path class="st30" d="M514.1,259.9c-2.7-1.3-6.1-1.3-8.8,0l-18,8.6c-1.5,0.7-2.2,1.9-2.2,3.2l0,0.2c0,1.7,1.1,3.3,3,4.2l17.3,8.1    c2.7,1.3,6,1.3,8.8,0l19.3-8.9c2.6-1.2,2.7-4.3,0.1-5.6L514.1,259.9z"></path>			<path class="st30" d="M490.4,239c-2.7-1.3-6.1-1.3-8.8,0l-18,8.6c-1.5,0.7-2.2,1.9-2.2,3.2l0,0.2c0,1.7,1.1,3.3,3,4.2l17.3,8.1    c2.7,1.3,6,1.3,8.8,0l19.3-8.9c2.6-1.2,2.7-4.3,0.1-5.6L490.4,239z"></path>			<path class="st30" d="M585.4,256.6c-2.7-1.3-6.1-1.3-8.8,0l-18,8.6c-1.5,0.7-2.2,1.9-2.2,3.2l0,0.2c0,1.7,1.1,3.3,3,4.2    l26.1,12.4c2.7,1.3,6,1.3,8.8,0l19.3-8.9c2.6-1.2,2.7-4.3,0.1-5.6L585.4,256.6z"></path>			<path class="st30" d="M536.7,235.3c-2.7-1.3-6.1-1.3-8.8,0l-18,8.6c-1.5,0.7-2.2,1.9-2.2,3.2l0,0.2c0,1.7,1.1,3.3,3,4.2    l27.5,13.3c2.7,1.3,6,1.3,8.8,0l19.3-8.9c2.6-1.2,2.7-4.3,0.1-5.6L536.7,235.3z"></path>			<path class="st30" d="M627.4,251.2c-1.5-0.7-3.5-0.7-5,0l-10.2,4.8c-0.8,0.4-1.3,1.1-1.3,1.8l0,0.1c0,1,0.6,1.9,1.7,2.4    l27.7,13.4c1.5,0.7,3.4,0.7,5,0l11-5.1c1.5-0.7,1.5-2.5,0.1-3.2L627.4,251.2z"></path>			<path class="st30" d="M449,179.4c-1.9-0.9-4.3-0.9-6.2,0l-12.6,6c-1,0.5-1.6,1.4-1.5,2.2l0,0.1c0,1.2,0.8,2.3,2.1,3l12.1,5.7    c1.9,0.9,4.2,0.9,6.1,0l13.6-6.3c1.9-0.9,1.9-3,0.1-3.9L449,179.4z"></path>		</g>		<path class="st31" d="M420.7,256.4c3.2-1.3,3.3-3.7,0.1-5.1c-2.9-1.3-7.3-1.6-10.5-0.7l-4.8-2.4c-0.4-0.2-1-0.2-1.4-0.1   c-0.4,0.1-0.4,0.4-0.1,0.6l4.8,2.4c-2.6,1.3-2.6,3.3,0.3,4.8C412.1,257.4,417.4,257.7,420.7,256.4z"></path>		<path class="st31" d="M453.1,269.7c3.2-1.3,3.3-3.7,0.1-5.1c-2.9-1.3-7.3-1.6-10.5-0.7l-4.8-2.4c-0.4-0.2-1-0.2-1.4-0.1   c-0.4,0.1-0.4,0.4-0.1,0.6l4.8,2.4c-2.6,1.3-2.6,3.3,0.3,4.8C444.6,270.7,449.9,271,453.1,269.7z"></path>		<path class="st31" d="M550.7,289.8c3.2-1.3,3.3-3.7,0.1-5.1c-2.9-1.3-7.3-1.6-10.5-0.7l-4.8-2.4c-0.4-0.2-1-0.2-1.4-0.1   c-0.4,0.1-0.4,0.4-0.1,0.6l4.8,2.4c-2.6,1.3-2.6,3.3,0.3,4.8C542.2,290.8,547.4,291.1,550.7,289.8z"></path>		<path class="st31" d="M659.1,251.7c3.2-1.3,3.3-3.7,0.1-5.1c-2.9-1.3-7.3-1.6-10.5-0.7l-4.8-2.4c-0.4-0.2-1-0.2-1.4-0.1   c-0.4,0.1-0.4,0.4-0.1,0.6l4.8,2.4c-2.6,1.3-2.6,3.3,0.3,4.8C650.6,252.7,655.8,253,659.1,251.7z"></path>		<path class="st31" d="M623.4,289.9c3.2-1.3,3.3-3.7,0.1-5.1c-2.9-1.3-7.3-1.6-10.5-0.7l-4.8-2.4c-0.4-0.2-1-0.2-1.4-0.1   c-0.4,0.1-0.4,0.4-0.1,0.6l4.8,2.4c-2.6,1.3-2.6,3.3,0.3,4.8C614.9,290.9,620.1,291.2,623.4,289.9z"></path>		<path class="st31" d="M595.4,208.7c3.2-1.3,3.3-3.7,0.1-5.1c-2.9-1.3-7.3-1.6-10.5-0.7l-4.8-2.4c-0.4-0.2-1-0.2-1.4-0.1   c-0.4,0.1-0.4,0.4-0.1,0.6l4.8,2.4c-2.6,1.3-2.6,3.3,0.3,4.8C586.9,209.8,592.1,210,595.4,208.7z"></path>		<path class="st31" d="M581.4,214.9c3.2-1.3,3.3-3.7,0.1-5.1c-2.9-1.3-7.3-1.6-10.5-0.7l-4.8-2.4c-0.4-0.2-1-0.2-1.4-0.1   c-0.4,0.1-0.4,0.4-0.1,0.6l4.8,2.4c-2.6,1.3-2.6,3.3,0.3,4.8C572.8,216,578.1,216.2,581.4,214.9z"></path>		<path class="st31" d="M615,235.3c3.2-1.3,3.3-3.7,0.1-5.1c-2.9-1.3-7.3-1.6-10.5-0.7l-4.8-2.4c-0.4-0.2-1-0.2-1.4-0.1   c-0.4,0.1-0.4,0.4-0.1,0.6l4.8,2.4c-2.6,1.3-2.6,3.3,0.3,4.8C606.5,236.3,611.7,236.6,615,235.3z"></path>		<path class="st31" d="M442.2,237.8c3.2-1.3,3.3-3.7,0.1-5.1c-2.9-1.3-7.3-1.6-10.5-0.7l-4.8-2.4c-0.4-0.2-1-0.2-1.4-0.1   c-0.4,0.1-0.4,0.4-0.1,0.6l4.8,2.4c-2.6,1.3-2.6,3.3,0.3,4.8C433.7,238.8,438.9,239.1,442.2,237.8z"></path>		<g>			<path class="st32" d="M639.9,254.3c0,1.4-0.9,2.7-2.4,3.4l-45.8,21.5c-0.9,0.4-1.4,1.1-1.4,1.9c0,0.8,0.5,1.5,1.3,1.9l35.6,16.8    h-4l-32.6-15.3c-1.5-0.7-2.4-2-2.4-3.4c0-1.4,0.9-2.7,2.4-3.4l45.8-21.5c0.9-0.4,1.4-1.1,1.4-1.9c0-0.8-0.5-1.5-1.4-1.9    l-73.4-34.4c-1.5-0.7-2.4-1.9-2.4-3.4c0-1.4,0.9-2.7,2.4-3.4l21.2-10.1c0.8-0.4,1.4-1.1,1.4-1.9c0-0.8-0.5-1.5-1.3-1.9l-18.2-9    c-2.2-1.1-5-1.1-7.2,0l-37.7,18.2c-3.4,1.6-7.5,1.6-10.9,0L449,177.2c-2.1-1-4.7-1-6.8,0l-18.7,8.8c-0.8,0.4-1.4,1.1-1.4,1.9    c0,0.8,0.5,1.5,1.4,1.9l45.2,21.3c1.5,0.7,2.4,1.9,2.4,3.4c0,1.4-0.9,2.7-2.4,3.4l-45.1,21.5c-0.8,0.4-1.3,1.1-1.3,1.9    c0,0.8,0.5,1.5,1.3,1.9l30.8,14.8c1.5,0.7,2.4,2,2.3,3.4c0,1.4-0.9,2.7-2.4,3.4l-31.4,14.8c-3.5,1.7-7.9,1.7-11.4,0.1l-4.6-2.1    c-2.2-1-5-1-7.3,0l-47.5,22.4h-4.1l50.6-23.9c2.8-1.3,6.4-1.4,9.3,0l4.6,2.1c2.9,1.3,6.5,1.3,9.4,0l31.4-14.8    c0.8-0.4,1.4-1.1,1.4-1.9c0-0.8-0.5-1.5-1.3-1.9l-30.8-14.8c-1.5-0.7-2.3-2-2.3-3.4c0-1.4,0.9-2.6,2.4-3.4l45.1-21.5    c0.8-0.4,1.4-1.1,1.4-1.9c0-0.8-0.5-1.5-1.4-1.9l-45.2-21.3c-1.5-0.7-2.4-2-2.4-3.4c0-1.4,0.9-2.7,2.4-3.4l18.7-8.8    c2.7-1.3,6.1-1.3,8.8,0l61.3,29.4c2.7,1.3,6.1,1.3,8.9,0l37.7-18.2c2.9-1.4,6.4-1.3,9.2,0l18.2,9c1.5,0.7,2.3,2,2.3,3.4    c0,1.4-0.9,2.6-2.4,3.3l-21.2,10.1c-0.9,0.4-1.4,1.1-1.4,1.9c0,0.8,0.5,1.5,1.4,1.9l73.4,34.4C639,251.6,639.9,252.9,639.9,254.3    z"></path>							<linearGradient id="SVGID_63_" gradientUnits="userSpaceOnUse" x1="559.9677" y1="235.0452" x2="570.4313" y2="224.5815" gradientTransform="matrix(1 0 0 -1 0 427.0184)">				<stop offset="0" style="stop-color:#D16DF8"></stop>				<stop offset="0.9996" style="stop-color:#2F098F"></stop>			</linearGradient>			<path class="st33" d="M572.3,195.9c0-3.2-3.2-5.9-7.2-5.8c-3.9,0-7.1,2.9-7,6.1c0.2,2.9,2.8,5.2,6.2,5.5v5c0,0.4,0.4,0.7,0.8,0.7    c0.5,0,0.8-0.3,0.8-0.7v-5C569.5,201.3,572.3,198.8,572.3,195.9z"></path>							<linearGradient id="SVGID_64_" gradientUnits="userSpaceOnUse" x1="574.1006" y1="241.1746" x2="584.5643" y2="230.711" gradientTransform="matrix(1 0 0 -1 0 427.0184)">				<stop offset="0" style="stop-color:#6450E8"></stop>				<stop offset="0.9996" style="stop-color:#2F098F"></stop>			</linearGradient>			<path class="st34" d="M586.4,189.7c0-3.2-3.2-5.9-7.2-5.8c-3.9,0-7.1,2.9-7,6.1c0.2,2.9,2.8,5.2,6.2,5.5v5c0,0.4,0.4,0.7,0.8,0.7    c0.5,0,0.8-0.3,0.8-0.7v-5C583.7,195.1,586.4,192.7,586.4,189.7z"></path>							<linearGradient id="SVGID_65_" gradientUnits="userSpaceOnUse" x1="593.7112" y1="214.517" x2="604.1748" y2="204.0533" gradientTransform="matrix(1 0 0 -1 0 427.0184)">				<stop offset="0" style="stop-color:#6450E8"></stop>				<stop offset="0.9996" style="stop-color:#2F098F"></stop>			</linearGradient>			<path class="st35" d="M606,216.4c0-3.2-3.2-5.9-7.2-5.8c-3.9,0-7.1,2.9-7,6.1c0.2,2.9,2.8,5.2,6.2,5.5v5c0,0.4,0.4,0.7,0.8,0.7    c0.5,0,0.8-0.3,0.8-0.7v-5C603.3,221.8,606,219.4,606,216.4z"></path>							<linearGradient id="SVGID_66_" gradientUnits="userSpaceOnUse" x1="601.9024" y1="160.0654" x2="612.3661" y2="149.6017" gradientTransform="matrix(1 0 0 -1 0 427.0184)">				<stop offset="0" style="stop-color:#6450E8"></stop>				<stop offset="0.9996" style="stop-color:#2F098F"></stop>			</linearGradient>			<path class="st36" d="M614.2,270.8c0-3.2-3.2-5.9-7.2-5.8c-3.9,0-7.1,2.9-7,6.1c0.2,2.9,2.8,5.2,6.2,5.5v5c0,0.4,0.4,0.7,0.8,0.7    c0.5,0,0.8-0.3,0.8-0.7v-5C611.5,276.3,614.2,273.8,614.2,270.8z"></path>							<linearGradient id="SVGID_67_" gradientUnits="userSpaceOnUse" x1="529.38" y1="160.0671" x2="539.8453" y2="149.6017" gradientTransform="matrix(1 0 0 -1 0 427.0184)">				<stop offset="0" style="stop-color:#D16DF8"></stop>				<stop offset="0.9996" style="stop-color:#2F098F"></stop>			</linearGradient>			<path class="st37" d="M541.7,270.8c0-3.2-3.2-5.9-7.2-5.8c-3.9,0-7.1,2.9-7,6.1c0.2,2.9,2.8,5.2,6.2,5.5v5c0,0.4,0.4,0.7,0.8,0.7    c0.5,0,0.8-0.3,0.8-0.7v-5C538.9,276.3,541.7,273.8,541.7,270.8z"></path>							<linearGradient id="SVGID_68_" gradientUnits="userSpaceOnUse" x1="399.2705" y1="193.4998" x2="409.7341" y2="183.0361" gradientTransform="matrix(1 0 0 -1 0 427.0184)">				<stop offset="0" style="stop-color:#D16DF8"></stop>				<stop offset="0.9996" style="stop-color:#2F098F"></stop>			</linearGradient>			<path class="st38" d="M404.4,231.6c-3.9,0-7.1,2.9-7,6.1c0.2,2.9,2.8,5.2,6.2,5.5v5c0,0.4,0.4,0.7,0.8,0.7c0.5,0,0.8-0.3,0.8-0.7    v-5c3.5-0.3,6.2-2.8,6.2-5.8C411.6,234.2,408.3,231.5,404.4,231.6z"></path>							<linearGradient id="SVGID_69_" gradientUnits="userSpaceOnUse" x1="420.8194" y1="212.1467" x2="431.2831" y2="201.6831" gradientTransform="matrix(1 0 0 -1 0 427.0184)">				<stop offset="0" style="stop-color:#6450E8"></stop>				<stop offset="0.9996" style="stop-color:#2F098F"></stop>			</linearGradient>			<path class="st39" d="M425.9,212.9c-3.9,0-7.1,2.9-7,6.1c0.2,2.9,2.8,5.2,6.2,5.5v5c0,0.4,0.4,0.7,0.8,0.7c0.5,0,0.8-0.3,0.8-0.7    v-5c3.5-0.3,6.2-2.8,6.2-5.8C433.1,215.5,429.9,212.9,425.9,212.9z"></path>							<linearGradient id="SVGID_70_" gradientUnits="userSpaceOnUse" x1="431.7537" y1="180.1966" x2="442.2174" y2="169.733" gradientTransform="matrix(1 0 0 -1 0 427.0184)">				<stop offset="0" style="stop-color:#6450E8"></stop>				<stop offset="0.9996" style="stop-color:#2F098F"></stop>			</linearGradient>			<path class="st40" d="M436.9,244.9c-3.9,0-7.1,2.9-7,6.1c0.2,2.9,2.8,5.2,6.2,5.5v5c0,0.4,0.4,0.7,0.8,0.7c0.5,0,0.8-0.3,0.8-0.7    v-5c3.5-0.3,6.2-2.8,6.2-5.8C444,247.5,440.8,244.8,436.9,244.9z"></path>			<g>									<linearGradient id="SVGID_71_" gradientUnits="userSpaceOnUse" x1="493.6022" y1="208.9257" x2="555.4199" y2="208.9257" gradientTransform="matrix(1 0 0 -1 0 427.0184)">					<stop offset="0" style="stop-color:#59CEF8"></stop>					<stop offset="0.1958" style="stop-color:#6450E8"></stop>					<stop offset="0.6845" style="stop-color:#36119E"></stop>					<stop offset="0.7834" style="stop-color:#3E18A2"></stop>					<stop offset="0.9405" style="stop-color:#552DAE"></stop>					<stop offset="1" style="stop-color:#6036B3"></stop>				</linearGradient>				<path class="st41" d="M555.4,179.8v60.3c0,2.2-1.4,4.2-3.7,5.3L530,255.6c-3.4,1.6-7.6,1.6-11,0l-21.7-10.2     c-2.3-1.1-3.7-3.1-3.7-5.3v-60.7l22.3,12.4c5.2,2.9,12.1,2.9,17.3,0L555.4,179.8z"></path>				<path class="st42" d="M551.7,191.9L530,202.1c-3.4,1.6-7.6,1.6-11,0l-21.7-10.2c-2.3-1.1-3.7-3.1-3.7-5.3v1.5     c0,2.2,1.4,4.2,3.7,5.3l21.7,10.2c3.4,1.6,7.6,1.6,11,0l21.7-10.2c2.3-1.1,3.7-3.1,3.7-5.3v-1.5     C555.4,188.8,554,190.8,551.7,191.9z"></path>				<path class="st43" d="M496.4,175.4l22.6-10.7c3.4-1.6,7.7-1.6,11.1,0l22.6,10.7c3.7,1.8,3.7,6.1,0,7.9L530,194     c-3.4,1.6-7.7,1.6-11.1,0l-22.6-10.7C492.7,181.6,492.7,177.2,496.4,175.4z"></path>				<path class="st44" d="M524.5,192.7c-1.5,0-3-0.3-4.3-1l-20.9-9.9c-1.1-0.5-1.8-1.5-1.8-2.5s0.7-2,1.8-2.5l20.9-9.9     c2.6-1.2,6-1.2,8.6,0l20.9,9.9c1.1,0.5,1.8,1.5,1.8,2.5c0,1-0.7,2-1.8,2.5l-20.9,9.9C527.5,192.4,526,192.7,524.5,192.7z      M524.5,166.4c-1.4,0-2.8,0.3-4.1,0.9l-20.9,9.9c-0.9,0.4-1.5,1.2-1.5,2.1c0,0.9,0.6,1.7,1.5,2.1l20.9,9.9     c2.5,1.2,5.7,1.2,8.1,0l20.9-9.9c0.9-0.4,1.5-1.2,1.5-2.1c0-0.9-0.6-1.7-1.5-2.1l-20.9-9.9C527.3,166.7,525.9,166.4,524.5,166.4     z"></path>				<g>					<path class="st44" d="M513.9,208.3l-11.3-5.3c-1-0.5-2.2-0.2-2.6,0.6c-0.4,0.8,0.2,1.9,1.2,2.4l11.3,5.3c1,0.5,2.2,0.2,2.6-0.6      C515.5,209.8,515,208.8,513.9,208.3z"></path>					<path class="st44" d="M513.9,216.1l-11.3-5.3c-1-0.5-2.2-0.2-2.6,0.6c-0.4,0.8,0.2,1.9,1.2,2.4l11.3,5.3c1,0.5,2.2,0.2,2.6-0.6      C515.5,217.6,515,216.6,513.9,216.1z"></path>					<path class="st44" d="M513.9,223.9l-11.3-5.3c-1-0.5-2.2-0.2-2.6,0.6c-0.4,0.8,0.2,1.9,1.2,2.4l11.3,5.3c1,0.5,2.2,0.2,2.6-0.6      C515.5,225.4,515,224.4,513.9,223.9z"></path>					<path class="st44" d="M513.9,231.7l-11.3-5.3c-1-0.5-2.2-0.2-2.6,0.6c-0.4,0.8,0.2,1.9,1.2,2.4l11.3,5.3c1,0.5,2.2,0.2,2.6-0.6      C515.5,233.3,515,232.2,513.9,231.7z"></path>					<path class="st44" d="M513.9,239.5l-11.3-5.3c-1-0.5-2.2-0.2-2.6,0.6c-0.4,0.8,0.2,1.9,1.2,2.4l11.3,5.3c1,0.5,2.2,0.2,2.6-0.6      C515.5,241.1,515,240,513.9,239.5z"></path>				</g>				<g>					<path class="st42" d="M535.7,208.3l11.3-5.3c1-0.5,2.2-0.2,2.6,0.6c0.4,0.8-0.2,1.9-1.2,2.4l-11.3,5.3c-1,0.5-2.2,0.2-2.6-0.6      C534.2,209.8,534.7,208.8,535.7,208.3z"></path>					<path class="st42" d="M535.7,216.1l11.3-5.3c1-0.5,2.2-0.2,2.6,0.6c0.4,0.8-0.2,1.9-1.2,2.4l-11.3,5.3c-1,0.5-2.2,0.2-2.6-0.6      C534.2,217.6,534.7,216.6,535.7,216.1z"></path>					<path class="st42" d="M535.7,223.9l11.3-5.3c1-0.5,2.2-0.2,2.6,0.6c0.4,0.8-0.2,1.9-1.2,2.4l-11.3,5.3c-1,0.5-2.2,0.2-2.6-0.6      C534.2,225.4,534.7,224.4,535.7,223.9z"></path>					<path class="st42" d="M535.7,231.7l11.3-5.3c1-0.5,2.2-0.2,2.6,0.6c0.4,0.8-0.2,1.9-1.2,2.4l-11.3,5.3c-1,0.5-2.2,0.2-2.6-0.6      C534.2,233.3,534.7,232.2,535.7,231.7z"></path>					<path class="st42" d="M535.7,239.5l11.3-5.3c1-0.5,2.2-0.2,2.6,0.6c0.4,0.8-0.2,1.9-1.2,2.4l-11.3,5.3c-1,0.5-2.2,0.2-2.6-0.6      C534.2,241.1,534.7,240,535.7,239.5z"></path>				</g>			</g>			<g>				<g>											<linearGradient id="SVGID_72_" gradientUnits="userSpaceOnUse" x1="544.9287" y1="175.418" x2="590.4949" y2="175.418" gradientTransform="matrix(1 0 0 -1 0 427.0184)">						<stop offset="0" style="stop-color:#59CEF8"></stop>						<stop offset="0.1958" style="stop-color:#6450E8"></stop>						<stop offset="0.6845" style="stop-color:#36119E"></stop>						<stop offset="0.7834" style="stop-color:#3E18A2"></stop>						<stop offset="0.9405" style="stop-color:#552DAE"></stop>						<stop offset="1" style="stop-color:#6036B3"></stop>					</linearGradient>					<path class="st45" d="M590.5,227.8v35.7c0,1.6-1,3.1-2.7,3.9l-16,7.5c-2.5,1.2-5.6,1.2-8.1,0l-16-7.5c-1.7-0.8-2.7-2.3-2.7-3.9      v-35.9l16.4,9.1c3.8,2.2,8.9,2.2,12.8,0L590.5,227.8z"></path>					<path class="st43" d="M547,224.6l16.7-7.9c2.5-1.2,5.6-1.2,8.2,0l16.7,7.9c2.7,1.3,2.7,4.5,0,5.8l-16.7,7.9      c-2.5,1.2-5.6,1.2-8.2,0l-16.7-7.9C544.3,229.1,544.3,225.8,547,224.6z"></path>					<g>						<g>							<defs>								<polygon id="SVGID_73_" points="48.8,-72.6 49.8,-72.6 48.8,-71.8         "></polygon>							</defs>							<defs>								<polygon id="SVGID_74_" points="46.7,-74.3 45.7,-74.3 46.7,-75.1         "></polygon>							</defs>							<clipPath id="SVGID_75_">								<use xlink:href="#SVGID_73_" style="overflow:visible;"></use>							</clipPath>							<clipPath id="SVGID_76_" class="st46">								<use xlink:href="#SVGID_74_" style="overflow:visible;"></use>							</clipPath>															<linearGradient id="SVGID_77_" gradientUnits="userSpaceOnUse" x1="548.2878" y1="199.549" x2="587.1256" y2="199.549" gradientTransform="matrix(1 0 0 -1 0 427.0184)">								<stop offset="0" style="stop-color:#FFFFFF"></stop>								<stop offset="1" style="stop-color:#000000"></stop>							</linearGradient>							<path class="st47" d="M567.7,237c-1,0-2.1-0.2-3-0.7l-15.4-7.3c-1-0.5-1.1-1.2-1.1-1.5s0.1-1.1,1.1-1.5l15.4-7.3        c1.8-0.9,4.1-0.9,5.9,0l15.4,7.3c1,0.5,1.1,1.2,1.1,1.5s-0.1,1.1-1.1,1.5l-15.4,7.3C569.8,236.7,568.8,237,567.7,237z         M567.7,218.4c-0.9,0-1.9,0.2-2.7,0.6l-15.4,7.3c-0.7,0.4-0.8,0.9-0.8,1.2s0.1,0.8,0.8,1.2l15.4,7.3c1.6,0.8,3.8,0.8,5.4,0        l15.4-7.3c0.7-0.4,0.8-0.9,0.8-1.2s-0.1-0.8-0.8-1.2l-15.4-7.3C569.6,218.6,568.7,218.4,567.7,218.4z"></path>						</g>					</g>											<linearGradient id="SVGID_78_" gradientUnits="userSpaceOnUse" x1="548.2878" y1="199.549" x2="587.1256" y2="199.549" gradientTransform="matrix(1 0 0 -1 0 427.0184)">						<stop offset="0" style="stop-color:#59CEF8"></stop>						<stop offset="1" style="stop-color:#59CEF8"></stop>					</linearGradient>					<path class="st48" d="M567.7,237c-1,0-2.1-0.2-3-0.7l-15.4-7.3c-1-0.5-1.1-1.2-1.1-1.5s0.1-1.1,1.1-1.5l15.4-7.3      c1.8-0.9,4.1-0.9,5.9,0l15.4,7.3c1,0.5,1.1,1.2,1.1,1.5s-0.1,1.1-1.1,1.5l-15.4,7.3C569.8,236.7,568.8,237,567.7,237z       M567.7,218.4c-0.9,0-1.9,0.2-2.7,0.6l-15.4,7.3c-0.7,0.4-0.8,0.9-0.8,1.2s0.1,0.8,0.8,1.2l15.4,7.3c1.6,0.8,3.8,0.8,5.4,0      l15.4-7.3c0.7-0.4,0.8-0.9,0.8-1.2s-0.1-0.8-0.8-1.2l-15.4-7.3C569.6,218.6,568.7,218.4,567.7,218.4z"></path>				</g>				<g>					<path class="st42" d="M580.4,241.1c-0.4-0.8-1.5-1.1-2.6-0.6l-6.5,3.1c-2.2,1.1-5,1.1-7.2,0l-6.5-3.1c-1-0.5-2.2-0.2-2.6,0.6      c-0.4,0.8,0.2,1.9,1.2,2.4l7.9,3.7c2.2,1.1,5,1.1,7.2,0l7.9-3.7C580.3,243,580.8,241.9,580.4,241.1z"></path>					<path class="st42" d="M580.4,248.3c-0.4-0.8-1.5-1.1-2.6-0.6l-6.5,3.1c-2.2,1.1-5,1.1-7.2,0l-6.5-3.1c-1-0.5-2.2-0.2-2.6,0.6      c-0.4,0.8,0.2,1.9,1.2,2.4l7.9,3.7c2.2,1.1,5,1.1,7.2,0l7.9-3.7C580.3,250.1,580.8,249.1,580.4,248.3z"></path>					<path class="st42" d="M580.4,255.5c-0.4-0.8-1.5-1.1-2.6-0.6l-6.5,3.1c-2.2,1.1-5,1.1-7.2,0l-6.5-3.1c-1-0.5-2.2-0.2-2.6,0.6      c-0.4,0.8,0.2,1.9,1.2,2.4l7.9,3.7c2.2,1.1,5,1.1,7.2,0l7.9-3.7C580.3,257.3,580.8,256.3,580.4,255.5z"></path>					<path class="st42" d="M580.4,262.6c-0.4-0.8-1.5-1.1-2.6-0.6l-6.5,3.1c-2.2,1.1-5,1.1-7.2,0l-6.5-3.1c-1-0.5-2.2-0.2-2.6,0.6      c-0.4,0.8,0.2,1.9,1.2,2.4l7.9,3.7c2.2,1.1,5,1.1,7.2,0l7.9-3.7C580.3,264.5,580.8,263.4,580.4,262.6z"></path>				</g>			</g>			<g>				<g>											<linearGradient id="SVGID_79_" gradientUnits="userSpaceOnUse" x1="377.3007" y1="215.2531" x2="412.0227" y2="215.2531" gradientTransform="matrix(1 0 0 -1 0 427.0184)">						<stop offset="0" style="stop-color:#59CEF8"></stop>						<stop offset="0.1958" style="stop-color:#6450E8"></stop>						<stop offset="0.6845" style="stop-color:#36119E"></stop>						<stop offset="0.7834" style="stop-color:#3E18A2"></stop>						<stop offset="0.9405" style="stop-color:#552DAE"></stop>						<stop offset="1" style="stop-color:#6036B3"></stop>					</linearGradient>					<path class="st49" d="M412,202v10.4c0,1.2-0.8,2.4-2.1,3l-12.2,5.7c-1.9,0.9-4.3,0.9-6.2,0l-12.2-5.7c-1.3-0.6-2.1-1.7-2.1-3      v-10.6l12.5,7c2.9,1.7,6.8,1.7,9.7,0L412,202z"></path>					<path class="st43" d="M378.8,199.5l12.7-6c1.9-0.9,4.3-0.9,6.2,0l12.7,6c2.1,1,2.1,3.5,0,4.4l-12.7,6c-1.9,0.9-4.3,0.9-6.2,0      l-12.7-6C376.8,203,376.8,200.5,378.8,199.5z"></path>					<path class="st44" d="M394.7,209c-0.8,0-1.6-0.2-2.3-0.5l-11.7-5.6c-0.8-0.4-0.8-1-0.8-1.2c0-0.2,0.1-0.9,0.8-1.2l11.7-5.6      c1.4-0.7,3.2-0.7,4.6,0l11.7,5.6c0.8,0.4,0.8,1,0.8,1.2c0,0.2-0.1,0.8-0.8,1.2l-11.7,5.6C396.2,208.9,395.5,209,394.7,209z       M394.7,194.9c-0.7,0-1.4,0.2-2,0.4l-11.7,5.6c-0.5,0.3-0.6,0.7-0.6,0.9s0.1,0.6,0.6,0.9l11.7,5.6c1.2,0.6,2.8,0.6,4.1,0      l11.7-5.6c0.5-0.3,0.6-0.7,0.6-0.9s-0.1-0.6-0.6-0.9l-11.7-5.6C396.1,195,395.4,194.9,394.7,194.9z"></path>				</g>				<path class="st42" d="M400.1,212.5c-0.2-0.4-0.7-0.5-1.1-0.3l-2.9,1.4c-1,0.5-2.2,0.5-3.2,0l-2.9-1.4c-0.5-0.2-1-0.1-1.2,0.3     c-0.2,0.4,0.1,0.8,0.5,1.1l3.5,1.7c1,0.5,2.2,0.5,3.2,0l3.5-1.7C400,213.3,400.3,212.9,400.1,212.5z"></path>				<path class="st42" d="M400.1,216.1c-0.2-0.4-0.7-0.5-1.1-0.3l-2.9,1.4c-1,0.5-2.2,0.5-3.2,0l-2.9-1.4c-0.5-0.2-1-0.1-1.2,0.3     c-0.2,0.4,0.1,0.8,0.5,1.1l3.5,1.7c1,0.5,2.2,0.5,3.2,0l3.5-1.7C400,217,400.3,216.5,400.1,216.1z"></path>				<path class="st42" d="M386.2,210.2l-5.2-2.5c-0.5-0.2-1-0.1-1.1,0.3c-0.2,0.4,0.1,0.8,0.5,1l5.2,2.5c0.5,0.2,1,0.1,1.1-0.3     C386.9,210.9,386.6,210.5,386.2,210.2z"></path>				<path class="st42" d="M386.2,214.1l-5.2-2.5c-0.5-0.2-1-0.1-1.1,0.3c-0.2,0.4,0.1,0.8,0.5,1l5.2,2.5c0.5,0.2,1,0.1,1.1-0.3     C386.9,214.8,386.6,214.3,386.2,214.1z"></path>			</g>			<g>				<g>											<linearGradient id="SVGID_80_" gradientUnits="userSpaceOnUse" x1="427.4973" y1="240.0425" x2="457.8008" y2="240.0425" gradientTransform="matrix(1 0 0 -1 0 427.0184)">						<stop offset="0" style="stop-color:#59CEF8"></stop>						<stop offset="0.1958" style="stop-color:#6450E8"></stop>						<stop offset="0.6845" style="stop-color:#36119E"></stop>						<stop offset="0.7834" style="stop-color:#3E18A2"></stop>						<stop offset="0.9405" style="stop-color:#552DAE"></stop>						<stop offset="1" style="stop-color:#6036B3"></stop>					</linearGradient>					<path class="st50" d="M457.8,178.5v9.1c0,1.1-0.7,2.1-1.8,2.6l-10.6,5c-1.7,0.8-3.7,0.8-5.4,0l-10.6-5      c-1.1-0.5-1.8-1.5-1.8-2.6v-9.2l10.9,6.1c2.6,1.4,5.9,1.4,8.5,0L457.8,178.5z"></path>					<path class="st43" d="M428.9,176.3l11.1-5.3c1.7-0.8,3.8-0.8,5.4,0l11.1,5.3c1.8,0.9,1.8,3,0,3.9l-11.1,5.3      c-1.7,0.8-3.8,0.8-5.4,0l-11.1-5.3C427.1,179.3,427.1,177.2,428.9,176.3z"></path>					<g>						<g>							<defs>								<polygon id="SVGID_81_" points="48.8,-72.6 49.8,-72.6 48.8,-71.8         "></polygon>							</defs>							<defs>								<polygon id="SVGID_82_" points="46.7,-74.3 45.7,-74.3 46.7,-75.1         "></polygon>							</defs>							<clipPath id="SVGID_83_">								<use xlink:href="#SVGID_81_" style="overflow:visible;"></use>							</clipPath>							<clipPath id="SVGID_84_" class="st51">								<use xlink:href="#SVGID_82_" style="overflow:visible;"></use>							</clipPath>															<linearGradient id="SVGID_85_" gradientUnits="userSpaceOnUse" x1="429.6561" y1="248.7597" x2="455.632" y2="248.7597" gradientTransform="matrix(1 0 0 -1 0 427.0184)">								<stop offset="0" style="stop-color:#FFFFFF"></stop>								<stop offset="1" style="stop-color:#000000"></stop>							</linearGradient>							<path class="st52" d="M442.6,184.6c-0.7,0-1.4-0.2-2-0.4l-10.2-4.9c-0.7-0.3-0.8-0.9-0.8-1.1c0-0.2,0.1-0.8,0.8-1.1l10.2-4.9        c1.2-0.6,2.8-0.6,4,0l10.2,4.9c0.7,0.3,0.8,0.9,0.8,1.1s-0.1,0.8-0.8,1.1l-10.2,4.9C444.1,184.5,443.4,184.6,442.6,184.6z         M442.6,172.3c-0.6,0-1.2,0.1-1.8,0.4l-10.2,4.9c-0.5,0.2-0.5,0.6-0.5,0.7s0.1,0.5,0.5,0.7l10.2,4.9c1.1,0.5,2.5,0.5,3.5,0        l10.2-4.9c0.5-0.2,0.5-0.6,0.5-0.7s-0.1-0.5-0.5-0.7l-10.2-4.9C443.9,172.4,443.3,172.3,442.6,172.3z"></path>						</g>					</g>											<linearGradient id="SVGID_86_" gradientUnits="userSpaceOnUse" x1="429.6561" y1="248.7597" x2="455.632" y2="248.7597" gradientTransform="matrix(1 0 0 -1 0 427.0184)">						<stop offset="0" style="stop-color:#59CEF8"></stop>						<stop offset="1" style="stop-color:#59CEF8"></stop>					</linearGradient>					<path class="st53" d="M442.6,184.6c-0.7,0-1.4-0.2-2-0.4l-10.2-4.9c-0.7-0.3-0.8-0.9-0.8-1.1c0-0.2,0.1-0.8,0.8-1.1l10.2-4.9      c1.2-0.6,2.8-0.6,4,0l10.2,4.9c0.7,0.3,0.8,0.9,0.8,1.1s-0.1,0.8-0.8,1.1l-10.2,4.9C444.1,184.5,443.4,184.6,442.6,184.6z       M442.6,172.3c-0.6,0-1.2,0.1-1.8,0.4l-10.2,4.9c-0.5,0.2-0.5,0.6-0.5,0.7s0.1,0.5,0.5,0.7l10.2,4.9c1.1,0.5,2.5,0.5,3.5,0      l10.2-4.9c0.5-0.2,0.5-0.6,0.5-0.7s-0.1-0.5-0.5-0.7l-10.2-4.9C443.9,172.4,443.3,172.3,442.6,172.3z"></path>				</g>				<g>					<path class="st42" d="M436.8,186.4l-4.6-2.2c-0.4-0.2-0.8-0.1-1,0.2c-0.1,0.3,0.1,0.7,0.5,0.9l4.6,2.2c0.4,0.2,0.8,0.1,1-0.2      C437.4,187,437.2,186.6,436.8,186.4z"></path>					<path class="st42" d="M436.8,189.7l-4.6-2.2c-0.4-0.2-0.8-0.1-1,0.2c-0.1,0.3,0.1,0.7,0.5,0.9l4.6,2.2c0.4,0.2,0.8,0.1,1-0.2      C437.4,190.3,437.2,189.9,436.8,189.7z"></path>					<path class="st42" d="M448.5,186.7l4.6-2.2c0.4-0.2,0.8-0.1,1,0.2c0.1,0.3-0.1,0.7-0.5,0.9l-4.6,2.2c-0.4,0.2-0.8,0.1-1-0.2      C447.9,187.3,448.1,186.9,448.5,186.7z"></path>					<path class="st42" d="M448.5,190l4.6-2.2c0.4-0.2,0.8-0.1,1,0.2c0.1,0.3-0.1,0.7-0.5,0.9l-4.6,2.2c-0.4,0.2-0.8,0.1-1-0.2      C447.9,190.6,448.1,190.2,448.5,190z"></path>				</g>			</g>							<linearGradient id="SVGID_87_" gradientUnits="userSpaceOnUse" x1="637.7845" y1="198.2189" x2="648.2482" y2="187.7551" gradientTransform="matrix(1 0 0 -1 0 427.0184)">				<stop offset="0" style="stop-color:#D16DF8"></stop>				<stop offset="0.9996" style="stop-color:#2F098F"></stop>			</linearGradient>			<path class="st54" d="M650.1,232.7c0-3.2-3.2-5.9-7.2-5.8c-3.9,0-7.1,2.9-7,6.1c0.2,2.9,2.8,5.2,6.2,5.5v5c0,0.4,0.4,0.7,0.8,0.7    c0.5,0,0.8-0.3,0.8-0.7v-5C647.3,238.1,650.1,235.7,650.1,232.7z"></path>			<g>				<g>											<linearGradient id="SVGID_88_" gradientUnits="userSpaceOnUse" x1="462.9355" y1="227.5545" x2="485.2294" y2="227.5545" gradientTransform="matrix(1 0 0 -1 0 427.0184)">						<stop offset="0" style="stop-color:#6450E8"></stop>						<stop offset="0.6845" style="stop-color:#36119E"></stop>						<stop offset="0.7834" style="stop-color:#3E18A2"></stop>						<stop offset="0.9405" style="stop-color:#552DAE"></stop>						<stop offset="1" style="stop-color:#6036B3"></stop>					</linearGradient>					<path class="st55" d="M485.2,173.2v46.6c0,0.8-0.5,1.5-1.3,1.9l-7.8,3.7c-1.2,0.6-2.7,0.6-4,0l-7.8-3.7      c-0.8-0.4-1.3-1.1-1.3-1.9v-46.7l8,4.5c1.9,1.1,4.4,1.1,6.2,0L485.2,173.2z"></path>					<path class="st44" d="M463.9,171.7l8.2-3.9c1.2-0.6,2.8-0.6,4,0l8.2,3.9c1.3,0.6,1.3,2.2,0,2.8l-8.2,3.9c-1.2,0.6-2.8,0.6-4,0      l-8.2-3.9C462.6,173.9,462.6,172.3,463.9,171.7z"></path>					<path class="st43" d="M474.1,178.2c-0.6,0-1.1-0.1-1.6-0.4l-8.2-3.9c-0.6-0.3-0.6-0.7-0.6-0.9c0-0.2,0.1-0.6,0.6-0.9l8.2-3.9      c1-0.5,2.3-0.5,3.2,0l8.2,3.9c0.6,0.3,0.6,0.7,0.6,0.9c0,0.2-0.1,0.6-0.6,0.9l-8.2,3.9C475.2,178.1,474.7,178.2,474.1,178.2z       M474.1,168.4c-0.5,0-0.9,0.1-1.4,0.3l-8.2,3.9c-0.3,0.1-0.4,0.4-0.4,0.5c0,0.1,0.1,0.4,0.4,0.5l8.2,3.9c0.8,0.4,1.9,0.4,2.7,0      l8.2-3.9c0.3-0.1,0.4-0.4,0.4-0.5c0-0.1-0.1-0.4-0.4-0.5l-8.2-3.9C475,168.5,474.6,168.4,474.1,168.4z"></path>				</g>				<path class="st44" d="M468.5,200.2c-0.1,0-0.3-0.1-0.3-0.2v-20.1c0-0.1,0.1-0.2,0.3-0.2s0.3,0.1,0.3,0.2V200     C468.8,200.1,468.7,200.2,468.5,200.2z"></path>				<path class="st44" d="M471.4,187.4c-0.1,0-0.3-0.1-0.3-0.2v-6c0-0.1,0.1-0.2,0.3-0.2s0.3,0.1,0.3,0.2v6     C471.7,187.3,471.6,187.4,471.4,187.4z"></path>			</g>			<path class="st44" d="M466.6,192.1c-0.1,0-0.3-0.1-0.3-0.2v-13.5c0-0.1,0.1-0.2,0.3-0.2c0.1,0,0.3,0.1,0.3,0.2v13.5    C466.9,192,466.8,192.1,466.6,192.1z"></path>			<g>				<g>											<linearGradient id="SVGID_89_" gradientUnits="userSpaceOnUse" x1="605.3439" y1="184.6204" x2="627.6379" y2="184.6204" gradientTransform="matrix(1 0 0 -1 0 427.0184)">						<stop offset="0" style="stop-color:#6450E8"></stop>						<stop offset="0.6845" style="stop-color:#36119E"></stop>						<stop offset="0.7834" style="stop-color:#3E18A2"></stop>						<stop offset="0.9405" style="stop-color:#552DAE"></stop>						<stop offset="1" style="stop-color:#6036B3"></stop>					</linearGradient>					<path class="st56" d="M627.6,223.6v32.1c0,0.8-0.5,1.5-1.3,1.9l-6.3,3c-2.2,1-4.8,1-7,0l-6.3-3c-0.8-0.4-1.3-1.1-1.3-1.9v-32.2      l8,4.5c1.9,1.1,4.4,1.1,6.2,0L627.6,223.6z"></path>					<path class="st44" d="M606.4,222l8.2-3.9c1.2-0.6,2.8-0.6,4,0l8.2,3.9c1.3,0.6,1.3,2.2,0,2.8l-8.2,3.9c-1.2,0.6-2.8,0.6-4,0      l-8.2-3.9C605,224.3,605,222.7,606.4,222z"></path>					<path class="st43" d="M616.5,228.6c-0.6,0-1.1-0.1-1.6-0.4l-8.2-3.9c-0.6-0.3-0.6-0.7-0.6-0.9c0-0.2,0.1-0.6,0.6-0.9l8.2-3.9      c1-0.5,2.3-0.5,3.2,0l8.2,3.9c0.6,0.3,0.6,0.7,0.6,0.9c0,0.2-0.1,0.6-0.6,0.9l-8.2,3.9C617.6,228.4,617.1,228.6,616.5,228.6z       M616.5,218.8c-0.5,0-0.9,0.1-1.4,0.3l-8.2,3.9c-0.3,0.1-0.4,0.4-0.4,0.5c0,0.1,0.1,0.4,0.4,0.5l8.2,3.9c0.8,0.4,1.9,0.4,2.7,0      l8.2-3.9c0.3-0.1,0.4-0.4,0.4-0.5c0-0.1-0.1-0.4-0.4-0.5l-8.2-3.9C617.4,218.9,617,218.8,616.5,218.8z"></path>				</g>				<path class="st44" d="M608.7,245.4c-0.1,0-0.3-0.1-0.3-0.2V226c0-0.1,0.1-0.2,0.3-0.2s0.3,0.1,0.3,0.2v19.2     C609,245.3,608.9,245.4,608.7,245.4z"></path>				<path class="st44" d="M624.2,235c-0.1,0-0.3-0.1-0.3-0.2v-8.9c0-0.1,0.1-0.2,0.3-0.2s0.3,0.1,0.3,0.2v8.9     C624.5,234.9,624.4,235,624.2,235z"></path>				<path class="st44" d="M621.4,249.6c-0.1,0-0.3-0.1-0.3-0.2v-22.3c0-0.1,0.1-0.2,0.3-0.2s0.3,0.1,0.3,0.2v22.3     C621.6,249.5,621.5,249.6,621.4,249.6z"></path>				<path class="st44" d="M611.4,254.3c-0.1,0-0.3-0.1-0.3-0.2v-26.9c0-0.1,0.1-0.2,0.3-0.2s0.3,0.1,0.3,0.2v26.9     C611.6,254.3,611.5,254.3,611.4,254.3z"></path>			</g>			<g>				<g>											<linearGradient id="SVGID_90_" gradientUnits="userSpaceOnUse" x1="450.9109" y1="192.5373" x2="496.4772" y2="192.5373" gradientTransform="matrix(1 0 0 -1 0 427.0184)">						<stop offset="0" style="stop-color:#59CEF8"></stop>						<stop offset="0.1958" style="stop-color:#6450E8"></stop>						<stop offset="0.6845" style="stop-color:#36119E"></stop>						<stop offset="0.7834" style="stop-color:#3E18A2"></stop>						<stop offset="0.9405" style="stop-color:#552DAE"></stop>						<stop offset="1" style="stop-color:#6036B3"></stop>					</linearGradient>					<path class="st57" d="M496.5,210.6v35.7c0,1.6-1,3.1-2.7,3.9l-16,7.5c-2.5,1.2-5.6,1.2-8.1,0l-16-7.5c-1.7-0.8-2.7-2.3-2.7-3.9      v-35.9l16.4,9.1c3.8,2.2,8.9,2.2,12.8,0L496.5,210.6z"></path>					<path class="st43" d="M453,207.5l16.7-7.9c2.5-1.2,5.6-1.2,8.2,0l16.7,7.9c2.7,1.3,2.7,4.5,0,5.8l-16.7,7.9      c-2.5,1.2-5.6,1.2-8.2,0l-16.7-7.9C450.2,212,450.2,208.8,453,207.5z"></path>					<g>						<g>							<defs>								<polygon id="SVGID_91_" points="48.8,-72.6 49.8,-72.6 48.8,-71.8         "></polygon>							</defs>							<defs>								<polygon id="SVGID_92_" points="46.7,-74.3 45.7,-74.3 46.7,-75.1         "></polygon>							</defs>							<clipPath id="SVGID_93_">								<use xlink:href="#SVGID_91_" style="overflow:visible;"></use>							</clipPath>							<clipPath id="SVGID_94_" class="st58">								<use xlink:href="#SVGID_92_" style="overflow:visible;"></use>							</clipPath>															<linearGradient id="SVGID_95_" gradientUnits="userSpaceOnUse" x1="454.7846" y1="216.6341" x2="492.6035" y2="216.6341" gradientTransform="matrix(1 0 0 -1 0 427.0184)">								<stop offset="0" style="stop-color:#FFFFFF"></stop>								<stop offset="1" style="stop-color:#000000"></stop>							</linearGradient>							<path class="st59" d="M473.7,219.6c-1,0-2-0.2-2.9-0.6l-15-7.1c-0.9-0.4-1-1.2-1-1.5s0.1-1.1,1-1.5l15-7.1        c1.8-0.8,4-0.8,5.8,0l15,7.1c0.9,0.4,1,1.2,1,1.5s-0.1,1-1,1.5l-15,7.1C475.7,219.4,474.7,219.6,473.7,219.6z M473.7,201.5        c-0.9,0-1.8,0.2-2.6,0.6l-15,7.1c-0.7,0.3-0.8,0.9-0.8,1.1s0.1,0.8,0.8,1.1l15,7.1c1.6,0.8,3.7,0.8,5.3,0l15-7.1        c0.7-0.3,0.8-0.9,0.8-1.1s-0.1-0.8-0.8-1.1l-15-7.1C475.5,201.8,474.6,201.5,473.7,201.5z"></path>						</g>					</g>											<linearGradient id="SVGID_96_" gradientUnits="userSpaceOnUse" x1="454.7846" y1="216.6341" x2="492.6035" y2="216.6341" gradientTransform="matrix(1 0 0 -1 0 427.0184)">						<stop offset="0" style="stop-color:#59CEF8"></stop>						<stop offset="1" style="stop-color:#59CEF8"></stop>					</linearGradient>					<path class="st60" d="M473.7,219.6c-1,0-2-0.2-2.9-0.6l-15-7.1c-0.9-0.4-1-1.2-1-1.5s0.1-1.1,1-1.5l15-7.1c1.8-0.8,4-0.8,5.8,0      l15,7.1c0.9,0.4,1,1.2,1,1.5s-0.1,1-1,1.5l-15,7.1C475.7,219.4,474.7,219.6,473.7,219.6z M473.7,201.5c-0.9,0-1.8,0.2-2.6,0.6      l-15,7.1c-0.7,0.3-0.8,0.9-0.8,1.1s0.1,0.8,0.8,1.1l15,7.1c1.6,0.8,3.7,0.8,5.3,0l15-7.1c0.7-0.3,0.8-0.9,0.8-1.1      s-0.1-0.8-0.8-1.1l-15-7.1C475.5,201.8,474.6,201.5,473.7,201.5z"></path>				</g>				<g>					<path class="st44" d="M466.8,226.1l-10.8-5.2c-0.8-0.4-1.7-0.2-2,0.5c-0.3,0.6,0.1,1.5,0.9,1.9l10.8,5.2c0.8,0.4,1.7,0.2,2-0.5      C468.1,227.3,467.6,226.5,466.8,226.1z"></path>					<path class="st44" d="M466.8,232.1l-10.8-5.2c-0.8-0.4-1.7-0.2-2,0.5c-0.3,0.6,0.1,1.5,0.9,1.9l10.8,5.2c0.8,0.4,1.7,0.2,2-0.5      C468.1,233.3,467.6,232.5,466.8,232.1z"></path>					<path class="st44" d="M466.8,238.1L456,233c-0.8-0.4-1.7-0.2-2,0.5c-0.3,0.6,0.1,1.5,0.9,1.9l10.8,5.2c0.8,0.4,1.7,0.2,2-0.5      C468.1,239.4,467.6,238.5,466.8,238.1z"></path>					<path class="st44" d="M466.8,244.2L456,239c-0.8-0.4-1.7-0.2-2,0.5c-0.3,0.6,0.1,1.5,0.9,1.9l10.8,5.2c0.8,0.4,1.7,0.2,2-0.5      C468.1,245.4,467.6,244.6,466.8,244.2z"></path>				</g>			</g>			<g>				<g>											<linearGradient id="SVGID_97_" gradientUnits="userSpaceOnUse" x1="476.0596" y1="159.9575" x2="521.626" y2="159.9575" gradientTransform="matrix(1 0 0 -1 0 427.0184)">						<stop offset="0" style="stop-color:#59CEF8"></stop>						<stop offset="0.1958" style="stop-color:#6450E8"></stop>						<stop offset="0.6845" style="stop-color:#36119E"></stop>						<stop offset="0.7834" style="stop-color:#3E18A2"></stop>						<stop offset="0.9405" style="stop-color:#552DAE"></stop>						<stop offset="1" style="stop-color:#6036B3"></stop>					</linearGradient>					<path class="st61" d="M521.6,254.2v13.7c0,1.6-1,3.1-2.7,3.9l-16,7.5c-2.5,1.2-5.6,1.2-8.1,0l-16-7.5c-1.7-0.8-2.7-2.3-2.7-3.9      V254l16.4,9.1c3.8,2.2,8.9,2.2,12.8,0L521.6,254.2z"></path>					<path class="st43" d="M478.1,251l16.7-7.9c2.5-1.2,5.6-1.2,8.2,0l16.7,7.9c2.7,1.3,2.7,4.5,0,5.8l-16.7,7.9      c-2.5,1.2-5.6,1.2-8.2,0l-16.7-7.9C475.4,255.5,475.4,252.3,478.1,251z"></path>					<path class="st44" d="M498.8,263.4c-1,0-2.1-0.2-3-0.7l-15.4-7.3c-1-0.5-1.1-1.2-1.1-1.5s0.1-1.1,1.1-1.5l15.4-7.3      c1.8-0.9,4.1-0.9,5.9,0l15.4,7.3c1,0.5,1.1,1.2,1.1,1.5s-0.1,1.1-1.1,1.5l-15.4,7.3C500.9,263.2,499.9,263.4,498.8,263.4z       M498.8,244.9c-0.9,0-1.9,0.2-2.7,0.6l-15.4,7.3c-0.7,0.4-0.8,0.9-0.8,1.2s0.1,0.8,0.8,1.2l15.4,7.3c1.6,0.8,3.8,0.8,5.4,0      l15.4-7.3c0.7-0.4,0.8-0.9,0.8-1.2s-0.1-0.8-0.8-1.2l-15.4-7.3C500.7,245.1,499.8,244.9,498.8,244.9z"></path>				</g>				<path class="st42" d="M506,268c-0.2-0.5-0.9-0.6-1.5-0.3l-3.8,1.8c-1.3,0.6-2.9,0.6-4.3,0l-3.8-1.8c-0.6-0.3-1.3-0.1-1.5,0.3     c-0.2,0.5,0.1,1.1,0.7,1.4l4.6,2.2c1.3,0.6,2.9,0.6,4.3,0l4.6-2.2C505.9,269.1,506.2,268.5,506,268z"></path>				<path class="st42" d="M506,272.8c-0.2-0.5-0.9-0.6-1.5-0.3l-3.8,1.8c-1.3,0.6-2.9,0.6-4.3,0l-3.8-1.8c-0.6-0.3-1.3-0.1-1.5,0.3     c-0.2,0.5,0.1,1.1,0.7,1.4l4.6,2.2c1.3,0.6,2.9,0.6,4.3,0l4.6-2.2C505.9,273.9,506.2,273.3,506,272.8z"></path>				<path class="st44" d="M487.7,265.1l-6.9-3.3c-0.6-0.3-1.3-0.1-1.5,0.3c-0.2,0.5,0.1,1.1,0.7,1.4l6.9,3.3     c0.6,0.3,1.3,0.1,1.5-0.3S488.3,265.3,487.7,265.1z"></path>				<path class="st44" d="M487.7,270.1l-6.9-3.3c-0.6-0.3-1.3-0.1-1.5,0.3c-0.2,0.5,0.1,1.1,0.7,1.4l6.9,3.3     c0.6,0.3,1.3,0.1,1.5-0.3C488.6,271,488.3,270.4,487.7,270.1z"></path>			</g>		</g>	</g>	<g>		<g>			<g>				<g>					<g>													<linearGradient id="SVGID_98_" gradientUnits="userSpaceOnUse" x1="598.2928" y1="270.6287" x2="598.2928" y2="289.5023" gradientTransform="matrix(0.9786 0.2057 0.2057 -0.9786 -74.1249 292.3974)">							<stop offset="0" style="stop-color:#513AE7"></stop>							<stop offset="0.1639" style="stop-color:#5641E9"></stop>							<stop offset="0.4089" style="stop-color:#6456F0"></stop>							<stop offset="0.5165" style="stop-color:#6C61F3"></stop>							<stop offset="0.5584" style="stop-color:#695CF2"></stop>							<stop offset="0.8266" style="stop-color:#5743EA"></stop>							<stop offset="0.989" style="stop-color:#513AE7"></stop>						</linearGradient>						<path class="st62" d="M571.3,150.5c-0.1,0-0.1,0-0.2,0c-0.7,0.1-1.5,0.2-2.3,0.2c-1.5,0-3-0.3-4.4-0.8       c-1.4-0.5-2.6-1.3-3.5-2.3c-0.5-0.5-1-1.1-1.3-1.7c0-0.1-0.1-0.1-0.1-0.2c0,0,0.7-3.8,2.4-7.2c1.8-3.3,4.7-6.2,4.7-6.3       c0.1,0,0.1,0,0.2-0.1c0.6-0.1,1.1-0.2,1.7-0.2c1.6-0.1,3.3,0.2,4.9,0.8c1.6,0.6,2.9,1.6,3.9,2.7c0.3,0.4,0.6,0.8,0.9,1.3       c0,0.1,0,0.1,0.1,0.2c0,0-0.6,3.7-2.4,7.1C574.3,147.4,571.3,150.4,571.3,150.5z"></path>						<path class="st63" d="M566.7,132.3c0,0.1-7.1,13.4-7.1,13.4c-0.2-0.3-0.4-0.7-0.5-1c0-0.1-0.1-0.1-0.1-0.2c0,0,0-0.1,0-0.1       l0,0c-0.8-2.2-0.7-4.6,0.5-6.9c1.2-2.3,3.3-3.9,5.7-4.8c0,0,0,0,0,0c0,0,0.1,0,0.1-0.1c0.1,0,0.1,0,0.2-0.1       C565.8,132.5,566.3,132.4,566.7,132.3z"></path>						<path class="st63" d="M578.5,145.2c-1.2,2.2-3.2,3.9-5.7,4.8c0,0,0,0-0.1,0c0,0-0.1,0-0.1,0.1c-0.1,0-0.1,0-0.2,0.1       c-0.4,0.1-0.8,0.3-1.3,0.3c0-0.1,7.1-13.4,7.1-13.4c0.2,0.3,0.4,0.7,0.5,1c0,0,0,0.1,0.1,0.1c0,0,0,0.1,0,0.1c0,0,0,0,0,0       C579.8,140.5,579.7,143,578.5,145.2z"></path>					</g>					<g>						<path class="st64" d="M572.4,128.9l-2,3.7c-0.4,0.8,0.4,2,1.9,2.6c1.5,0.6,3,0.4,3.5-0.4l2-3.7L572.4,128.9z"></path>						<path class="st65" d="M577.8,131c0.4-0.8-0.4-2-1.9-2.6c-1.5-0.6-3-0.4-3.5,0.4c-0.4,0.8,0.4,2,1.9,2.6       C575.8,132,577.3,131.8,577.8,131z"></path>					</g>					<path class="st66" d="M583.2,126.2l-3.7,7c-0.2,0.4-0.5,0.7-1,0.9c-1.3,0.7-3.5,0.7-5.5-0.1c-2.2-0.9-3.7-2.4-3.8-3.8      c0-0.3,0-0.7,0.2-1l3.7-7L583.2,126.2z"></path>					<g>						<path class="st64" d="M568.8,150.7c-1.5,0-3-0.3-4.4-0.8c-1.4-0.5-2.6-1.3-3.5-2.3l2.9-5.5c1-1.9,3.6-2.7,5.7-1.8       c0.3,0.1,0.6,0.3,0.8,0.4c1.6,1.1,2.2,3,1.3,4.6L568.8,150.7z"></path>						<g>							<g>								<path class="st66" d="M566.3,146.1c-1.3-0.6-1.8-2.1-1.1-3.3c0.7-1.2,2.4-1.7,3.8-1.1c1.3,0.6,1.8,2.1,1.1,3.3         C569.4,146.3,567.7,146.7,566.3,146.1z"></path>								<path class="st64" d="M566.6,145.6c-1-0.5-1.4-1.6-0.8-2.5c0.6-0.9,1.8-1.3,2.8-0.8c1,0.5,1.4,1.6,0.8,2.5         C568.9,145.7,567.7,146,566.6,145.6z"></path>								<path class="st66" d="M567,145c-0.6-0.3-0.9-1-0.5-1.6c0.3-0.6,1.1-0.8,1.8-0.5c0.6,0.3,0.9,1,0.5,1.6         C568.5,145,567.6,145.3,567,145z"></path>							</g>							<path class="st28" d="M568,143.4c-0.3-0.1-0.5-0.4-0.3-0.6s0.5-0.2,0.8-0.1c0.3,0.1,0.5,0.4,0.3,0.6S568.3,143.6,568,143.4z"></path>						</g>					</g>				</g>				<g>					<path class="st66" d="M542.3,94.4l0.6-1.7c-0.6,1.1-2.1,1.7-3.4,1.2c-1.1-0.5-1.7-1.6-1.3-2.7l-0.7,2.1      c-0.4,1.1,0.2,2.2,1.3,2.7C540.2,96.4,541.9,95.7,542.3,94.4z"></path>					<g>						<path class="st67" d="M542.6,77.9l-4.5,13.3c-0.3,1,0.1,2,1,2.5l5.2-15.1L542.6,77.9z"></path>						<path class="st68" d="M542.7,93.2l4.3-12.9l-2.7-1.7l-5.2,15.1c0.1,0.1,0.2,0.1,0.3,0.2C540.7,94.4,542.3,93.8,542.7,93.2z"></path>					</g>				</g>				<g>					<path class="st66" d="M518.7,141.2l0.6-1.7c-0.6,1.1-2.1,1.7-3.4,1.2c-1.1-0.5-1.7-1.6-1.3-2.7l-0.7,2.1      c-0.4,1.1,0.2,2.2,1.3,2.7C516.5,143.2,518.2,142.5,518.7,141.2z"></path>					<g>						<path class="st67" d="M519,124.7l-4.5,13.3c-0.3,1,0.1,2,1,2.5l5.2-15.1L519,124.7z"></path>						<path class="st68" d="M519.3,139.5l4.3-12.9l-2.9-1.1l-5.2,15.1c0.1,0.1,0.2,0.1,0.3,0.2C517.2,141.2,518.7,140.6,519.3,139.5       z"></path>					</g>				</g>				<g>					<path class="st66" d="M602,174.3l1.1-1.5c-0.6,1.1-0.1,2.5,1.2,3c1.1,0.5,2.5,0.1,3.2-0.9l-1.3,1.8c-0.7,0.9-2.1,1.3-3.2,0.9      C601.6,177.1,601.1,175.5,602,174.3z"></path>					<g>						<path class="st67" d="M616.3,163.4l-8.7,11.6c-0.6,0.9-1.8,1.2-2.9,1l9.8-13.2L616.3,163.4z"></path>						<path class="st68" d="M603.1,172.8l8.5-11.3l2.9,1.1l-9.8,13.2c-0.1,0-0.2-0.1-0.4-0.1C603,175.3,602.5,174,603.1,172.8z"></path>					</g>				</g>				<g>					<path class="st66" d="M626.8,128l1.1-1.5c-0.6,1.1-0.1,2.5,1.2,3c1.1,0.5,2.5,0.1,3.2-0.9l-1.3,1.8c-0.7,0.9-2.1,1.3-3.2,0.9      C626.4,130.8,625.9,129.2,626.8,128z"></path>					<g>						<path class="st67" d="M641.1,117.1l-8.7,11.6c-0.6,0.9-1.8,1.2-2.9,1l9.8-13.2L641.1,117.1z"></path>						<path class="st68" d="M627.9,126.5l8.5-11.3l2.9,1.1l-9.8,13.2c-0.1,0-0.2-0.1-0.4-0.1C627.8,129,627.3,127.7,627.9,126.5z"></path>					</g>				</g>				<path class="st64" d="M584.2,124.3l-3.7,7c-0.2,0.4-0.5,0.7-1,0.9c-1.3,0.7-3.5,0.7-5.5-0.1c-2.2-0.9-3.7-2.4-3.8-3.8     c0-0.3,0-0.7,0.2-1l3.7-7L584.2,124.3z"></path>									<linearGradient id="SVGID_99_" gradientUnits="userSpaceOnUse" x1="601.0999" y1="288.7939" x2="610.8931" y2="323.7908" gradientTransform="matrix(0.9786 0.2057 0.2057 -0.9786 -74.1249 292.3974)">					<stop offset="0" style="stop-color:#6D62F4"></stop>					<stop offset="1" style="stop-color:#513AE7"></stop>				</linearGradient>				<path class="st69" d="M645.2,110.7c-0.9-0.4-2,0-2.5,0.8l-0.2,0.4c-0.5-0.3-1-0.5-1.6-0.7c-4.9-2-10.1-1.3-11.6,1.4     c-0.1,0.2-0.1,0.3-0.2,0.5l-39.9,0.1c-3.7,0-7.2-1.4-9.6-3.9l-24.9-25.9c0.2-0.2,0.4-0.5,0.5-0.7c1.5-2.8-1.4-6.6-6.3-8.5     c-0.4-0.2-0.9-0.3-1.3-0.5l0.2-0.4c0.4-0.8,0-1.8-0.9-2.2l-5.8,1.2c-0.9-0.4-2,0-2.5,0.8l-1.3,2.4c-1.5,2.8,1.4,6.6,6.3,8.5     c0.4,0.2,0.9,0.3,1.3,0.4c0.4,0.1,0.8,0.4,1,0.8l12.1,20c2.9,4.8-0.3,10.9-6.5,12.1l-25.2,4.9c-0.5,0.1-0.9,0-1.3-0.2     c-0.4-0.2-0.8-0.4-1.2-0.6c0,0,0,0-0.1,0c0.4-0.8,0-1.8-0.9-2.2l-7.1,0.9c-0.9-0.4-2,0-2.5,0.8l-0.9,1.6     c-0.1,0.1-0.1,0.2-0.2,0.3c-1.5,2.8,1.4,6.6,6.3,8.5c4.9,2,10.1,1.3,11.6-1.4c0.2-0.3,0.2-0.6,0.3-0.9l37.8-0.3     c4.3,0,8.3,1.6,11.1,4.4l25.4,25.6c-0.1,0.1-0.2,0.3-0.3,0.4c-1.5,2.8,1.4,6.6,6.3,8.5c4.8,1.9,9.8,1.3,11.4-1.2l0,0l1.4-2.6     c0.4-0.8,0-1.8-0.9-2.2l-3-4.8c-0.9-0.4-2,0-2.5,0.8l-0.2,0.4c-0.3-0.1-0.6-0.3-1-0.4c-0.6-0.2-1.2-0.5-1.9-0.6     c-0.5-0.1-0.9-0.4-1.1-0.7L600.7,137c-3.1-4.8,0.2-11,6.4-12.2l25.2-4.8c0.5-0.1,1,0,1.4,0.2c0.6,0.3,1.3,0.7,2,0.9     c4.7,1.9,9.7,1.4,11.4-1.1l0,0l1.3-2.5c0.4-0.8,0-1.8-0.9-2.2L645.2,110.7z"></path>									<linearGradient id="SVGID_100_" gradientUnits="userSpaceOnUse" x1="563.5004" y1="262.8935" x2="647.2979" y2="346.691" gradientTransform="matrix(0.9786 0.2057 0.2057 -0.9786 -74.1249 292.3974)">					<stop offset="0" style="stop-color:#9996FF"></stop>					<stop offset="1" style="stop-color:#FFFFFF"></stop>				</linearGradient>				<path class="st70" d="M617.5,155.3c-0.9-0.3-1.7-0.6-2.6-0.8L603,128.2c-2.2-3.5-0.4-7.8,3.6-9.3c0.8-0.3,1.8-0.5,2.7-0.5     l25.1-1.1c0.8,0.5,1.7,0.9,2.6,1.3c4.9,2,10.1,1.3,11.6-1.4c1.5-2.8-1.4-6.6-6.3-8.5c-4.9-2-10.1-1.3-11.6,1.4     c-0.1,0.2-0.1,0.3-0.2,0.5l-38.5-4.1c0,0-4.9-0.2-8.2-3.3c-6.4-6-27.6-22.2-27.6-22.2c0.2-0.2,0.4-0.5,0.5-0.7     c1.5-2.8-1.4-6.6-6.3-8.5c-4.9-2-10.1-1.3-11.6,1.4s1.4,6.6,6.3,8.5c0.7,0.3,1.3,0.5,2,0.6l15.2,17.5c0.5,0.6,1,1.3,1.2,2.1     c1.1,3.6-1.5,7.3-5.8,8.3c-7.8,2-30.6,9.7-30.6,9.7c-0.6-0.3-1.2-0.6-1.9-0.9c-4.9-2-10.1-1.3-11.6,1.4     c-1.5,2.8,1.4,6.6,6.3,8.5c4.9,2,10.1,1.3,11.6-1.4c0.2-0.3,0.2-0.6,0.3-0.9l40.3-4.4c0.4,0,0.8-0.1,1.2-0.1     c3.4,0.1,6.5,1.3,8.8,3.5c0.3,0.2,0.5,0.5,0.7,0.8c2.8,3.6,23.4,29.9,23.4,29.9c-0.1,0.1-0.2,0.3-0.3,0.4     c-1.5,2.8,1.4,6.6,6.3,8.5c4.9,2,10.1,1.3,11.6-1.4C625.2,161.1,622.4,157.3,617.5,155.3z"></path>				<path class="st63" d="M615.6,165c-0.9-0.2-1.9-0.4-2.8-0.8c-2.7-1.1-4.8-2.8-5.6-4.6c-0.3-0.6-0.5-1.5,0-2.3     c0-0.1,0.1-0.2,0.2-0.3l0.5-0.7L584,125.7c-0.3-0.4-0.6-0.7-0.8-0.9c-2-1.8-4.5-3.1-7.3-3.6c-0.8-0.1-1.6-0.2-2.4-0.3     c-0.4,0-0.9,0-1.4,0.1l-41.3,4.5l-0.2,0.9c0,0.2-0.1,0.4-0.2,0.6c-0.8,1.6-3.7,2.3-6.9,1.7c-0.9-0.2-1.9-0.4-2.8-0.8     c-2.7-1.1-4.8-2.8-5.6-4.6c-0.3-0.6-0.5-1.5,0-2.3c0.8-1.6,3.7-2.3,7-1.7c0.9,0.2,1.9,0.4,2.8,0.8c0.6,0.2,1.1,0.5,1.7,0.8     l0.6,0.3l0.6-0.2c0.2-0.1,22.9-7.8,30.5-9.7c5.1-1.3,8.1-5.6,6.7-9.8c-0.3-0.8-0.7-1.6-1.5-2.5l-15.5-17.8l-0.4-0.1     c-0.6-0.2-1.2-0.4-1.8-0.6c-2.7-1.1-4.8-2.8-5.6-4.6c-0.3-0.6-0.5-1.5,0-2.3c0.8-1.6,3.7-2.3,7-1.7c0.9,0.2,1.9,0.4,2.8,0.8     c2.7,1.1,4.8,2.8,5.6,4.6c0.3,0.6,0.5,1.5,0,2.3c-0.1,0.2-0.2,0.3-0.4,0.5l-0.8,0.9l1,0.8c0.2,0.2,21.2,16.3,27.5,22.2     c2.3,2.2,5.3,3.1,7.4,3.5c0.9,0.2,1.5,0.2,1.7,0.2l39.6,4.2l0.3-1c0-0.1,0.1-0.2,0.1-0.3c0.8-1.6,3.7-2.3,7-1.7     c0.9,0.2,1.9,0.4,2.8,0.8c2.7,1.1,4.8,2.8,5.6,4.6c0.3,0.6,0.5,1.5,0,2.3c-0.8,1.6-3.7,2.3-7,1.7c-0.9-0.2-1.9-0.4-2.8-0.8     c-0.8-0.3-1.6-0.7-2.4-1.2l-0.4-0.3l-25.6,1.1c-1.2,0.1-2.3,0.3-3.2,0.6c-2.3,0.9-4.1,2.7-4.9,4.8c-0.8,2.1-0.5,4.3,0.6,6.2     l12.1,26.8l0.7,0.1c0.8,0.2,1.6,0.4,2.4,0.7c2.7,1.1,4.8,2.8,5.6,4.6c0.3,0.6,0.5,1.5,0,2.3C621.7,165,618.8,165.6,615.6,165z      M575.8,121c2.9,0.5,5.5,1.8,7.5,3.6c0.3,0.3,0.6,0.6,0.9,1l24,30.7l-0.6,0.8c-0.1,0.1-0.1,0.2-0.2,0.3c-0.4,0.8-0.2,1.6,0,2.2     c0.7,1.7,2.8,3.5,5.5,4.5c0.9,0.4,1.8,0.6,2.7,0.8c3.1,0.6,5.9-0.1,6.7-1.5c0.4-0.8,0.2-1.6,0-2.2c-0.7-1.7-2.8-3.5-5.5-4.5     c-0.7-0.3-1.5-0.5-2.3-0.7l-0.8-0.2l-12.1-26.9c-1.2-1.9-1.4-4.2-0.6-6.3c0.8-2.2,2.6-4,5-4.9c0.9-0.4,2-0.6,3.3-0.6l25.7-1.1     l0.5,0.3c0.7,0.5,1.5,0.9,2.3,1.2c0.9,0.4,1.8,0.6,2.7,0.8c3.1,0.6,5.9-0.1,6.7-1.5c0.4-0.8,0.2-1.6,0-2.2     c-0.7-1.7-2.8-3.5-5.5-4.5c-0.9-0.4-1.8-0.6-2.7-0.8c-3.1-0.6-5.9,0.1-6.7,1.5c0,0.1-0.1,0.2-0.1,0.3l-0.4,1.2     c0,0-40.7-4.3-41.5-4.4c-2.1-0.4-5.2-1.3-7.5-3.5c-6.3-5.8-27.3-22-27.5-22.1l-1.2-0.9l1-1.1c0.2-0.2,0.3-0.3,0.3-0.5     c0.4-0.8,0.2-1.6,0-2.2c-0.7-1.7-2.8-3.5-5.5-4.5c-0.9-0.4-1.8-0.6-2.7-0.8c-3.1-0.6-5.9,0.1-6.7,1.5c-0.4,0.8-0.2,1.6,0,2.2     c0.7,1.7,2.8,3.5,5.5,4.5c0.6,0.2,1.2,0.4,1.8,0.6L548,81l15.5,17.9c0.8,0.9,1.3,1.7,1.5,2.5c1.4,4.3-1.6,8.8-6.9,10.1     c-7.6,1.9-30.3,9.6-30.5,9.7l-0.8,0.3l-0.7-0.4c-0.5-0.3-1.1-0.6-1.7-0.8c-0.9-0.4-1.8-0.6-2.7-0.8c-3.1-0.6-5.9,0.1-6.7,1.5     c-0.4,0.8-0.2,1.6,0,2.2c0.7,1.7,2.8,3.5,5.5,4.5c0.9,0.4,1.8,0.6,2.7,0.8c3.1,0.6,5.9-0.1,6.7-1.5c0.1-0.1,0.1-0.3,0.2-0.5     l0.2-1l41.5-4.6c0.5-0.1,1-0.1,1.4-0.1C574.2,120.8,575,120.9,575.8,121z"></path>				<g>					<g>						<g>							<path class="st66" d="M530.1,121.9l-1.7,3.3c-0.4,0.9-1.5,1.4-2.8,1.5c-0.4,0-0.8,0.1-1.2,0c-0.9-0.1-1.9-0.3-2.9-0.7        c-1-0.4-1.8-0.9-2.5-1.5c-0.3-0.3-0.6-0.5-0.8-0.8c-0.7-0.9-1-2-0.5-2.8l1.7-3.3L530.1,121.9z"></path>							<path class="st28" d="M530.1,121.9c0.9-1.6-0.8-3.9-3.8-5.1c-2.9-1.2-6-0.8-6.9,0.9c-0.9,1.6,0.8,3.9,3.8,5.1        C526.1,123.9,529.2,123.6,530.1,121.9z"></path>						</g>						<path class="st64" d="M520.3,122.2l-1.3,2.4c-0.3-0.3-0.6-0.5-0.8-0.8l1.3-2.4L520.3,122.2z"></path>						<path class="st64" d="M526.8,124.3l-1.3,2.4c-0.4,0-0.8,0.1-1.2,0l1.3-2.4L526.8,124.3z"></path>					</g>					<g>						<g>							<g>								<path class="st66" d="M528.2,120.5L528.2,120.5l0.5-0.8l-1-0.3c-0.9-0.7-2.5-1.2-4-1.2c-0.2,0-0.4,0-0.7,0l-0.9-0.2         l-0.5,0.8h0c-0.1,0.2-0.1,0.5,0.2,0.8c0.7,0.8,2.6,1.5,4.3,1.5C527.3,121.1,528,120.9,528.2,120.5z"></path>								<path class="st71" d="M522.3,118.8c0.5,0.6,1.8,1.2,3.1,1.4l-2.5-2.7C522.1,117.7,521.8,118.2,522.3,118.8z"></path>							</g>							<g>								<path class="st64" d="M524.1,117.3c-0.5,0-0.9,0-1.2,0.1l2.5,2.7c0.4,0.1,0.8,0.1,1.2,0.1c0.3,0,0.5,0,0.7,0l-2.6-2.9         C524.6,117.4,524.3,117.4,524.1,117.3z"></path>								<path class="st71" d="M528.5,118.9c-0.6-0.7-2.2-1.3-3.7-1.5l2.6,2.9C528.6,120.1,529.1,119.6,528.5,118.9z"></path>							</g>						</g>						<g>							<g>								<path class="st66" d="M529.2,118.6l0.4-0.7l-1-0.4c-0.9-0.7-2.5-1.2-4-1.2c-0.2,0-0.4,0-0.7,0l-0.9-0.2l-0.5,0.8h0         c-0.1,0.2-0.1,0.5,0.2,0.8c0.7,0.8,2.6,1.5,4.3,1.5C528.3,119.3,529,119.1,529.2,118.6z"></path>								<path class="st28" d="M527.7,118.5c-1.7,0-3.7-0.7-4.3-1.5c-0.7-0.8,0.1-1.4,1.8-1.4c1.7,0,3.7,0.7,4.3,1.5         C530.2,117.9,529.4,118.5,527.7,118.5z"></path>							</g>							<polygon class="st66" points="527.1,120.7 525.2,120.6 526.2,118.7 528.2,118.8        "></polygon>						</g>					</g>				</g>				<g>					<g>						<g>							<path class="st66" d="M555.2,74.5l-1.7,3.3c-0.4,0.9-1.5,1.4-2.8,1.5c-0.4,0-0.8,0.1-1.2,0c-0.9-0.1-1.9-0.3-2.9-0.7        c-1-0.4-1.8-0.9-2.5-1.5c-0.3-0.3-0.6-0.5-0.8-0.8c-0.7-0.9-1-2-0.5-2.8l1.7-3.3L555.2,74.5z"></path>							<path class="st28" d="M555.2,74.5c0.9-1.6-0.8-3.9-3.8-5.1c-2.9-1.2-6-0.8-6.9,0.9s0.8,3.9,3.8,5.1        C551.3,76.5,554.4,76.1,555.2,74.5z"></path>						</g>						<path class="st64" d="M545.4,74.7l-1.3,2.4c-0.3-0.3-0.6-0.5-0.8-0.8l1.3-2.4L545.4,74.7z"></path>						<path class="st64" d="M551.9,76.8l-1.3,2.4c-0.4,0-0.8,0.1-1.2,0l1.3-2.4L551.9,76.8z"></path>					</g>					<g>						<g>							<g>								<path class="st66" d="M553.4,73L553.4,73l0.5-0.8l-1-0.3c-0.9-0.7-2.5-1.2-4-1.2c-0.2,0-0.4,0-0.7,0l-0.9-0.2l-0.5,0.8h0         c-0.1,0.2-0.1,0.5,0.2,0.8c0.7,0.8,2.6,1.5,4.3,1.5C552.5,73.7,553.2,73.4,553.4,73z"></path>								<path class="st71" d="M547.5,71.3c0.5,0.6,1.8,1.2,3.1,1.4l-2.5-2.7C547.2,70.2,546.9,70.7,547.5,71.3z"></path>							</g>							<g>								<path class="st64" d="M549.3,69.9c-0.5,0-0.9,0-1.2,0.1l2.5,2.7c0.4,0.1,0.8,0.1,1.2,0.1c0.3,0,0.5,0,0.7,0l-2.6-2.9         C549.7,69.9,549.5,69.9,549.3,69.9z"></path>								<path class="st71" d="M553.6,71.4c-0.6-0.7-2.2-1.3-3.7-1.5l2.6,2.9C553.7,72.7,554.2,72.1,553.6,71.4z"></path>							</g>						</g>						<g>							<g>								<path class="st66" d="M554.4,71.2l0.4-0.7l-1-0.4c-0.9-0.7-2.5-1.2-4-1.2c-0.2,0-0.4,0-0.7,0l-0.9-0.2l-0.5,0.8h0         c-0.1,0.2-0.1,0.5,0.2,0.8c0.7,0.8,2.6,1.5,4.3,1.5C553.5,71.9,554.2,71.6,554.4,71.2z"></path>								<path class="st28" d="M552.8,71c-1.7,0-3.7-0.7-4.3-1.5c-0.7-0.8,0.1-1.4,1.8-1.4c1.7,0,3.7,0.7,4.3,1.5         C555.4,70.4,554.5,71.1,552.8,71z"></path>							</g>							<polygon class="st66" points="552.3,73.3 550.4,73.2 551.4,71.3 553.4,71.4        "></polygon>						</g>					</g>				</g>				<g>					<g>						<g>							<path class="st66" d="M612,154.2l-1.7,3.3c-0.5,0.9-0.2,1.9,0.5,2.8c0.2,0.3,0.5,0.6,0.8,0.8c0.6,0.6,1.5,1.1,2.4,1.5        c1,0.4,2,0.6,2.9,0.7c0.4,0,0.8,0,1.2,0c1.3-0.1,2.4-0.6,2.8-1.5l1.7-3.3L612,154.2z"></path>							<path class="st28" d="M612,154.2c0.9-1.6,4-2,6.9-0.9s4.6,3.5,3.7,5.1c-0.9,1.6-4,2-6.9,0.9        C612.8,158.2,611.1,155.9,612,154.2z"></path>						</g>						<path class="st64" d="M618.1,160.9l-1.3,2.4c0.4,0,0.8,0,1.2,0l1.3-2.4L618.1,160.9z"></path>						<path class="st64" d="M612,158l-1.3,2.4c0.2,0.3,0.5,0.6,0.8,0.8l1.3-2.4L612,158z"></path>					</g>					<g>						<g>							<g>								<path class="st66" d="M614.5,154.5L614.5,154.5l0.4-0.8l0.9,0.5c1.2,0.1,2.7,0.9,3.7,1.8c0.2,0.2,0.3,0.3,0.4,0.4l0.8,0.4         l-0.4,0.8c-0.1,0.2-0.4,0.4-0.8,0.4c-1.2,0.1-3-0.8-4.2-1.9C614.5,155.6,614.2,154.9,614.5,154.5z"></path>								<path class="st71" d="M619.8,157.3c-0.9,0.1-2.2-0.4-3.3-1.1l4-0.1C620.9,156.7,620.7,157.3,619.8,157.3z"></path>							</g>							<g>								<path class="st64" d="M619.9,155.2c0.3,0.3,0.5,0.6,0.7,0.8l-4,0.1c-0.3-0.2-0.6-0.5-0.9-0.7c-0.2-0.2-0.3-0.3-0.4-0.5         l4.2-0.2C619.5,154.9,619.7,155,619.9,155.2z"></path>								<path class="st71" d="M615.7,153.3c1-0.1,2.6,0.6,3.7,1.4l-4.2,0.2C614.5,154.1,614.7,153.4,615.7,153.3z"></path>							</g>						</g>						<g>							<g>								<path class="st66" d="M615.4,152.7l0.4-0.8l0.9,0.4c1.2,0.1,2.7,0.9,3.7,1.8c0.2,0.2,0.3,0.3,0.4,0.4l0.8,0.4l-0.4,0.8         c-0.1,0.2-0.4,0.4-0.8,0.4c-1.2,0.1-3-0.8-4.2-1.9C615.4,153.7,615.1,153.1,615.4,152.7z"></path>								<path class="st28" d="M616.5,153.6c1.1,1.1,3,1.9,4.2,1.9s1.2-1,0.1-2.1c-1.1-1.1-3-1.9-4.2-1.9         C615.4,151.5,615.4,152.5,616.5,153.6z"></path>							</g>							<polygon class="st66" points="614.9,155.4 616.3,156.6 617.3,154.7 615.9,153.4        "></polygon>						</g>					</g>				</g>				<g>					<g>						<g>							<path class="st66" d="M636.8,107.6l-1.7,3.3c-0.5,0.9-0.2,1.9,0.5,2.8c0.2,0.3,0.5,0.6,0.8,0.8c0.6,0.6,1.5,1.1,2.4,1.5        c1,0.4,2,0.6,2.9,0.7c0.4,0,0.8,0,1.2,0c1.3-0.1,2.4-0.6,2.8-1.5l1.7-3.3L636.8,107.6z"></path>							<path class="st28" d="M636.8,107.6c0.9-1.6,4-2,6.9-0.9c2.9,1.2,4.6,3.5,3.7,5.1c-0.9,1.6-4,2-6.9,0.9        C637.6,111.5,636,109.3,636.8,107.6z"></path>						</g>						<path class="st64" d="M643,114.2l-1.3,2.4c0.4,0,0.8,0,1.2,0l1.3-2.4L643,114.2z"></path>						<path class="st64" d="M636.9,111.3l-1.3,2.4c0.2,0.3,0.5,0.6,0.8,0.8l1.3-2.4L636.9,111.3z"></path>					</g>					<g>						<g>							<g>								<path class="st66" d="M639.3,107.9L639.3,107.9l0.4-0.8l0.9,0.5c1.2,0.1,2.7,0.9,3.7,1.8c0.2,0.2,0.3,0.3,0.4,0.4l0.8,0.4         l-0.4,0.8c-0.1,0.2-0.4,0.4-0.8,0.4c-1.2,0.1-3-0.8-4.2-1.9C639.3,108.9,639.1,108.3,639.3,107.9z"></path>								<path class="st71" d="M644.7,110.7c-0.9,0.1-2.2-0.4-3.3-1.1l4-0.1C645.8,110.1,645.5,110.6,644.7,110.7z"></path>							</g>							<g>								<path class="st64" d="M644.7,108.6c0.3,0.3,0.5,0.6,0.7,0.8l-4,0.1c-0.3-0.2-0.6-0.5-0.9-0.7c-0.2-0.2-0.3-0.3-0.4-0.5         l4.2-0.2C644.4,108.3,644.6,108.4,644.7,108.6z"></path>								<path class="st71" d="M640.5,106.7c1-0.1,2.6,0.6,3.7,1.4l-4.2,0.2C639.4,107.4,639.6,106.8,640.5,106.7z"></path>							</g>						</g>						<g>							<g>								<path class="st66" d="M640.3,106l0.4-0.8l0.9,0.4c1.2,0.1,2.7,0.9,3.7,1.8c0.2,0.2,0.3,0.3,0.4,0.4l0.8,0.4l-0.4,0.8         c-0.1,0.2-0.4,0.4-0.8,0.4c-1.2,0.1-3-0.8-4.2-1.9C640.3,107.1,640,106.4,640.3,106z"></path>								<path class="st28" d="M641.4,107c1.1,1.1,3,1.9,4.2,1.9c1.2-0.1,1.2-1,0.1-2.1c-1.1-1.1-3-1.9-4.2-1.9         C640.3,104.9,640.3,105.9,641.4,107z"></path>							</g>							<polygon class="st66" points="639.8,108.8 641.1,110 642.2,108.1 640.8,106.8        "></polygon>						</g>					</g>				</g>			</g>							<linearGradient id="SVGID_101_" gradientUnits="userSpaceOnUse" x1="535.2142" y1="347.2156" x2="597.2861" y2="347.2156" gradientTransform="matrix(0.9786 0.2057 0.2057 -0.9786 -74.1249 292.3974)">				<stop offset="0" style="stop-color:#42DAFF"></stop>				<stop offset="1" style="stop-color:#FFFFFF"></stop>			</linearGradient>			<path class="st72" d="M580.3,80.6c4.7-8.9-4.4-21.3-20.4-27.7c-15.9-6.3-32.7-4.3-37.4,4.7c-4.7,8.9,4.4,21.3,20.4,27.7    C558.9,91.6,575.6,89.5,580.3,80.6z"></path>							<linearGradient id="SVGID_102_" gradientUnits="userSpaceOnUse" x1="633.1028" y1="329.2443" x2="695.1747" y2="329.2443" gradientTransform="matrix(0.9786 0.2057 0.2057 -0.9786 -74.1249 292.3974)">				<stop offset="0" style="stop-color:#42DAFF"></stop>				<stop offset="1" style="stop-color:#FFFFFF"></stop>			</linearGradient>			<path class="st73" d="M672.4,118.3c4.7-8.9-4.4-21.3-20.4-27.7c-15.9-6.3-32.7-4.3-37.4,4.7s4.4,21.3,20.4,27.7    C650.9,129.3,667.7,127.2,672.4,118.3z"></path>							<linearGradient id="SVGID_103_" gradientUnits="userSpaceOnUse" x1="618.4168" y1="278.5885" x2="680.4887" y2="278.5885" gradientTransform="matrix(0.9786 0.2057 0.2057 -0.9786 -74.1249 292.3974)">				<stop offset="0" style="stop-color:#42DAFF"></stop>				<stop offset="1" style="stop-color:#FFFFFF"></stop>			</linearGradient>			<path class="st74" d="M647.6,164.9c4.7-8.9-4.4-21.3-20.4-27.7c-15.9-6.3-32.7-4.3-37.4,4.7c-4.7,8.9,4.4,21.3,20.4,27.7    C626.2,175.9,642.9,173.8,647.6,164.9z"></path>							<linearGradient id="SVGID_104_" gradientUnits="userSpaceOnUse" x1="520.5847" y1="295.1834" x2="582.6566" y2="295.1834" gradientTransform="matrix(0.9786 0.2057 0.2057 -0.9786 -74.1249 292.3974)">				<stop offset="0" style="stop-color:#42DAFF"></stop>				<stop offset="1" style="stop-color:#FFFFFF"></stop>			</linearGradient>			<path class="st75" d="M555.3,128.5c4.7-8.9-4.4-21.3-20.4-27.7c-15.9-6.3-32.7-4.3-37.4,4.7s4.4,21.3,20.4,27.7    C533.8,139.5,550.6,137.4,555.3,128.5z"></path>		</g>		<g>							<linearGradient id="SVGID_105_" gradientUnits="userSpaceOnUse" x1="590.6782" y1="312.2131" x2="623.6719" y2="312.2131" gradientTransform="matrix(0.9786 0.2057 0.2057 -0.9786 -74.1249 292.3974)">				<stop offset="0" style="stop-color:#C86DF8"></stop>				<stop offset="1" style="stop-color:#6049E9"></stop>			</linearGradient>			<path class="st76" d="M596.9,108.3c-0.3-0.3-0.7-0.7-1.1-1c-1.8-1.6-4.1-3.1-6.8-4.2c-0.8-0.3-1.7-0.6-2.5-0.9    c-1.9-0.6-3.7-1-5.5-1.1c-0.5-0.1-1.1-0.1-1.6-0.1c-4.8-0.1-8.8,1.5-10.4,4.4c-1.6,3-0.4,6.6,2.6,9.8c0.3,0.4,0.7,0.7,1.1,1.1    c1.8,1.6,4.3,2.8,7,3.9c2.7,1.1,5.3,2.1,7.8,2.3c0.5,0.1,1.1,0.1,1.6,0.1c2.6,0,4.9-0.4,6.7-1.3c1.6-0.7,2.8-1.5,3.7-3.2    C601.1,115.2,600,111.5,596.9,108.3z"></path>			<path class="st77" d="M581.6,118.4c-0.3-0.1-0.5-0.1-0.8-0.2c-1.8-0.8-2.6-2.7-1.7-4.3l0.8-1.5c0.7-1.4,2.4-2.1,4.1-1.8    c0.3,0.1,0.5,0.1,0.8,0.2c0.9,0.4,1.5,1,1.9,1.8c0.3,0.8,0.3,1.7-0.2,2.5l-0.8,1.5C584.9,118,583.3,118.7,581.6,118.4z     M583.9,110.8c-1.5-0.3-3.1,0.4-3.8,1.7l-0.8,1.5c-0.8,1.5-0.1,3.3,1.6,4c0.2,0.1,0.5,0.2,0.7,0.2c1.5,0.3,3.1-0.4,3.8-1.7    l0.8-1.5c0.4-0.7,0.4-1.5,0.2-2.3c-0.3-0.8-0.9-1.4-1.7-1.7C584.4,111,584.2,110.9,583.9,110.8z"></path>			<g>				<path class="st64" d="M581.8,116.4c-1.2-0.5-1.8-1.9-1.2-3l-0.5,0.9c-0.6,1.1-0.1,2.5,1.2,3c1.2,0.5,2.8,0,3.4-1.1l0.5-0.9     C584.5,116.4,583,116.9,581.8,116.4z"></path>				<path class="st78" d="M584.3,111.7c-1.2-0.5-2.8,0-3.4,1.1l-0.3,0.6c-0.6,1.1-0.1,2.5,1.2,3c1.2,0.5,2.8,0,3.4-1.1l0.3-0.6     C586.1,113.6,585.5,112.3,584.3,111.7z"></path>			</g>			<g>				<path class="st77" d="M573.8,107.4c-0.9-0.2-1.7-0.6-2-1.3c-0.3-0.6-0.3-1.3,0-2c0.7-1.4,2.9-2.5,4.9-2.4l3.4,0     c1.3,0,2.4,0.5,2.9,1.3c0.3,0.6,0.3,1.3,0,2c-0.7,1.3-2.8,2.4-4.7,2.4l-3.6,0C574.4,107.5,574.1,107.4,573.8,107.4z M580.9,102     c-0.2,0-0.5-0.1-0.8-0.1l-3.4,0c-1.9,0-4,1-4.7,2.3c-0.3,0.6-0.3,1.3,0,1.8c0.4,0.7,1.4,1.2,2.7,1.2l3.6,0c1.9,0,3.8-1,4.5-2.3     c0.3-0.6,0.3-1.3,0-1.8C582.5,102.6,581.8,102.2,580.9,102z"></path>				<path class="st79" d="M580.1,102.7l-3.4,0c-1.6,0-3.3,0.8-3.9,1.9c-0.6,1.1,0.3,1.9,1.8,1.9l3.6,0c1.5,0,3.2-0.8,3.7-1.9     C582.5,103.6,581.7,102.7,580.1,102.7z"></path>				<path class="st77" d="M596.1,116.7c-0.7-0.1-1.4-0.5-1.9-1.1l-2.3-2.4c-1.2-1.4-1.6-3.4-0.8-4.8c0.6-1,1.6-1.5,2.8-1.3     c0.7,0.1,1.4,0.5,1.9,1.1l2.2,2.3c1.3,1.3,1.7,3.5,0.9,4.9C598.4,116.5,597.3,116.9,596.1,116.7z M593.8,107.4     c-1.1-0.2-2,0.3-2.5,1.2c-0.7,1.3-0.4,3.2,0.8,4.5l2.3,2.4c0.5,0.6,1.2,0.9,1.8,1c1.1,0.2,2-0.3,2.5-1.2     c0.7-1.3,0.3-3.4-0.9-4.6l-2.2-2.3C595.1,107.9,594.4,107.5,593.8,107.4z"></path>				<path class="st79" d="M597.1,111.2l-2.2-2.3c-1-1.1-2.3-1.1-2.9,0c-0.6,1-0.2,2.7,0.7,3.7l2.3,2.4c1,1.1,2.3,1.1,2.9,0     C598.5,114,598.1,112.3,597.1,111.2z"></path>			</g>			<g>				<g>					<path class="st64" d="M574.2,104.6c0.5-1,2.2-1.8,3.7-1.9l-1.2,0c-1.6,0-3.3,0.8-3.9,1.9c-0.6,1.1,0.3,1.9,1.8,1.9l1.3,0      C574.4,106.5,573.6,105.6,574.2,104.6z"></path>					<path class="st78" d="M582,104.7c0.6-1.1-0.3-1.9-1.8-1.9l-2.2,0c-1.5,0-3.2,0.8-3.7,1.9c-0.6,1.1,0.3,1.9,1.8,1.9l2.2,0      C579.8,106.5,581.4,105.7,582,104.7z"></path>				</g>				<g>					<path class="st64" d="M597.1,114.1c0.6-1,0.2-2.7-0.7-3.7l0.8,0.8c1,1.1,1.4,2.8,0.8,3.8c-0.6,1-1.9,1-2.9,0l-0.8-0.9      C595.2,115.2,596.5,115.2,597.1,114.1z"></path>					<path class="st78" d="M592.1,108.9c0.6-1,1.9-1,2.9,0l1.4,1.5c0.9,1.1,1.3,2.7,0.7,3.7c-0.6,1-1.9,1-2.9,0l-1.4-1.5      C591.8,111.5,591.5,109.9,592.1,108.9z"></path>				</g>			</g>							<linearGradient id="SVGID_106_" gradientUnits="userSpaceOnUse" x1="597.7615" y1="315.6326" x2="618.8264" y2="315.6326" gradientTransform="matrix(0.9786 0.2057 0.2057 -0.9786 -74.1249 292.3974)">				<stop offset="0" style="stop-color:#D191FA"></stop>				<stop offset="1" style="stop-color:#C86DF8"></stop>			</linearGradient>			<path class="st80" d="M595.8,112.7c1-1.9,0.3-4.2-1.7-6.3c-0.2-0.2-0.4-0.4-0.7-0.7c-1.2-1-2.6-2-4.4-2.7    c-0.5-0.2-1.1-0.4-1.6-0.6c-1.2-0.4-2.4-0.6-3.5-0.7c-0.3,0-0.7-0.1-1,0c-3.1-0.1-5.6,0.9-6.6,2.8c-1,1.9-0.3,4.2,1.7,6.3    c0.2,0.2,0.4,0.5,0.7,0.7c1.2,1,2.7,1.8,4.5,2.5c1.7,0.7,3.4,1.3,5,1.5c0.3,0,0.7,0.1,1,0c1.6,0,3.1-0.3,4.3-0.8c0,0,0,0,0,0    c0,0,0,0,0,0C594.5,114.3,595.3,113.8,595.8,112.7z"></path>							<ellipse transform="matrix(0.9902 -0.1398 0.1398 0.9902 -8.9569 82.3841)" class="st81" cx="581.8" cy="104.9" rx="3.7" ry="1.7"></ellipse>		</g>		<path class="st66" d="M565.4,132.7l-6.4,12.1c0-0.1-0.1-0.1-0.1-0.2c0,0,0-0.1,0-0.1l0,0l6.2-11.7c0,0,0,0,0,0c0,0,0.1,0,0.1-0.1   C565.3,132.7,565.4,132.7,565.4,132.7z"></path>		<path class="st66" d="M579,138.4l-6.2,11.6c0,0,0,0-0.1,0c0,0-0.1,0-0.1,0.1c-0.1,0-0.1,0-0.2,0.1l6.4-12c0,0,0,0.1,0.1,0.1   C579,138.2,579,138.3,579,138.4C579,138.3,579,138.4,579,138.4z"></path>		<path class="st81" d="M587.6,103.1c0.6,0.1,1,0.5,0.9,0.9c-0.1,0.4-0.6,0.6-1.2,0.5c-0.6-0.1-1-0.5-0.9-0.9   C586.5,103.2,587,103,587.6,103.1z"></path>	</g></g></svg>