 <svg
    xmlns="http://www.w3.org/2000/svg"
    xmlSpace="preserve"
    id="Layer_1"
    x={0}
    y={0}
    style={{
      enableBackground: "new 0 0 512 512",
    }}
    viewBox="0 0 512 512"
    {...props}
  >
    <style>
      {
        ".st0{fill:#8d9ca8}.st1{fill:#7a8c98}.st2{fill:#734eec}.st3{fill:#5e3ec9}.st4{fill:#596c76}.st5{fill:#d9e7ec}.st6{fill:#c5d3dd}.st7{fill:#b570f5}.st8{fill:#8959ef}"
      }
    </style>
    <path
      d="M123.4 152.8 71 145.2v38.7l58.8-7.1-6.4-24zM45 109.2h18.2v39.6H45v-39.6z"
      className="st0"
    />
    <path d="M54.1 109.2h9.1v39.6h-9.1v-39.6z" className="st1" />
    <path
      d="M53 190.5H40.2l-19.7 248c-.2 2.7 1.9 5 4.6 5 2.3 0 4.3-1.7 4.6-3.9l39-249.1H53z"
      className="st0"
    />
    <path
      d="m68.8 190.5-39 249.1c-.4 2.3-2.3 3.9-4.6 3.9h-1.4l32-253h13z"
      className="st1"
    />
    <path
      d="M54.1 207.5c-12.5 0-22.7-10.2-22.7-22.7v-40.5c0-2.8 2.2-5 5-5h35.4c2.8 0 5 2.2 5 5v40.5c0 12.5-10.2 22.7-22.7 22.7z"
      className="st2"
    />
    <path
      d="M76.8 144.3v40.5c0 12.5-10.2 22.7-22.7 22.7-3 0-5.9-.6-8.5-1.6 8.3-3.4 14.2-11.5 14.2-21.1v-40.5c0-2.8-2.2-5-5-5h17c2.7 0 5 2.2 5 5z"
      className="st3"
    />
    <path d="m129.8 176.8-26.5 3.5-3.7-31.5 24.4 4 5.8 24z" className="st1" />
    <path
      d="M71 97.3c0 9.4-7.6 17-17 17s-17-7.6-17-17 7.6-17 17-17 17 7.6 17 17z"
      className="st2"
    />
    <path
      d="M71 97.3c0 9.4-7.6 17-17 17-6.8 0-12.6-4-15.4-9.7 1.8.7 3.9 1.1 5.9 1.1 9.4 0 17-7.6 17-17 0-2.6-.6-5.1-1.6-7.2C66.4 83.8 71 90 71 97.3z"
      className="st3"
    />
    <path
      d="M18.8 104.8H7.5c-4.1 0-7.5-3.4-7.5-7.5s3.4-7.5 7.5-7.5h11.3c4.1 0 7.5 3.4 7.5 7.5s-3.3 7.5-7.5 7.5zM100.6 104.8H89.3c-4.1 0-7.5-3.4-7.5-7.5s3.4-7.5 7.5-7.5h11.3c4.1 0 7.5 3.4 7.5 7.5s-3.3 7.5-7.5 7.5z"
      className="st4"
    />
    <path d="m388.6 152.8 52.3-7.7v38.7l-58.8-7.1 6.5-23.9z" className="st0" />
    <path d="m382.2 176.8 29.4 3.5 4.1-31.5-27 4-6.5 24z" className="st1" />
    <path d="M467 145.2h-18.2v-35.9H467v35.9z" className="st0" />
    <path d="M467 145.2h-9.1v-35.9h9.1v35.9z" className="st1" />
    <path
      d="M459 190.5h12.8l19.7 248c.2 2.7-1.9 5-4.6 5-2.3 0-4.3-1.7-4.6-3.9l-39-249.1H459z"
      className="st0"
    />
    <path
      d="M491.5 438.5c.2 2.7-1.9 5-4.6 5-.6 0-1.2-.1-1.8-.4 1.8-.8 3-2.6 2.8-4.7l-30.2-248h14.2l19.6 248.1z"
      className="st1"
    />
    <path
      d="M457.9 207.5c12.5 0 22.7-10.2 22.7-22.7v-40.5c0-2.8-2.2-5-5-5h-35.4c-2.8 0-5 2.2-5 5v40.5c0 12.5 10.2 22.7 22.7 22.7z"
      className="st2"
    />
    <path
      d="M480.6 144.3v40.5c0 12.5-10.2 22.7-22.7 22.7-3 0-5.9-.6-8.5-1.6 8.3-3.4 14.2-11.5 14.2-21.1v-40.5c0-2.8-2.2-5-5-5h17c2.8 0 5 2.2 5 5z"
      className="st3"
    />
    <path
      d="M474.9 97.3c0 9.4-7.6 17-17 17s-17-7.6-17-17 7.6-17 17-17 17 7.6 17 17z"
      className="st2"
    />
    <path
      d="M474.9 96.7c0 9.4-7.6 17-17 17-6.8 0-12.6-4-15.4-9.7 1.9.7 3.9 1.1 5.9 1.1 9.4 0 17-7.6 17-17 0-2.6-.6-5.1-1.6-7.2 6.5 2.3 11.1 8.5 11.1 15.8z"
      className="st3"
    />
    <path
      d="M504.5 104.8h-11.3c-4.1 0-7.5-3.4-7.5-7.5s3.4-7.5 7.5-7.5h11.3c4.1 0 7.5 3.4 7.5 7.5s-3.4 7.5-7.5 7.5zM422.7 104.8h-11.3c-4.1 0-7.5-3.4-7.5-7.5s3.4-7.5 7.5-7.5h11.3c4.1 0 7.5 3.4 7.5 7.5s-3.4 7.5-7.5 7.5z"
      className="st4"
    />
    <path d="M223.2 206.2h65.9v64.2h-65.9v-64.2z" className="st5" />
    <path d="M272 206.2h17.2v64.2H272v-64.2z" className="st6" />
    <path
      d="M393.8 137.1C362.1 95.7 312.1 69 255.9 69c-55.9 0-105.6 27.1-137.4 68.1h275.3z"
      className="st7"
    />
    <path
      d="M393.8 137.1h-25.9c-28.4-37.1-80.2-62.4-129.2-67.3 5.7-.6 11.4-.9 17.2-.9 56.2.1 106.2 26.8 137.9 68.2z"
      className="st8"
    />
    <path
      d="M369.2 221.2H143.1c-2.6 0-4.8-2.1-4.8-4.8v-32.6H374v32.6c0 2.7-2.1 4.8-4.8 4.8z"
      className="st0"
    />
    <path
      d="M374 182.2v34.2c0 2.6-2.1 4.8-4.8 4.8h-16.7c2.6 0 4.8-2.1 4.8-4.8v-34.2H374z"
      className="st1"
    />
    <path
      d="m110.4 134.2 11.8 54.1c.4 1.6 1.8 2.8 3.4 2.8h261.3c1.7 0 3.1-1.2 3.4-2.8l11.8-54.1c.5-2.2-1.2-4.3-3.4-4.3H113.8c-2.3 0-3.9 2.1-3.4 4.3z"
      className="st2"
    />
    <path
      d="m402 134.2-11.8 54.1c-.4 1.6-1.8 2.8-3.4 2.8h-16.5c1.7 0 3.1-1.1 3.4-2.8l11.8-54.1c.5-2.2-1.2-4.3-3.4-4.3h16.5c2.2 0 3.9 2.1 3.4 4.3z"
      className="st3"
    />
    <path
      d="M306.2 297.1h-99.9v-29.2c0-5.9 4.8-10.6 10.6-10.6h78.6c5.9 0 10.6 4.8 10.6 10.6l.1 29.2z"
      className="st4"
    />
    <path
      d="M306.1 267.9v29.2h-14.5v-29.2c0-5.9-4.8-10.7-10.6-10.7h14.5c5.9.1 10.6 4.8 10.6 10.7z"
      style={{
        fill: "#465a61",
      }}
    />
    <path
      d="M349.2 435.3h-186c-7.7 0-13.9-6.2-13.9-13.9v-120c0-7.7 6.2-13.9 13.9-13.9h185.9c7.7 0 13.9 6.2 13.9 13.9v120c0 7.6-6.2 13.9-13.8 13.9z"
      className="st0"
    />
    <path
      d="M363 301.4v120c0 7.7-6.2 13.9-13.9 13.9h-20c7.7 0 13.9-6.2 13.9-13.9v-120c0-7.7-6.2-13.9-13.9-13.9h20c7.7 0 13.9 6.2 13.9 13.9z"
      className="st1"
    />
    <path
      d="M191.1 327.9h-12c-5.8 0-10.4-4.7-10.4-10.4v-.8c0-5.8 4.7-10.4 10.4-10.4h12c5.8 0 10.4 4.7 10.4 10.4v.8c.1 5.7-4.6 10.4-10.4 10.4z"
      style={{
        fill: "#f7c22c",
      }}
    />
    <path
      d="M201.6 316.6v.8c0 5.8-4.7 10.4-10.4 10.4h-10.6c5.8 0 10.4-4.7 10.4-10.4v-.8c0-5.8-4.7-10.4-10.4-10.4h10.6c5.7 0 10.4 4.7 10.4 10.4z"
      style={{
        fill: "#eeb900",
      }}
    />
    <path
      d="M304.7 364.3c0 26.8-21.7 48.6-48.6 48.6-26.8 0-48.6-21.7-48.6-48.6 0-26.8 21.7-48.6 48.6-48.6 26.9.1 48.6 21.8 48.6 48.6z"
      className="st5"
    />
    <path
      d="M304.7 364.3c0 26.8-21.7 48.6-48.6 48.6-11.4 0-21.8-3.9-30.1-10.5 6.8 3.7 14.6 5.7 22.9 5.7 26.8 0 48.6-21.7 48.6-48.6 0-15.4-7.2-29.2-18.5-38.1 15.4 8.3 25.7 24.4 25.7 42.9z"
      className="st6"
    />
    <path
      d="M280 364.3c0 13.2-10.7 23.8-23.8 23.8-13.2 0-23.8-10.7-23.8-23.8 0-13.2 10.7-23.8 23.8-23.8 13.1 0 23.8 10.7 23.8 23.8z"
      className="st8"
    />
    <path
      d="M280 364.3c0 13.2-10.7 23.8-23.8 23.8-9.3 0-17.3-5.3-21.3-13 3.2 1.6 6.8 2.4 10.5 2.4 13.2 0 23.8-10.7 23.8-23.8 0-3.9-.9-7.6-2.6-10.8 8 3.9 13.4 12 13.4 21.4z"
      className="st7"
    />
    <path
      d="M277.9 349.4c0 8.2-6.7 14.9-14.9 14.9s-14.9-6.7-14.9-14.9 6.7-14.9 14.9-14.9 14.9 6.7 14.9 14.9z"
      className="st5"
    />
    <path
      d="M277.9 349.4c0 8.2-6.7 14.9-14.9 14.9-5.4 0-10.1-2.9-12.8-7.2 1.6.6 3.4 1 5.3 1 8.2 0 14.9-6.7 14.9-14.9 0-2.8-.8-5.5-2.2-7.8 5.7 2.2 9.7 7.6 9.7 14z"
      className="st6"
    />
  </svg>