<svg width="1920" height="1080" viewBox="0 0 1920 1080" preserveAspectRatio="xMidYMid slice" xmlns="http://www.w3.org/2000/svg">
  <defs>
    <linearGradient id="deepBlueGradient" x1="0%" y1="0%" x2="100%" y2="100%">
      <stop offset="0%" stop-color="#048BD6" stop-opacity="1"/>
      <stop offset="100%" stop-color="#013A5C" stop-opacity="1"/>
    </linearGradient>
    <radialGradient id="centralScanGlow" cx="50%" cy="50%" r="60%" fx="50%" fy="50%">
      <stop offset="0%" stop-color="#87CEEB" stop-opacity="0.25"/>
      <stop offset="30%" stop-color="#048BD6" stop-opacity="0.15"/>
      <stop offset="70%" stop-color="#013A5C" stop-opacity="0"/>
      <stop offset="100%" stop-color="#001F3F" stop-opacity="0"/>
    </radialGradient>
    <filter id="nodeGlow" x="-50%" y="-50%" width="200%" height="200%">
      <feGaussianBlur in="SourceGraphic" stdDeviation="5" result="blur"/>
      <feMerge>
        <feMergeNode in="blur"/>
        <feMergeNode in="SourceGraphic"/>
      </feMerge>
    </filter>
    <filter id="lineGlow" x="-50%" y="-50%" width="200%" height="200%">
      <feGaussianBlur in="SourceGraphic" stdDeviation="2" result="blur"/>
      <feMerge>
        <feMergeNode in="blur"/>
        <feMergeNode in="SourceGraphic"/>
      </feMerge>
    </filter>
  </defs>

  <rect x="0" y="0" width="100%" height="100%" fill="url(#deepBlueGradient)"/>

  <circle cx="960" cy="540" r="500" fill="url(#centralScanGlow)"/>

  
<g opacity="0.05" fill="none" stroke="#FFFFFF" stroke-width="0.5">
    <path d="M-100 0 h2020 l100 1080 h-2020 Z" transform="scale(1.2)" />
    <pattern id="hexGrid" width="60" height="52" patternUnits="userSpaceOnUse">
      <path d="M 30 0 L 60 17 L 60 52 L 30 69 L 0 52 L 0 17 Z" stroke="#FFFFFF" stroke-width="0.5" fill="none" />
      <circle cx="30" cy="34.5" r="1" fill="#FFFFFF" opacity="0.1"/>
    </pattern>
    <rect x="-100" y="-100" width="2200" height="1280" fill="url(#hexGrid)" />
  </g>

  
<g opacity="0.7">
    <path d="M 0 540 C 300 300, 600 700, 960 540 C 1300 300, 1600 700, 1920 540"
          stroke="#87CEEB" stroke-width="3" fill="none" opacity="0.2" filter="url(#lineGlow)">
      <animate attributeName="stroke-dasharray" values="0 600; 600 0" dur="18s" repeatCount="indefinite"/>
      <animate attributeName="stroke-dashoffset" values="0; -1200" dur="18s" repeatCount="indefinite"/>
    </path>
    <path d="M 1920 100 C 1500 0, 1100 400, 720 200 C 300 0, 0 400"
          stroke="#87CEEB" stroke-width="2" fill="none" opacity="0.15" filter="url(#lineGlow)">
      <animate attributeName="stroke-dasharray" values="0 400; 400 0" dur="15s" repeatCount="indefinite" begin="2s"/>
      <animate attributeName="stroke-dashoffset" values="0; -800" dur="15s" repeatCount="indefinite" begin="2s"/>
    </path>
    <path d="M 0 980 C 400 1080, 800 680, 1200 880 C 1600 1080, 1920 680"
          stroke="#87CEEB" stroke-width="2" fill="none" opacity="0.15" filter="url(#lineGlow)">
      <animate attributeName="stroke-dasharray" values="0 400; 400 0" dur="15s" repeatCount="indefinite" begin="4s"/>
      <animate attributeName="stroke-dashoffset" values="0; -800" dur="15s" repeatCount="indefinite" begin="4s"/>
    </path>

    
<circle cx="960" cy="540" r="18" fill="#FFFFFF" opacity="0.9" filter="url(#nodeGlow)">
      <animate attributeName="r" values="18;24;18" dur="3s" repeatCount="indefinite"/>
    </circle>

    
<circle cx="250" cy="300" r="12" fill="#FFFFFF" opacity="0.8" filter="url(#nodeGlow)">
      <animate attributeName="r" values="12;16;12" dur="3.5s" repeatCount="indefinite" begin="0.5s"/>
    </circle>
    <circle cx="1670" cy="780" r="12" fill="#FFFFFF" opacity="0.8" filter="url(#nodeGlow)">
      <animate attributeName="r" values="12;16;12" dur="3.5s" repeatCount="indefinite" begin="1s"/>
    </circle>
    <circle cx="1600" cy="250" r="12" fill="#FFFFFF" opacity="0.8" filter="url(#nodeGlow)">
      <animate attributeName="r" values="12;16;12" dur="3.5s" repeatCount="indefinite" begin="1.5s"/>
    </circle>
    <circle cx="320" cy="820" r="12" fill="#FFFFFF" opacity="0.8" filter="url(#nodeGlow)">
      <animate attributeName="r" values="12;16;12" dur="3.5s" repeatCount="indefinite" begin="2s"/>
    </circle>

    
<g fill="#FFFFFF" opacity="0.6" filter="url(#nodeGlow)">
      <circle cx="500" cy="150" r="6"><animate attributeName="r" values="6;8;6" dur="2.5s" repeatCount="indefinite"/></circle>
      <circle cx="1400" cy="950" r="6"><animate attributeName="r" values="6;8;6" dur="2.8s" repeatCount="indefinite" begin="0.3s"/></circle>
      <circle cx="100" cy="600" r="6"><animate attributeName="r" values="6;8;6" dur="2.7s" repeatCount="indefinite" begin="0.6s"/></circle>
      <circle cx="1800" cy="400" r="6"><animate attributeName="r" values="6;8;6" dur="2.6s" repeatCount="indefinite" begin="0.9s"/></circle>
      <circle cx="700" cy="800" r="6"><animate attributeName="r" values="6;8;6" dur="2.9s" repeatCount="indefinite" begin="1.2s"/></circle>
      <circle cx="1200" cy="180" r="6"><animate attributeName="r" values="6;8;6" dur="2.4s" repeatCount="indefinite" begin="1.5s"/></circle>
      <circle cx="580" cy="450" r="6"><animate attributeName="r" values="6;8;6" dur="2.3s" repeatCount="indefinite" begin="1.8s"/></circle>
      <circle cx="1340" cy="650" r="6"><animate attributeName="r" values="6;8;6" dur="2.5s" repeatCount="indefinite" begin="2.1s"/></circle>
    </g>

    
<g stroke="#FFFFFF" stroke-width="1" opacity="0.3" filter="url(#lineGlow)">
      <line x1="960" y1="540" x2="250" y2="300"/>
      <line x1="960" y1="540" x2="1670" y2="780"/>
      <line x1="960" y1="540" x2="1600" y2="250"/>
      <line x1="960" y1="540" x2="320" y2="820"/>

      <line x1="250" y1="300" x2="500" y2="150"/>
      <line x1="250" y1="300" x2="100" y2="600"/>
      <line x1="1670" y1="780" x2="1400" y2="950"/>
      <line x1="1670" y1="780" x2="1340" y2="650"/>
      <line x1="1600" y1="250" x2="1200" y2="180"/>
      <line x1="1600" y1="250" x2="1800" y2="400"/>
      <line x1="320" y1="820" x2="700" y2="800"/>
      <line x1="320" y1="820" x2="100" y2="600"/>

      <line x1="500" y1="150" x2="1200" y2="180"/>
      <line x1="100" y1="600" x2="700" y2="800"/>
      <line x1="1800" y1="400" x2="1340" y2="650"/>
      <line x1="1400" y1="950" x2="700" y2="800"/>
      <line x1="580" y1="450" x2="960" y2="540"/>
    </g>
  </g>

  
<g stroke="#FFFFFF" stroke-width="1.5" opacity="0.3" fill="none" filter="url(#lineGlow)">
    
<path d="M 0 100 A 1000 1000 0 0 1 1920 100" transform="translate(0, 50)" >
      <animate attributeName="stroke-dasharray" values="0 200; 200 0" dur="10s" repeatCount="indefinite"/>
      <animate attributeName="stroke-dashoffset" values="0; -400" dur="10s" repeatCount="indefinite"/>
    </path>
    
<path d="M 1920 980 A 1000 1000 0 0 1 0 980" transform="translate(0, -50)">
      <animate attributeName="stroke-dasharray" values="0 200; 200 0" dur="10s" repeatCount="indefinite" begin="5s"/>
      <animate attributeName="stroke-dashoffset" values="0; -400" dur="10s" repeatCount="indefinite" begin="5s"/>
    </path>
  </g>

</svg>